<?xml  version="1.0" encoding="UTF-8"?>
<!DOCTYPE svg PUBLIC "-//W3C//DTD SVG 1.0//EN" "http://www.w3.org/TR/2001/REC-SVG-20010904/DTD/svg10.dtd" >
<svg xmlns="http://www.w3.org/2000/svg" >
<metadata>
<version>1.0</version>
<id><![CDATA[Bell MT W02 SemiBold]]></id>
<vendor>Monotype Imaging Inc.</vendor>
<credits>
<name>Fonts.com WebFonts</name>
<URL>http://webfonts.fonts.com</URL>
<role>Home of the Web fonts</role>
</credits>
<license>
<URL>http://webfonts.fonts.com/Legal</URL>
</license>
<copyright><![CDATA[Copyright © 1998, 2002 Adobe Systems Incorporated.  All Rights Reserved. Copyright © 1998, 2002 The Monotype Corporation]]></copyright>
<trademark><![CDATA[Bell is a registered trademark of The Monotype Corporation in the United States and/or other countries.]]></trademark>
<licensee>
<name></name>
</licensee>
</metadata>
<defs >
<font horiz-adv-x="539" id="7748acf9-4f3a-4a1f-af29-983b137acbfc">
<font-face font-family="" panose-1="2 2 7 3 7 4 1 2 3 3" ascent="873" descent="-280" units-per-em="1000" alphabetic="0">
</font-face>
<missing-glyph horiz-adv-x="0" />

<glyph unicode="&#xA;" />
<glyph unicode="&#xD;" horiz-adv-x="0" />
<glyph unicode=" " horiz-adv-x="255" />
<glyph unicode="!" horiz-adv-x="250" d="M128 107Q154 107 171 90T188 48Q188 23 171 6T128 -12Q105 -12 87 5T69 48Q69 73 86 90T128 107ZM122 651Q150 651 167 632T185 577Q185 571 183 549T177 494T168 425T159 353T152 292T148 251Q147 239 146 224T143 194T140 169T138 158Q137 155 132 155T123 154Q112 154 111 159T107 186Q105 213 104 233T101 271T97 309T92 353T84 412T73 493Q70 516 67 542T63 584Q63 590 65 601T73 623T90 643T122 651Z"  />
<glyph unicode="&quot;" horiz-adv-x="406" d="M255 515Q251 535 249 547T246 568T245 582T244 596Q244 600 244 610T249 630T263 647T291 655Q310 655 326 642T342 603Q342 596 342 591T340 576T336 553T329 514L302 370H281L255 515ZM76 515Q72 535 70 547T67 568T66 582T65 596Q65 600 65 610T70 630T84 647T112 655Q131 655 147 642T163 603Q163 596 163 591T161 576T157 553T150 514L123 370H102L76 515Z"  />
<glyph unicode="#" horiz-adv-x="667" d="M206 469L248 669H299L256 469H471L513 669H564L522 469H622V417H512L473 228H622V177H462L420 -23H369L411 177H195L154 -23H103L145 177H45V228H155L195 417H45V469H206ZM246 417L206 229H422L461 417H246Z"  />
<glyph unicode="$" horiz-adv-x="510" d="M275 592V530Q321 527 353 515T404 487T432 453T441 420Q441 405 430 387T392 369Q372 369 361 382T349 409Q349 418 351 425T358 439Q360 441 365 451T371 463Q371 463 369 469T357 481T328 494T275 503V316Q306 307 340 295T402 264T448 215T467 142Q467 97 446 64T396 12Q361 -11 331 -17T275 -25V-145H238V-25Q169 -18 131 2T75 45T54 89T51 116Q51 149 67 161T101 174Q126 174 138 157T151 121Q151 106 144 96T130 82Q119 75 117 73T114 65Q114 59 121 49T144 30T182 12T238 0V225Q205 237 174 249T119 279T80 321T65 382Q65 421 85 453T139 504Q169 521 193 525T238 530V592H275ZM238 504Q197 501 174 490T139 466T124 440T121 421Q121 401 129 387T152 363T189 345T238 326V504ZM275 1Q295 3 315 7T356 25Q375 36 389 58T403 106Q403 131 392 149T362 179T320 199T275 215V1Z"  />
<glyph unicode="%" horiz-adv-x="760" d="M110 477Q110 456 113 433T124 391T145 358T181 345Q214 345 237 383T260 501Q260 538 253 562T235 600T211 620T186 626Q157 626 142 607T120 562T111 512T110 477ZM600 650L202 -10H159L559 650H600ZM35 480Q35 521 48 552T83 606T132 639T187 650Q213 650 239 640T287 609T321 558T335 487Q335 445 322 414T287 362T239 331T186 321Q162 321 135 330T86 358T50 408T35 480ZM415 148Q415 189 428 221T463 274T512 307T566 319Q593 319 619 309T667 277T701 226T715 156Q715 114 702 83T666 30T618 -1T566 -11Q542 -11 515 -2T466 26T430 76T415 148ZM490 145Q490 125 493 102T503 59T525 26T560 13Q594 13 617 51T640 169Q640 206 633 230T615 268T591 289T566 295Q537 295 522 276T500 231T491 180T490 145Z"  />
<glyph unicode="&amp;" horiz-adv-x="719" d="M295 394Q325 368 346 348T386 305T422 256T465 192Q471 201 480 215T497 247T512 286T518 328Q518 346 512 356T497 372T478 379T458 381Q452 381 443 382T434 394Q434 403 442 405T455 407Q462 407 481 407T521 405T561 404T589 403Q593 403 602 403T623 404T643 405T657 406Q661 406 666 404T671 394Q671 386 667 385T659 383Q633 383 614 371T580 342T554 304T536 267Q525 243 517 227T503 200T491 180T481 164Q491 144 503 123T528 84T556 55T588 43Q597 43 610 46T644 63Q646 64 651 66T662 69Q665 69 668 66T671 58Q671 53 659 42T627 20T583 -1T533 -10Q510 -10 494 -4T464 14T439 44T412 87Q400 76 380 60T333 27T273 0T202 -12Q160 -12 129 1T78 36T47 83T36 134Q36 174 53 206T95 265T148 312T201 348Q189 361 175 377T149 414T128 457T119 506Q119 537 131 560T162 599T206 622T254 630Q278 630 300 622T339 601T366 569T376 528Q376 505 368 485T347 449T321 418T295 394ZM274 412Q290 428 308 454T327 515Q327 532 321 548T305 576T281 596T251 604Q225 604 206 585T187 537Q187 514 197 494T222 458T251 430T274 412ZM220 328Q185 299 159 267T133 189Q133 170 140 146T162 99T201 61T260 45Q285 45 306 52T346 70T377 92T399 111Q377 150 358 179T319 232T275 278T220 328Z"  />
<glyph unicode="&apos;" horiz-adv-x="177" d="M51 515Q47 535 45 547T42 568T41 582T40 596Q40 600 40 610T45 630T59 647T87 655Q106 655 122 642T138 603Q138 596 138 591T136 576T132 553T125 514L98 370H77L51 515Z"  />
<glyph unicode="(" horiz-adv-x="323" d="M49 196Q49 261 62 321T94 434T137 530T182 603T219 650T240 667Q242 667 248 666T260 663T272 659T277 654Q277 650 273 644T265 633Q251 615 226 574T176 475T133 344T115 192Q115 156 120 108T141 4T183 -111T254 -225Q257 -229 264 -239T272 -252Q272 -257 267 -259T254 -264T239 -266T229 -267Q223 -267 207 -251T171 -204T130 -132T90 -39T61 72T49 196Z"  />
<glyph unicode=")" horiz-adv-x="323" d="M82 667Q87 667 91 664T107 647Q134 615 163 568T217 462T258 336T274 196Q274 132 263 73T233 -38T194 -132T152 -204T116 -250T94 -267Q92 -267 85 -267T71 -264T57 -260T51 -252Q51 -249 58 -240T69 -225Q111 -171 138 -114T180 -2T202 103T208 192Q208 273 190 345T147 475T97 574T58 633Q56 636 51 643T46 653Q46 658 52 660T63 663L82 667Z"  />
<glyph unicode="*" horiz-adv-x="500" d="M249 666Q257 666 268 659T280 633Q280 621 279 604T275 569T270 534T265 504Q264 501 263 493T261 483Q261 479 264 479Q269 479 272 483T286 505Q307 536 320 555T340 584T352 598T362 606Q364 607 370 609T381 612Q389 612 400 606T411 583Q411 578 410 574T403 564T387 550T359 530Q343 519 321 505T283 479Q281 477 280 476T278 472Q278 470 280 469T284 467Q286 467 296 469T308 472Q336 479 353 483T381 489T399 491T416 492Q419 492 426 492T442 488T456 479T462 461Q462 455 456 444T428 432Q422 432 405 434T367 440T327 447T299 453Q297 453 293 454T286 456Q281 456 281 452Q281 448 285 446T307 432Q312 429 323 422T347 406T374 386T400 365Q408 357 411 350T414 337Q414 325 406 316T385 306Q375 306 366 312T346 331T321 365T285 419Q283 422 279 429T272 436Q267 436 267 431Q267 427 269 416T272 402Q276 379 278 363T282 333T285 310T286 289Q286 274 278 262T254 250Q244 250 238 254T229 264T224 276T222 285Q222 293 226 315T236 362T245 405T250 428Q250 433 246 433Q244 433 241 430T228 412Q206 378 193 359T173 330T161 315T152 308Q147 305 142 303T131 300Q123 300 112 306T101 327Q101 335 104 341T114 355T133 372T163 394Q179 405 197 418T224 437Q225 438 227 439T230 443Q230 447 225 447Q220 447 206 443T186 438Q175 435 160 432T130 427T100 422T78 420Q66 420 55 429T44 452Q44 465 54 475T80 485Q89 485 108 482T149 475T187 467T211 462Q213 461 219 460T227 459Q232 459 232 463Q232 464 218 474T185 497T148 520T124 537Q112 546 101 557T89 583Q89 594 96 602T116 610Q125 610 133 605T150 592T166 575T179 558Q182 554 192 542T213 515T234 490T245 479Q248 479 248 483Q248 485 247 490T246 496Q243 506 238 524T228 563T220 602T216 632Q216 643 224 654T249 666Z"  />
<glyph unicode="+" horiz-adv-x="667" d="M308 317V555H360V317H598V265H360V27H308V265H70V317H308Z"  />
<glyph unicode="&#x2c;" horiz-adv-x="250" d="M51 36Q51 52 57 63T72 82T93 92T117 96Q132 96 146 90T173 74T192 49T199 16Q199 -23 181 -56T138 -113T92 -150T62 -163Q57 -163 54 -159T50 -150Q50 -145 53 -142T62 -137Q79 -128 91 -114T112 -86T125 -57T129 -34Q129 -23 124 -21T108 -17Q91 -15 79 -9Q68 -4 60 6T51 36Z"  />
<glyph unicode="-" horiz-adv-x="365" d="M317 245Q337 245 342 242T347 221V188Q347 173 347 170T342 164Q339 162 335 162T317 162H49Q32 162 28 162T20 165Q18 167 18 170T18 188V224Q18 240 23 242T49 245H317Z"  />
<glyph unicode="." horiz-adv-x="229" d="M114 107Q140 107 157 90T174 48Q174 23 157 6T114 -12Q91 -12 73 5T55 48Q55 73 72 90T114 107Z"  />
<glyph unicode="/" horiz-adv-x="510" d="M455 665L109 -18H55L401 665H455Z"  />
<glyph unicode="0" horiz-adv-x="510" d="M27 257Q27 314 45 363T96 450T170 508T261 530Q310 530 351 507T421 446T467 360T484 262Q484 216 469 168T424 80T351 15T252 -11Q204 -11 163 9T91 66T44 151T27 257ZM126 264Q126 211 134 166T158 87T199 34T257 15Q289 15 310 30T346 70T368 123T380 179T384 227T385 259Q385 270 385 292T380 342T369 398T348 450T313 489T262 504Q227 504 202 482T159 425T134 348T126 264Z"  />
<glyph unicode="1" horiz-adv-x="510" d="M317 502Q317 485 317 451T317 374T317 286T316 200T317 129T319 86Q320 73 321 63T328 44T344 31T372 25Q381 23 389 22T397 12Q397 10 395 5T381 0Q367 0 337 0T274 0T209 -1T160 -1Q157 -1 150 0T142 11Q142 19 149 20T164 23Q190 26 208 35T231 71Q232 78 232 94T233 130T234 168T234 195Q234 281 233 329T230 401T223 433T212 447Q204 455 194 458T149 465Q145 466 139 467T132 477Q132 486 137 488T152 492Q184 497 203 500T237 506T263 513T292 526Q300 530 307 530Q313 530 315 526T317 502Z"  />
<glyph unicode="2" horiz-adv-x="510" d="M77 0Q55 0 50 1T45 8Q45 13 50 18T60 27Q110 67 147 96T211 151T260 201T299 257Q331 311 338 349T346 410Q346 426 341 442T327 471T304 492T272 500Q245 500 218 485T170 445T136 385T122 310Q122 305 122 297T127 281T139 267T163 261Q180 261 193 270T216 292T230 314T235 325Q240 335 242 339T250 343Q254 343 258 340T262 332Q262 322 253 304T228 267T191 236T144 223Q127 223 111 230T81 249T60 277T52 312Q52 353 75 392T134 462T214 511T301 530Q332 530 358 520T404 493T433 450T444 395Q444 359 429 325T382 255T297 178T171 84V82H325Q361 82 380 88T415 116Q429 137 433 142T445 147Q456 147 456 137Q456 132 453 126T448 114L395 0H77Z"  />
<glyph unicode="3" horiz-adv-x="510" d="M309 296Q337 293 357 288T396 270Q419 254 432 230T445 178Q445 142 427 108T377 47T304 4T217 -12Q190 -12 161 -6T107 14T66 46T50 90Q50 110 64 127T102 144Q123 144 136 132T149 106Q149 103 147 96T143 81T139 65T137 55Q137 41 154 28T208 14Q237 14 255 26T289 57Q298 69 309 88T329 129T344 175T351 217Q351 218 350 226T343 245T327 263T297 272Q290 272 284 271T270 265T250 251T216 226Q214 224 210 222T200 219Q196 219 193 222T189 232Q189 237 193 241T204 250Q236 273 262 298T306 344Q324 365 331 383T339 428Q339 440 335 453T324 477T304 495T275 502Q249 502 229 490T194 461T171 423T163 386Q163 367 173 355T198 343Q205 343 214 348T234 368Q241 377 246 383T256 389Q262 389 265 386T268 378Q268 372 260 359T239 333T207 309T170 298Q147 298 133 307T111 328T101 353T98 374Q98 401 112 428T153 478T217 515T299 530Q332 530 356 522T397 501T422 470T430 434Q430 414 423 398T400 366T362 334T309 296Z"  />
<glyph unicode="4" horiz-adv-x="510" d="M200 -1Q183 -1 176 0T169 10Q169 19 175 20T190 23Q211 23 223 28T241 41T250 60T253 83Q253 86 254 101T256 135T257 170T258 194Q204 194 172 194T116 193T73 191T24 188Q26 207 27 212T35 226Q89 294 145 357T263 481Q279 497 289 507T306 522T317 528T328 530Q345 530 345 514Q345 440 345 369T345 223Q361 223 379 225T413 234T440 258T453 304Q454 312 455 316T465 320Q472 320 474 315T477 304Q477 295 477 272T477 223T477 175T477 143Q478 129 477 120T465 111Q458 111 456 116T452 126Q446 154 439 169T419 190T388 197T345 197Q345 186 345 164T346 117T349 71T357 42Q365 31 376 28T410 23Q415 22 420 21T425 11Q425 2 418 1T397 -1H200ZM258 222Q259 227 259 241T259 261Q259 271 259 296T260 349T261 402T262 438Q203 381 153 324T67 218Q87 218 112 218T162 219T213 220T258 222Z"  />
<glyph unicode="5" horiz-adv-x="510" d="M178 527Q189 524 200 522T224 517Q236 515 249 514T278 512Q306 512 327 518T363 534T387 552T401 567Q408 576 414 576Q425 576 425 564Q425 553 413 532T377 490T315 454T228 438Q219 438 208 439T192 440Q187 416 184 400T177 368T172 337T166 297Q175 304 186 312T213 328T246 341T288 346Q321 346 348 334T396 303T428 257T440 203Q440 153 417 114T359 48T281 6T199 -9Q173 -9 147 -3T99 17T64 49T50 94Q50 114 64 131T101 148Q119 148 133 137T148 106Q148 103 147 97T143 83T140 70T138 61Q138 46 144 37T159 23T180 17T200 15Q245 15 273 38T316 94T336 161T342 216Q342 223 341 239T334 273T313 303T272 316Q245 316 225 305T189 278T165 245T154 216Q153 209 151 203T140 197Q135 197 132 200T128 211Q128 215 131 237T139 290T150 359T161 430T171 490T178 527Z"  />
<glyph unicode="6" horiz-adv-x="510" d="M364 473Q362 484 352 494T310 504Q293 504 269 498T221 471T176 408T145 296Q169 310 198 322T268 335Q299 335 331 326T391 296T435 245T453 171Q453 135 438 102T395 44T330 3T247 -13Q205 -13 168 1T103 45T58 117T41 220Q41 294 63 352T124 449T213 509T319 530Q347 530 373 525T418 509T450 481T462 442Q462 416 446 403T409 390Q383 390 373 404T363 435L364 473ZM135 172Q135 162 138 136T152 83T185 34T246 13Q271 13 291 24T324 56T345 102T352 159Q352 225 324 264T244 303Q192 303 164 266T135 172Z"  />
<glyph unicode="7" horiz-adv-x="510" d="M441 491Q411 430 392 392T362 327T344 282T334 241Q331 228 329 216T325 183T319 131T313 46Q311 8 298 -8T261 -25Q237 -25 225 -8T212 30Q212 54 229 102T272 208T328 326T385 436H189Q147 436 126 423T88 381Q83 372 80 370T71 367Q59 367 59 380Q59 383 63 404T74 452T86 502T97 536Q99 540 102 546T113 552Q118 552 121 547T126 540Q129 533 132 529T142 523T161 519T195 518H450L441 491Z"  />
<glyph unicode="8" horiz-adv-x="510" d="M184 258Q166 267 148 277T116 302T94 337T85 385Q85 414 97 442T132 492T190 529T268 543Q306 543 336 534T388 508T420 472T431 429Q431 402 420 381T394 344T363 317T337 300Q351 292 370 281T407 252T437 213T450 160Q450 124 434 93T390 39T326 3T248 -10Q211 -10 178 1T120 30T81 71T66 121Q66 146 77 166T105 203T143 233T184 258ZM305 313Q313 318 325 326T348 348T368 378T377 420Q377 465 346 491T268 517Q217 517 185 490T152 423Q152 401 163 385T194 357T243 335T305 313ZM215 245Q204 238 190 227T163 201T140 165T131 118Q131 99 139 81T162 49T201 25T256 16Q288 16 310 26T347 51T367 85T373 120Q373 145 363 163T333 194T284 220T215 245Z"  />
<glyph unicode="9" horiz-adv-x="510" d="M364 222Q345 211 312 197T228 183Q190 183 159 196T105 233T69 286T56 349Q56 385 71 418T114 476T179 515T259 530Q296 530 333 518T401 477T449 405T468 297Q468 238 451 180T398 76T310 2T186 -27Q125 -27 85 -3T44 63Q44 87 60 102T99 117Q112 117 120 113T134 102T142 88T145 75Q145 70 143 57T141 39Q141 28 146 20T159 8T176 1T195 -1Q218 -1 247 11T305 60Q319 78 329 99T345 141T356 184T364 222ZM155 363Q155 341 159 315T176 267T209 229T263 214Q276 214 294 219T329 240T357 284T369 359Q369 425 340 464T262 504Q245 504 227 497T192 474T166 431T155 363Z"  />
<glyph unicode=":" horiz-adv-x="229" d="M114 361Q140 361 157 344T174 302Q174 277 157 260T114 242Q91 242 73 259T55 302Q55 327 72 344T114 361ZM114 107Q140 107 157 90T174 48Q174 23 157 6T114 -12Q91 -12 73 5T55 48Q55 73 72 90T114 107Z"  />
<glyph unicode=";" horiz-adv-x="250" d="M51 36Q51 52 57 63T72 82T93 92T117 96Q132 96 146 90T173 74T192 49T199 16Q199 -23 181 -56T138 -113T92 -150T62 -163Q57 -163 54 -159T50 -150Q50 -145 53 -142T62 -137Q79 -128 91 -115T112 -86T125 -57T129 -34Q129 -23 124 -21T108 -17Q91 -15 79 -9Q68 -4 60 6T51 36ZM125 361Q151 361 168 344T185 302Q185 277 168 260T125 242Q102 242 84 259T66 302Q66 327 83 344T125 361Z"  />
<glyph unicode="&lt;" horiz-adv-x="667" d="M70 269V316L597 538V481L140 292L597 103V46L70 269Z"  />
<glyph unicode="=" horiz-adv-x="667" d="M598 205V153H70V205H598ZM598 434V382H70V434H598Z"  />
<glyph unicode="&gt;" horiz-adv-x="667" d="M597 315V268L70 46V103L527 291L70 480V538L597 315Z"  />
<glyph unicode="?" horiz-adv-x="448" d="M132 180Q131 165 130 162T120 158Q106 158 104 160T101 176V379Q107 373 117 364T139 346T167 332T198 326Q220 326 239 341T271 380T293 432T301 487Q301 512 294 537T274 584T240 618T194 631Q182 631 176 628T166 621T163 611T162 601Q162 597 162 585T162 569Q159 554 153 546T138 534T124 528T114 527Q98 527 81 539T64 574Q64 609 96 631T187 653Q228 653 265 639T330 600T374 541T391 464Q391 427 379 395T344 340T293 303T230 289Q198 289 178 298T142 316L132 180ZM122 107Q148 107 165 90T182 48Q182 23 165 6T122 -12Q99 -12 81 5T63 48Q63 73 80 90T122 107Z"  />
<glyph unicode="@" horiz-adv-x="927" d="M695 435L605 128Q600 111 596 89T591 53Q591 38 601 26T631 13Q655 13 691 33T760 93T817 188T841 316Q841 376 821 431T762 530T664 599T528 625Q424 625 344 587T208 485T125 340T96 174Q96 85 126 14T208 -107T329 -184T478 -211Q529 -211 587 -197T701 -151T803 -68T878 59H908Q879 -13 840 -63T759 -146T673 -197T592 -225T524 -236T478 -238Q386 -238 307 -207T170 -120T78 16T45 191Q45 287 79 371T174 519T323 618T517 655Q610 655 676 626T785 551T848 445T868 325Q868 261 848 199T791 88T699 9T576 -22Q526 -22 501 1T476 65Q476 80 480 99T488 130L486 132Q472 109 455 82T418 32T372 -6T319 -22Q295 -22 280 -12T255 15T241 50T237 88Q237 161 264 226T330 341T412 419T489 448Q511 448 524 440T544 420T554 395T558 372H560L576 430L695 435ZM503 413Q496 413 484 407T460 386Q436 351 418 312T388 235T369 165T363 113Q363 91 372 79T392 67Q403 67 418 79T449 112T481 160T509 219T529 283T537 347Q537 385 525 399T503 413Z"  />
<glyph unicode="A" horiz-adv-x="719" d="M371 654Q376 641 389 610T417 545T444 479T462 436Q467 422 477 395T500 334T527 262T554 190T577 130T593 91Q603 67 613 54T635 33T659 23T686 19Q692 18 696 16T701 6Q701 -5 685 -5Q682 -5 668 -5T635 -3Q618 -2 602 -2T579 -1Q574 -1 552 -1T501 -2Q473 -3 448 -3T413 -4Q409 -4 404 -3T398 7Q398 15 403 16T434 22Q453 24 467 33T481 64Q481 71 480 78T474 102T458 152T427 245Q408 245 380 245T322 244T262 243T213 243Q210 237 202 217T186 171T170 121T163 79Q163 63 171 53T191 35T214 25T231 21Q249 17 253 16T258 7Q258 5 256 0T243 -5Q233 -5 210 -5T160 -3Q134 -2 111 -2T79 -1Q76 -1 70 -1T57 -2T43 -2T34 -1Q25 1 25 9Q25 17 31 19T44 24Q67 28 82 38T111 68T137 123T170 212Q196 283 214 333T251 431T290 529T343 654H371ZM316 519Q307 499 294 467T268 400T242 332T223 278Q226 278 236 278T259 279T282 279T298 280Q304 280 320 280T355 279T389 279T413 278Q400 312 391 335T373 383T350 439T316 519Z"  />
<glyph unicode="B" horiz-adv-x="625" d="M394 343Q421 336 453 325T514 295T562 248T582 176Q582 135 565 102T518 44T448 7T361 -7Q350 -7 324 -6T268 -4Q239 -3 213 -2T176 -1Q134 -1 99 -2T40 -6Q31 -2 31 5Q31 13 38 15T69 23Q92 28 103 39T121 83Q124 101 126 133T129 204T130 286T130 367Q130 384 130 417T128 485T123 549T113 590Q105 604 89 609T58 616Q52 617 49 620T46 629Q46 637 55 638T69 640Q78 640 102 640T154 640T204 640T233 641Q240 641 258 642T297 644T335 645T360 646Q396 646 430 638T492 613T535 567T552 500Q552 458 535 431T493 386T441 359T394 345V343ZM238 349Q263 349 298 351T364 366T418 409T441 494Q441 531 430 555T399 594T356 614T305 620Q284 620 269 617T238 609Q238 600 238 576T237 525T237 478T236 452Q236 437 236 407T238 349ZM238 318Q238 308 238 282T237 227T236 171T235 133Q235 121 235 106T236 77T238 53T242 39Q246 33 260 30T289 26T317 24T333 23Q397 23 432 63T467 168Q467 206 457 231T432 274T397 300T360 313T325 318T300 319Q292 319 277 319T238 318Z"  />
<glyph unicode="C" horiz-adv-x="646" d="M538 599Q544 603 547 606T554 612T561 620T572 634Q574 636 577 638T584 641Q590 641 592 636T595 626Q596 609 598 585T602 534T605 484T607 444Q607 430 595 430Q590 430 588 433T579 450Q561 487 540 519T492 574T434 610T366 623Q323 623 287 603T225 546T184 455T169 334Q169 247 192 188T251 93T327 42T401 26Q443 26 475 41T532 78T571 122T595 157Q602 169 610 169Q618 169 621 165T625 155Q625 147 609 120T560 63T475 10T355 -14Q287 -14 229 10T128 77T61 180T36 312Q36 379 58 440T121 547T222 621T356 649Q419 649 464 632T538 599Z"  />
<glyph unicode="D" horiz-adv-x="781" d="M356 637Q419 638 469 628T560 598Q598 580 630 553T686 488T723 406T736 307Q736 256 719 200T660 96T550 18T378 -13Q368 -13 360 -13T337 -11T299 -8T231 -3Q224 -3 213 -3T190 -2T167 -1T149 -1Q142 -1 126 -1T93 -3Q76 -4 61 -5T39 -6Q31 -6 25 -5T19 4Q19 13 25 14T48 18Q71 20 85 26T109 42T122 68T129 103Q130 109 131 136T133 201T135 281T137 361T138 425T139 458Q139 514 135 545T121 592T97 612T65 619Q62 619 58 620T54 630Q54 638 60 640T73 642Q79 642 93 641T125 639Q142 638 157 637T177 635Q204 635 252 635T356 637ZM237 138Q236 118 238 97T252 58T289 29T361 17Q414 17 458 37T535 95T585 184T603 300Q603 324 599 359T582 432T544 508T476 574Q466 581 454 587T423 598T381 606T323 609Q316 609 305 609T283 608T264 603T254 595Q252 590 251 558T248 480T244 381T241 278T239 191T237 138Z"  />
<glyph unicode="E" horiz-adv-x="656" d="M421 212Q421 207 420 202T410 197Q403 197 401 203T397 215Q391 247 377 266T342 296T293 311T230 316Q230 297 230 264T229 194T231 127T237 79Q242 59 257 48T291 31T328 24T358 22Q419 22 461 36T530 70T571 109T590 138Q598 155 600 158T609 162Q615 162 617 158T619 150Q619 147 616 130T608 90T597 40T584 -8Q526 -8 487 -8T419 -9T369 -9T326 -8Q316 -8 291 -7T237 -4Q209 -2 187 -2T160 -1H43Q35 0 28 1T21 10Q21 17 27 19T61 26Q76 29 87 33T107 51T120 93T125 171Q125 285 125 357T123 472T120 536T115 568Q109 589 88 598T46 612Q38 614 36 616T34 622Q34 631 41 633T53 636Q62 636 83 636T127 634T171 633T200 632L398 633H555Q572 567 578 527T585 485Q585 482 583 478T576 474Q571 474 568 478T562 486Q558 493 550 503T532 525T512 547T492 566Q479 577 466 585T435 598T397 605T348 607Q324 607 308 607T280 605T258 602T237 599Q236 587 235 573T233 532T231 462T230 346Q270 346 297 348T342 358T374 385T399 434Q403 442 405 446T414 451Q417 451 420 449T424 438Q424 428 423 425Q421 393 421 366T420 332L421 212Z"  />
<glyph unicode="F" horiz-adv-x="635" d="M607 491Q607 486 605 483T599 479Q592 479 588 484T581 495Q557 535 525 558T460 592T397 605T345 608Q336 608 321 608T292 606T266 602T251 596Q245 591 244 579T242 546Q242 537 242 515T241 468T240 421T239 391Q239 381 239 368T240 350Q268 349 292 349T336 356T371 375T398 413Q399 416 400 422T403 436T406 449T409 458Q412 463 418 463Q422 463 426 460T431 448Q431 448 431 444T431 428T429 392T427 328Q427 314 427 297T426 263T426 234T425 220Q423 212 418 209T410 206Q403 206 402 212T399 235Q397 259 380 282T337 314Q328 317 319 318T300 320T275 321T240 320Q239 311 239 301T238 272T238 221T238 134Q238 116 239 96T246 58T267 30T308 18Q319 18 327 16T335 6Q335 2 332 -2T318 -6Q311 -6 292 -5T251 -2Q229 -1 209 0T181 1Q173 1 155 0T116 -2Q96 -4 79 -5T55 -6Q42 -6 42 7Q42 14 48 15T74 19Q94 21 106 30T123 69Q126 88 129 141T133 272Q133 286 133 310T133 365T131 428T128 490T123 541T116 572Q111 583 103 590T87 600T70 605T58 606Q41 606 35 607T28 616Q28 628 43 630Q53 631 85 632T161 634T254 635T346 636T421 637T462 638Q467 638 485 638T524 638T561 636T580 634Q585 631 586 625T591 596L607 496V491Z"  />
<glyph unicode="G" horiz-adv-x="771" d="M36 315Q36 388 64 449T140 556T253 626T391 651Q421 651 443 648T487 639T531 623T584 600Q590 598 595 596T607 594Q615 594 619 598T630 613Q634 620 642 620Q650 620 652 615T656 586Q657 578 659 556T664 510T669 466T671 442Q671 434 667 432T660 430Q651 430 647 436T641 447Q626 476 605 506T554 562T487 604T403 621Q339 621 295 591T222 516T182 419T169 321Q169 253 190 197T245 101T322 40T410 18Q436 18 458 25T496 42T525 65T544 88Q550 98 551 109T553 142Q553 178 552 204T541 247T513 273T459 281Q453 281 445 282T437 293Q437 301 443 303T466 307Q482 308 518 308T595 309T673 310T728 311Q736 311 743 309T750 299Q750 288 741 285T725 281Q701 278 689 273T670 257T663 229T661 185Q661 179 661 163T659 128T657 96T655 79Q652 73 629 58T567 28T481 0T381 -12Q324 -12 263 6T152 64T69 166T36 315Z"  />
<glyph unicode="H" horiz-adv-x="760" d="M452 -4Q438 -4 438 7Q438 13 442 15T460 18Q495 18 507 32T522 66Q524 85 525 116T527 182T528 249T529 303Q518 303 503 303T472 304T440 305T408 306Q363 306 319 304T232 300Q230 280 229 247T228 188Q228 138 228 109T233 63T245 39T270 25Q275 23 288 20T304 15Q308 9 308 6Q308 -1 303 -3T290 -5Q283 -5 266 -5T228 -3Q208 -2 191 -2T165 -1Q158 -1 142 -1T106 -2Q88 -2 72 -3T49 -4Q27 -4 27 6Q27 13 32 15T52 21Q64 24 74 27T92 36T105 51T112 77Q114 95 116 133T121 213T124 294T125 355Q125 371 125 404T123 474T117 541T107 584Q99 599 87 602T47 609Q36 610 34 615T32 622Q32 629 38 630T50 632Q60 632 79 632T123 633T175 634T226 635T269 635T297 636Q299 636 307 635T315 624Q315 617 309 615T282 610Q264 607 254 602T240 589T234 567T233 534Q232 495 232 466T231 415T231 374T232 339Q246 338 259 338T288 337T327 336T381 336Q415 336 438 336T478 337T507 338T529 339Q531 372 532 405T533 474Q533 520 528 547T513 587T488 605T452 611Q447 612 440 614T432 624Q432 632 439 633T452 635Q464 635 492 635T553 634Q585 633 613 633T653 632Q658 632 671 632T699 632T724 632T736 632Q741 631 742 628T744 623Q744 615 738 613T727 611Q690 609 669 596T645 539Q643 517 642 485T640 415T637 336T636 257T635 184T634 126Q634 104 636 86T646 55T669 32T712 20Q721 18 727 17T734 7Q734 2 730 -1T711 -5Q704 -5 686 -5T646 -3Q626 -2 608 -2T581 -1Q568 -1 551 -1T517 -2T485 -3T461 -4H452Z"  />
<glyph unicode="I" horiz-adv-x="365" d="M68 -4Q50 -4 50 8Q50 15 55 16T84 21Q96 22 103 27T115 39T122 51T125 60Q127 72 128 96T129 148T130 202T130 243Q130 260 130 287T130 347T129 414T127 480T123 534T117 570Q109 595 89 602T53 612Q48 613 46 616T43 624Q43 632 48 633T60 635Q83 634 113 634T182 633Q195 633 211 633T245 634T279 634T309 635Q315 635 323 634T331 624Q331 614 323 613T308 610Q290 609 278 603T259 588T248 572T244 559Q241 545 239 517T236 455T235 391T235 343Q235 330 235 307T235 256T237 199T239 142T243 95T248 65Q255 45 269 35T308 20Q321 18 324 16T328 8Q328 -2 319 -3T307 -5Q302 -5 298 -5T291 -4Q279 -3 265 -2T236 -1T211 0T193 0Q173 0 158 0T129 0T103 -2T74 -4H68Z"  />
<glyph unicode="J" horiz-adv-x="396" d="M285 341Q285 259 284 209T277 128T257 77T220 36Q166 -13 96 -13Q75 -13 56 -8T21 8T-3 34T-12 70Q-12 96 4 112T47 129Q61 129 70 125T84 113T92 99T95 88Q95 76 90 68Q82 55 81 51T79 42Q79 40 80 36T84 28T93 21T110 17Q136 17 150 33T170 75T178 131T179 190V453Q179 483 178 510T172 558T155 594T122 611Q102 614 97 616T92 626Q92 634 99 635T124 637Q149 635 166 635T195 633T216 632T235 632Q240 632 252 632T279 634Q293 634 305 634T323 635Q353 635 364 634T376 621Q376 610 363 610Q335 610 320 603T297 579T287 532T285 455V341Z"  />
<glyph unicode="K" horiz-adv-x="698" d="M289 640Q293 640 299 638T305 628Q305 620 300 619T272 616Q241 613 234 595T226 557Q226 537 226 506T227 442T228 377T230 325Q258 350 280 370T325 413T371 462T428 526Q437 537 449 553T461 580Q461 590 456 596T442 607T426 612T411 615Q399 617 395 618T391 627Q391 635 397 637T405 639Q409 639 421 639T447 640T473 640T491 640Q500 640 523 640T571 640T617 640T643 639Q652 637 652 628Q652 620 648 619T629 615Q597 611 570 598T512 558T439 488T338 379Q388 379 422 368T479 333T517 271T544 178Q555 125 569 95T598 50T628 29T657 21Q664 19 669 17T674 8Q674 0 668 -1T649 -3Q644 -3 633 -3T607 -1Q594 -1 583 -1T567 0Q565 0 555 0T531 -1T507 -2T491 -3Q479 10 473 21T461 51T449 103T433 195Q430 210 424 235T407 284T377 325T331 342Q300 342 276 325T230 289Q229 278 228 270T227 248T226 215T226 161Q226 117 227 92T235 52T258 32T302 20Q313 18 315 14T318 9Q318 -4 304 -4Q294 -4 268 -4T212 -2L135 0Q130 0 119 -1T96 -2T73 -4T57 -5Q46 -5 43 0T39 8Q39 14 45 15T60 19Q70 20 87 29T111 57Q113 66 115 86T120 134T123 191T126 249T127 300T128 337Q128 340 128 356T127 397T125 450T122 505T117 553T109 584Q101 600 87 604T53 612Q35 614 35 624Q35 634 46 635T71 637L289 640Z"  />
<glyph unicode="L" horiz-adv-x="635" d="M587 -6Q576 -6 556 -6T509 -5T454 -3T399 -2T353 -1T323 0Q293 0 250 -1T159 -4Q154 -4 145 -4T126 -5T108 -6T95 -7Q72 -7 58 -7T37 -6T28 -3T26 4Q26 12 32 13T50 16Q94 19 111 41T134 107Q135 113 136 139T137 201T138 280T138 359T139 426T139 466Q139 513 131 542T110 587T79 609T43 618Q36 619 34 623T31 630Q31 638 38 639T50 641Q61 641 86 640T138 639Q166 638 189 638T222 638Q229 638 248 638T289 638T326 638T346 638Q350 638 353 636T357 628Q357 625 356 623T351 618T336 614T309 608Q271 600 260 578T247 519Q246 499 246 482T245 435T244 358T244 228Q244 162 245 122T255 60T283 31T337 24Q366 24 397 26T460 44T525 92T592 185Q600 199 602 202T611 206Q616 206 618 202T620 193Q620 190 618 177T614 147T609 115T606 94Q600 50 596 30T587 -6Z"  />
<glyph unicode="M" horiz-adv-x="938" d="M907 637Q911 637 917 636T924 626Q924 618 916 616T881 610Q852 605 841 587T825 540Q824 533 823 514T819 467T816 408T813 345T810 284T809 234Q809 168 810 129T817 68T834 38T865 25L894 21Q900 17 900 12Q900 11 898 6T884 0Q863 0 833 1T781 3Q756 3 732 3T687 2T653 1T633 0H623Q618 0 612 2T606 13Q606 19 610 20T626 23Q652 25 666 35T686 62T694 97T696 136Q696 144 697 177T700 255T704 350T708 444T711 516T712 546Q707 547 703 540T695 524Q694 522 679 491T639 410T587 303T533 189T487 89T460 23Q455 5 446 5Q441 5 439 8T431 22Q406 80 372 149T303 288T235 420T180 525H174Q173 484 172 434T170 331T169 227T168 134Q168 117 169 99T178 65T199 38T240 23Q264 20 269 19T274 10Q274 8 272 4T261 0H172Q164 0 145 0T105 -2Q84 -3 66 -3T39 -4Q28 -4 26 -1T23 5Q23 11 29 13T65 22Q84 26 97 35T118 60T129 102T133 162Q133 175 133 200T135 258T136 325T137 391T138 447T139 483Q139 507 137 529T125 569T100 599T57 616Q43 618 38 620T33 631Q33 639 38 640T62 641Q71 641 93 641T142 639L244 637Q265 593 288 546T335 451T382 359T424 278T457 215T478 176Q541 288 595 403T702 637H907Z"  />
<glyph unicode="N" horiz-adv-x="760" d="M198 633Q229 596 252 569T296 518T335 473T376 426T426 369T492 294Q511 272 525 257T550 228T573 202T598 172Q598 196 598 230T599 299T600 367T601 420Q601 462 600 495T589 551T560 587T503 606Q483 608 479 610T474 617Q474 628 483 629T496 631Q507 631 533 631T588 632T643 633T679 634Q701 634 714 634T734 633T743 629T745 622Q745 614 739 613T729 611Q693 608 674 595T646 561T636 518T634 472Q634 402 634 345T634 234T632 129T629 19Q629 5 626 1T618 -4Q615 -4 612 -3T597 10Q531 85 473 150T365 273T271 382T187 481L185 479Q185 458 185 427T186 358T188 282T192 206T197 139T204 91Q211 63 232 46T296 25Q304 24 310 22T317 12Q317 3 309 2T293 0Q286 0 266 0T223 2T181 3T157 4Q152 4 139 4T111 2T83 1T64 0Q60 0 51 1T41 12Q41 20 50 22T69 24Q97 25 114 34T141 59T153 97T156 145Q156 160 156 188T155 251T153 325T151 396T149 455T145 491Q141 514 130 534T104 570T76 595T52 607Q32 611 28 613T23 622Q23 630 29 631T65 633H198Z"  />
<glyph unicode="O" horiz-adv-x="740" d="M41 311Q41 378 67 438T138 545T245 619T378 647Q450 647 509 622T610 553T676 452T699 331Q699 267 675 205T606 95T499 17T359 -13Q286 -13 227 13T127 83T64 186T41 311ZM566 317Q566 388 551 444T508 538T446 597T370 617Q329 617 294 597T232 539T190 444T174 317Q174 246 189 191T230 97T293 38T370 17Q410 17 446 37T508 95T550 189T566 317Z"  />
<glyph unicode="P" horiz-adv-x="625" d="M57 -1Q54 -1 49 0T43 10Q43 17 48 19T63 24Q83 29 95 39T112 64Q115 71 117 91T120 138T122 195T123 253T124 304T124 338Q124 414 124 459T123 530T120 565T114 584Q106 601 92 606T56 615Q51 616 47 618T42 628Q42 636 48 637T60 639L270 640Q325 640 364 639T431 633T478 621T516 602Q544 585 562 551T580 474Q580 430 564 400T521 351T463 321T401 306T347 300T310 299Q300 299 281 299T230 301Q228 266 227 244T225 211Q225 203 225 182T227 138T229 95T232 68Q236 55 249 43T301 22Q311 20 313 17T315 10Q315 2 307 1T284 0L57 -1ZM230 327Q236 327 253 326T285 325Q306 325 336 330T394 351T441 400T461 485Q461 506 456 528T435 570T394 601T324 613Q297 613 273 611T230 605Q232 576 232 562T232 535Q232 524 232 495T231 433T230 369T230 327Z"  />
<glyph unicode="Q" horiz-adv-x="740" d="M402 -7Q400 -7 393 -7T378 -9Q370 -10 362 -10T345 -11Q292 -11 238 9T140 68T68 164T40 297Q40 365 66 428T137 539T243 616T376 645Q444 645 502 620T603 551T670 451T694 331Q694 311 690 278T670 206T623 123T537 38Q519 24 503 14T462 -9T395 -41T285 -92V-94Q288 -94 297 -93T313 -92Q329 -92 341 -94T368 -103T408 -123T471 -160Q487 -169 512 -180T565 -192Q600 -192 620 -176T659 -138Q663 -133 668 -128T680 -123Q684 -123 688 -127T693 -136Q693 -145 681 -160T658 -188Q617 -234 579 -249T501 -265Q472 -265 447 -259T399 -242T356 -219T318 -193Q292 -174 277 -164T252 -148T235 -142T217 -140Q194 -140 182 -149T163 -172T156 -201T155 -227Q155 -232 154 -239T149 -252T137 -262T116 -267Q94 -267 85 -253T76 -229Q76 -222 80 -209T99 -179T139 -139T209 -93Q220 -87 248 -75T307 -49T365 -24T404 -9L402 -7ZM173 323Q173 277 183 224T216 125T275 49T365 19Q404 19 439 37T502 92T545 183T561 307Q561 365 549 420T511 518T450 588T367 615Q313 615 276 586T216 514T183 419T173 323Z"  />
<glyph unicode="R" horiz-adv-x="698" d="M120 2Q115 2 104 2T81 1T58 0T43 -1Q41 -1 33 0T25 11Q25 18 30 19T58 22Q64 23 74 25T93 34T111 56T121 98Q122 109 122 121T123 156T123 215T123 308Q123 318 123 339T123 387T121 443T119 499T115 544T111 570Q100 595 84 602T43 615Q30 617 27 618T24 626Q24 635 31 637T43 639L94 638Q110 638 148 639T228 641T308 644T359 646Q414 646 455 634T523 601T564 550T578 486Q578 440 557 411T506 364T448 338T404 327V325Q440 311 463 299T501 267T526 220T546 147Q555 106 568 83T595 47T625 31T655 24Q672 21 675 20T679 11Q679 3 671 2T661 0Q619 0 595 0T552 1T517 3T474 7Q466 17 456 35T439 95Q431 143 425 175T412 229T396 265T374 290Q363 299 350 304T325 312T302 315T287 316Q271 316 254 315T231 312Q231 241 231 198T231 129T233 91T238 69Q246 40 268 33T318 22Q320 21 325 20T331 11Q331 9 329 5T319 0Q286 0 265 0T224 0T182 0T124 2H120ZM231 342Q262 343 301 346T374 364T431 407T454 487Q454 508 448 531T426 574T385 607T321 620Q301 620 283 618T234 611Q232 567 231 524T230 445T230 381T231 342Z"  />
<glyph unicode="S" horiz-adv-x="521" d="M446 488L449 472Q449 469 447 465T438 460Q430 460 427 464T416 486Q407 504 391 527T353 570T302 603T239 617Q210 617 189 608T154 584T133 550T126 512Q126 487 136 469T166 438T213 414T276 393Q307 384 344 370T413 333T468 275T490 189Q490 156 477 121T435 55T363 6T262 -13Q232 -13 208 -8T163 5T126 21T98 38Q92 29 89 23T79 3Q75 -7 72 -9T65 -11Q56 -11 54 -3T50 24L37 198Q37 203 40 208T48 213Q55 213 57 209T63 196Q65 190 70 179T84 152T102 120T124 87Q145 58 181 36T266 13Q295 13 320 22T363 49T391 88T402 137Q402 170 389 192T351 231T290 262T208 292Q187 299 158 311T102 344T57 395T38 470Q38 503 52 534T92 589T157 628T243 643Q298 643 330 630T385 602Q391 608 394 612T402 625Q407 637 409 640T417 643Q425 643 426 638T429 622L446 488Z"  />
<glyph unicode="T" horiz-adv-x="740" d="M718 490Q718 483 715 478T707 473Q702 473 699 476T685 494Q664 523 649 544T609 578T543 597T430 603Q429 584 428 562T425 513T424 452T423 376Q423 361 423 335T423 279T425 215T429 153T434 101T442 67Q448 53 458 45T480 32T508 26T540 23Q544 23 549 22T554 13Q554 3 548 1T512 -1Q495 -1 475 -1T433 0T391 0T353 1Q348 1 335 1T306 0T279 0T263 -1Q243 -1 231 -1T213 1T205 4T203 12Q203 20 209 22T221 25Q234 25 248 28T276 38T298 57T312 89Q316 109 317 149T319 238T318 343T315 448T312 540T309 603Q254 603 215 599T147 584T97 551T58 495Q48 476 45 472T37 468Q34 468 29 470T24 482Q24 487 28 526T41 638Q50 638 67 638T105 638T145 637T182 635Q192 635 211 634T251 633T291 632T322 631Q365 631 431 632T565 635Q600 636 635 637T704 638Q705 629 706 622T708 607T710 586T713 554L718 490Z"  />
<glyph unicode="U" horiz-adv-x="802" d="M320 636Q339 636 349 635T360 624Q360 616 354 615T338 612Q308 609 292 592T268 539T259 448T258 313Q258 274 259 240T264 177T278 125T306 85Q321 70 339 61T375 46T412 38T447 35Q466 35 493 39T547 56T595 97T624 169Q634 230 635 291T637 415Q637 461 635 496T625 556T600 595T554 611Q540 613 535 614T529 624Q529 633 536 634T548 636H746Q752 636 760 634T769 624Q769 616 762 614T749 612Q723 610 709 595T687 558T678 511T676 463Q674 363 673 304T669 209T663 156T652 120Q642 95 625 72T579 30T506 0T399 -12Q351 -12 303 -2T215 35Q198 47 186 61T166 94T153 141T149 208L150 383Q150 445 148 483T143 543T134 575T122 592Q119 596 116 598T108 602T94 606T69 611Q60 613 56 615T52 624Q52 633 59 634T70 636Q97 635 122 635T164 634L320 636Z"  />
<glyph unicode="V" horiz-adv-x="698" d="M336 -13Q335 -11 323 22T291 107T248 220T201 342T157 452T124 529Q113 553 104 567T86 590T66 602T38 608Q33 609 26 610T18 620Q18 629 25 630T49 632H269Q273 632 280 632T296 632T311 632T321 630Q329 628 329 620Q329 612 324 611T303 608Q296 607 287 606T269 599T255 583T249 553Q249 544 250 534T255 508T267 465T290 397Q297 378 321 312T387 140Q396 163 409 198T437 273T466 355T492 430T512 487T521 514Q525 531 525 539T526 556Q526 571 520 580T506 594T490 602T476 606Q462 608 456 610T450 619Q450 629 458 630T481 632H651Q667 632 674 631T682 620Q682 613 676 612T663 609Q637 606 618 590T583 547T554 485T525 409Q521 399 514 378T497 331T478 277T458 223T442 177T431 148L369 -13H336Z"  />
<glyph unicode="W" horiz-adv-x="1063" d="M673 630Q686 630 692 629T699 619Q699 611 691 609T664 603Q648 601 634 589T620 554Q620 531 628 501T656 424Q669 391 681 361T707 300T734 235T767 160Q776 181 784 203T803 255T828 324T861 418Q871 446 877 466T888 501T895 528T897 553Q897 554 896 561T890 578T875 595T845 605Q838 606 830 607T821 617Q821 627 830 628T855 630H1017Q1034 630 1041 629T1048 618Q1048 613 1044 611T1023 605Q998 599 980 583T943 534T905 445T855 304Q823 212 793 132T740 -13H719Q712 4 698 39T666 118T629 210T592 301T560 378T540 428Q536 416 528 393T510 342T489 282T468 222T451 172T439 139Q426 103 418 80T404 40T396 11T388 -13H367Q358 7 341 47T302 137T255 242T207 350T163 445T129 515Q113 546 99 563T73 590T51 603T31 608Q23 610 21 612T19 618Q19 627 24 628T47 630H282Q306 629 311 628T317 618Q317 611 312 610T284 606Q270 604 256 593T241 561Q241 552 243 543T251 517T270 470T304 390L395 178Q397 175 399 171T408 153Q413 166 422 191T442 249T465 316T488 382T507 439T520 475Q506 511 497 535T478 573T457 595T429 604Q418 606 410 608T401 618Q401 627 409 628T435 630H673Z"  />
<glyph unicode="X" horiz-adv-x="740" d="M652 632Q669 632 676 631T683 620Q683 612 677 611T664 609Q651 608 622 600T564 563Q549 549 530 526T489 476T445 418T404 360Q410 352 423 332T450 289T478 247T496 220Q539 160 568 123T621 64T663 33T705 19Q719 17 723 15T728 6Q728 -2 717 -3T697 -5Q689 -5 670 -4T628 -2T586 1T559 3Q551 3 530 2T485 -1T442 -4T417 -5Q395 -5 395 7Q395 14 401 15T411 16Q412 16 421 17T441 21T461 32T470 53Q470 60 469 66T461 82T443 112T409 163Q389 193 377 211T358 240T346 257T336 270Q324 254 302 225T259 165T221 106T205 65Q205 48 222 38T284 19Q290 18 298 16T307 7Q307 -1 298 -3T268 -5Q261 -5 243 -4T206 -2Q186 0 171 0T155 1Q150 1 133 0T97 -2T62 -5T42 -6Q37 -6 30 -4T23 6Q23 15 31 17T45 19Q76 20 101 33T147 67Q159 80 172 96T204 138T249 202T314 297Q306 309 288 336T249 395T210 453T184 490Q160 523 142 544T106 578T73 597T36 607Q23 609 19 610T14 618Q14 629 23 630T52 632H309Q324 632 332 631T340 620Q340 613 334 612T311 608Q308 608 300 607T284 602T270 592T264 576Q264 564 278 539T311 485T351 429T383 386L452 478Q466 497 474 510T487 532T493 548T494 561Q494 583 480 593T452 606Q429 610 423 612T417 620Q417 629 423 630T445 632H652Z"  />
<glyph unicode="Y" horiz-adv-x="740" d="M685 630Q702 630 712 629T722 618Q722 612 718 611T693 606Q675 603 660 598T628 577T589 535T535 464Q527 453 513 433T483 390T456 349T440 322Q437 315 436 295T434 252T433 206T433 172Q433 124 435 95T444 49T467 27T508 18Q519 17 524 16T529 6Q529 -2 518 -3T504 -5Q502 -5 482 -5T437 -2Q412 0 391 0T366 0Q359 0 342 -1T306 -3Q287 -4 273 -5T256 -7Q249 -7 243 -5T236 5Q236 12 240 13T248 14Q276 14 292 25T316 54T326 94T328 140Q328 147 327 166T325 207T321 247T317 271Q306 292 289 318T260 365Q243 394 221 430T175 500T128 560T85 596Q82 597 80 598T74 601T62 605T42 610Q38 611 37 614T35 619Q35 627 41 628T63 630H294Q319 630 324 629T330 619Q330 613 326 611T305 606Q276 601 267 591T257 569Q257 563 258 558T266 542T283 516T313 471Q317 465 326 452T346 423T366 395T379 376L406 338Q419 354 435 377T469 424T500 469T524 504Q534 520 542 536T551 566Q551 577 546 584T533 595T515 601T496 606Q479 610 476 611T473 618Q473 627 480 628T504 630H685Z"  />
<glyph unicode="Z" horiz-adv-x="646" d="M562 0H56Q54 0 50 0T45 6Q45 12 59 37T98 101T155 187T221 285T289 386T352 479T403 554T434 602Q419 604 390 605T316 606Q264 606 232 602T175 585T129 548T80 485Q78 481 73 475T62 469Q59 469 56 472T53 480Q53 485 54 490T57 498L104 645Q121 644 140 643T186 639Q237 636 315 636Q327 636 360 636T431 637T506 639T560 643Q563 644 571 644Q581 644 581 638Q581 630 546 578T441 423Q429 405 402 365T342 277T279 182T228 102Q214 80 205 64T186 32Q232 30 264 30T313 30Q362 30 398 35T465 53T522 91T582 156Q593 170 596 173T605 176Q610 176 612 173T615 166Q615 164 611 151L562 0Z"  />
<glyph unicode="[" horiz-adv-x="521" d="M148 577Q148 557 148 525T149 453T150 370T151 284T152 204T153 137Q153 46 153 -5T153 -88T153 -140T154 -189Q169 -183 193 -174T246 -156T307 -141T370 -135Q411 -135 436 -145T476 -169T496 -199T501 -224Q501 -241 493 -254T477 -268Q472 -268 469 -264T466 -258Q466 -256 467 -250T469 -241Q469 -231 463 -226T449 -217T432 -214T416 -213Q383 -213 345 -216T272 -222T208 -230T161 -236Q145 -238 141 -239T133 -240Q129 -240 125 -239T118 -237Q116 -189 115 -146T112 -59T111 33T111 141T110 274T110 442Q110 529 113 566T118 609Q121 622 132 622Q135 622 149 621T184 619T229 616T274 613T312 610T336 609Q341 609 356 609T389 611T422 613T442 615Q448 616 457 620T466 637Q466 639 464 647T462 657Q462 658 463 662T472 667Q480 667 485 661T492 648T495 633T496 625Q496 617 491 602T472 571T433 543T368 531Q345 531 324 533T277 540T221 554T148 577Z"  />
<glyph unicode="\" horiz-adv-x="510" d="M455 -18H401L55 665H109L455 -18Z"  />
<glyph unicode="]" horiz-adv-x="521" d="M373 577Q331 563 300 555T244 541T197 533T153 531Q113 531 88 543T49 570T30 601T25 625Q25 626 25 633T28 647T36 661T49 667Q57 667 58 663T59 657Q59 655 57 647T55 637Q55 625 64 621T79 615Q84 614 99 613T131 611T164 610T185 609Q191 609 208 610T246 612T292 615T336 618T371 621T389 622Q400 622 403 609Q404 604 407 567T411 442Q411 348 411 275T411 142T410 34T409 -59T407 -146T403 -237Q401 -238 397 -239T388 -240Q385 -240 381 -239T360 -236Q343 -234 314 -230T249 -223T176 -216T105 -213Q99 -213 90 -213T72 -217T58 -225T52 -241Q52 -243 53 -249T55 -258Q55 -260 52 -264T44 -268Q36 -268 28 -255T20 -224Q20 -214 25 -199T44 -170T84 -145T151 -135Q182 -135 214 -141T275 -155T328 -173T367 -189Q367 -161 367 -141T368 -89T368 -6T368 137Q368 165 368 203T369 284T370 369T371 452T372 524T373 577Z"  />
<glyph unicode="^" horiz-adv-x="469" d="M451 280H397L235 554L72 280H18L229 630H243L451 280Z"  />
<glyph unicode="_" horiz-adv-x="500" d="M506 -75V-125H-6V-75H506Z"  />
<glyph unicode="`" horiz-adv-x="333" d="M95 542Q74 558 63 569T45 587T38 600T37 610Q37 627 50 637T76 648Q87 648 97 642T116 627T132 608T145 591L210 497Q218 486 220 483T223 474Q223 470 219 465T208 459Q203 459 200 461T185 472L95 542H95Z"  />
<glyph unicode="a" horiz-adv-x="448" d="M423 26Q436 26 436 16Q436 10 429 6T409 -2T381 -6T351 -8Q324 -8 309 -6T286 3T276 21T273 48Q267 41 257 31T231 12T195 -5T149 -12Q98 -12 66 17T33 91Q33 115 42 134T65 167T98 191T135 208Q173 221 195 229T231 243T250 255T263 270Q270 281 271 293T273 313Q273 353 254 373T203 394Q186 394 176 389T159 376T150 358T145 337Q143 329 141 320T133 302T119 289T96 283Q78 283 65 297T52 326Q52 363 93 390T210 418Q258 418 287 408T333 381T356 341T362 295Q362 287 362 267T361 225T360 184T359 157Q359 115 362 89T370 49T383 29T401 24L423 26ZM270 241Q261 233 254 228T237 216T211 200T168 176Q163 173 157 167T143 152T132 130T127 104Q127 75 143 51T184 27Q199 27 214 34T240 52Q263 72 267 100T272 171Q272 197 272 212T270 241Z"  />
<glyph unicode="b" horiz-adv-x="510" d="M159 659Q160 641 160 610T160 539T159 457T157 374Q180 391 205 404T272 418Q317 418 353 401T415 356T455 290T469 212Q469 170 455 130T414 59T349 8T263 -11Q242 -11 220 -6T176 8T138 25T108 42Q100 31 98 27T93 17Q91 12 88 6T80 0Q69 0 69 5T68 28L75 549Q76 578 71 601T55 631Q46 636 43 637T26 642Q16 645 16 653Q16 661 23 663T36 665Q40 665 55 665T89 664T128 662T159 659ZM153 128Q153 98 162 77T185 42T216 23T252 17Q305 17 336 66T368 194Q368 222 362 255T343 318T307 368T252 388Q226 388 205 375T173 341Q165 326 161 303T155 251T153 192T153 128Z"  />
<glyph unicode="c" horiz-adv-x="427" d="M240 419Q260 419 286 414T335 397T375 367T391 324Q391 309 381 296T351 283Q330 283 321 298T303 338Q293 367 277 380T234 393Q210 393 194 383T166 358T149 323T140 286T136 252T135 230Q135 180 146 141T176 76T217 35T263 21Q272 21 287 25T318 39T349 67T371 114Q374 123 376 129T387 135Q393 135 395 131T398 122Q398 104 389 81T359 38T307 3T232 -11Q192 -11 156 3T93 44T50 109T34 194Q34 237 48 278T90 350T155 400T240 419Z"  />
<glyph unicode="d" horiz-adv-x="510" d="M431 123Q431 96 431 79T435 50T450 31T480 20Q485 18 490 17T495 8Q495 0 487 -1T464 -3H339Q340 9 340 17T341 33T341 50T342 72L340 74Q333 62 324 48T300 21T266 0T217 -9Q181 -9 148 6T90 48T49 111T33 192Q33 231 47 271T87 345T149 398T231 419Q258 419 277 412T310 395T332 374T344 356H346Q346 368 346 406T346 487T344 566T341 611Q336 628 322 634T292 644Q282 646 282 654Q282 662 288 663T309 665H434L431 123ZM134 205Q134 152 145 118T172 63T207 35T242 27Q256 27 274 35T308 65Q324 88 334 126T344 228Q344 241 343 267T332 321Q322 349 301 371T242 393Q206 393 185 374T153 326T138 265T134 205Z"  />
<glyph unicode="e" horiz-adv-x="438" d="M128 225Q127 204 129 170T148 98Q158 77 172 64T201 43T232 32T260 29Q298 29 325 45T378 84Q381 86 384 88T391 90Q396 90 399 87T402 78Q402 74 393 60T364 30T313 2T236 -11Q184 -11 146 7T82 54T44 121T31 196Q31 241 47 281T92 352T157 401T236 419Q273 419 305 405T361 366T397 312T411 249Q411 238 407 234T388 229Q364 229 332 229T266 228T196 227T128 225ZM131 255Q145 254 166 254T205 253Q239 253 261 254T295 259T313 274T318 303Q318 320 312 336T296 365T270 385T235 393Q203 393 183 376T152 336T137 290T131 255Z"  />
<glyph unicode="f" horiz-adv-x="302" d="M42 -7Q35 -7 31 -4T27 5Q27 12 33 14T63 22Q82 27 87 41T95 81Q96 98 96 139T97 225T98 311T99 366Q96 366 89 366T73 367T57 367T46 368Q29 370 24 373T19 383Q19 384 20 388T23 398T28 409T34 415Q35 415 44 416T64 418T84 419T96 420Q97 439 98 460T102 502T110 542T126 579Q142 607 163 624T205 650T247 662T285 665Q304 665 326 662T366 650T397 627T409 591Q409 571 395 562T367 553Q345 553 333 566T311 594Q296 618 285 628T254 639Q230 639 215 624T192 581T182 513T182 420Q204 420 231 420T271 416Q273 416 276 415T280 408Q280 406 279 401T275 389T269 377T261 370Q256 369 246 369T223 369T200 369T182 370Q182 359 182 334T182 276T182 209T182 144T184 92T186 64Q191 41 206 33T248 18Q256 16 259 14T263 5Q263 -1 258 -3T248 -6Q246 -6 242 -6T235 -5Q208 -2 180 -2T140 -1Q118 -1 91 -3T48 -7H42Z"  />
<glyph unicode="g" horiz-adv-x="552" d="M379 372Q411 401 432 413T478 425Q495 425 506 419T525 405T536 387T540 369Q540 354 528 342T498 329Q492 329 480 333T458 356Q450 370 447 375T437 380Q426 380 414 370T393 350Q401 337 408 318T416 269Q416 258 412 234T390 184T339 137T247 112Q235 111 217 109T182 102T152 87T139 61Q139 50 144 43T163 31T204 24T273 21Q318 20 358 17T428 3T476 -31T494 -96Q494 -126 481 -156T438 -211T359 -251T237 -267Q215 -267 181 -265T114 -254T59 -227T35 -174Q35 -149 47 -130T79 -97T123 -71T171 -51V-49Q153 -46 135 -42T102 -30T78 -9T68 25Q68 48 79 64T107 92T141 110T171 121V123Q132 136 111 155T80 194T69 230T67 253Q67 286 81 316T119 369T177 405T250 419Q279 419 300 414T336 401T360 385T375 372H379ZM161 266Q161 207 186 172T250 136Q256 136 268 139T292 153T313 188T322 253Q322 322 300 358T241 394Q211 394 195 375T171 332T162 288T161 266ZM278 -54Q233 -54 202 -64T152 -90T123 -125T114 -162Q114 -188 128 -203T162 -227T205 -238T244 -241Q284 -241 317 -232T375 -208T412 -173T425 -129Q425 -107 414 -93T382 -70T335 -58T278 -54Z"  />
<glyph unicode="h" horiz-adv-x="531" d="M442 84Q442 77 442 67T446 48T457 31T478 22Q488 20 494 19T500 9Q500 1 494 0T471 -2H338Q321 -2 313 -1T304 10Q304 16 308 18T330 23Q339 24 345 28T354 48T360 98T362 196Q362 214 361 244T352 305T328 357T281 379Q247 379 223 358T190 315Q185 299 182 272T178 215T176 155T176 103Q176 78 178 63T183 38T193 24T209 17Q223 15 227 13T231 4Q231 -6 217 -6Q213 -6 200 -6T170 -4Q154 -3 140 -3T119 -2Q114 -2 102 -3T76 -4T52 -6T40 -7Q29 -7 29 4Q29 11 32 13T52 19Q57 20 67 25T82 51Q85 64 87 90T90 149T93 220T94 291T95 355T95 400Q95 455 94 491T90 550T83 586T75 608Q66 625 57 629T33 639Q30 641 26 643T22 650Q22 658 30 659T45 661Q75 661 96 661T132 662T158 663T178 665Q178 652 178 627T178 571T178 505T178 439T178 384T178 348Q207 378 236 397T311 417Q360 417 387 398T427 353T442 301T445 259L442 84Z"  />
<glyph unicode="i" horiz-adv-x="271" d="M115 662Q138 662 154 646T171 607Q171 584 155 568T115 552Q92 552 77 568T61 607Q61 630 76 646T115 662ZM177 299Q177 287 177 257T177 194T177 131T177 90Q178 70 179 57T185 37T200 25T228 20Q240 19 246 18T252 8Q252 1 247 -1T237 -3L207 -1Q195 -1 185 -1T170 0Q165 0 147 0T107 -2Q86 -3 67 -4T41 -5Q38 -5 30 -4T21 7Q21 16 29 17T42 20Q48 20 55 21T69 25T82 34T90 52Q91 60 92 77T93 114T94 157T94 197Q94 207 94 233T93 288T89 341T81 370Q76 376 65 379T40 384Q22 387 22 396Q22 404 27 406T46 409L177 417V299Z"  />
<glyph unicode="j" horiz-adv-x="271" d="M182 50Q182 0 180 -34T175 -91T168 -129T158 -158Q145 -191 127 -211T88 -243T47 -257T11 -261Q-15 -261 -33 -254T-63 -236T-80 -212T-86 -186Q-86 -164 -73 -148T-35 -132Q-11 -132 -1 -146T9 -171Q9 -174 7 -180T3 -194T-2 -207T-4 -215Q-4 -225 5 -231T26 -238Q42 -238 54 -231T75 -216Q84 -207 89 -190T96 -153T98 -115T98 -85Q98 -80 98 -67T97 -40T97 -12T96 6V280Q96 319 94 340T87 372T72 384T49 387Q29 388 24 389T18 398Q18 408 26 409T44 412Q52 413 72 413T114 414T155 415T182 416V50ZM115 662Q138 662 154 646T171 607Q171 584 155 568T115 552Q92 552 77 568T61 607Q61 630 76 646T115 662Z"  />
<glyph unicode="k" horiz-adv-x="510" d="M342 0Q337 6 333 11T324 26T317 49T309 85Q302 126 291 150T268 189T245 210T224 219Q217 213 212 209T203 200T193 193T180 183Q180 149 180 121T184 72T197 39T227 23Q241 21 244 20T248 11Q248 3 243 2T221 0H58Q45 0 38 2T30 15Q30 20 35 20T64 27Q75 30 80 32T91 49Q94 58 95 84T96 149T95 235T94 334Q94 435 93 504T81 596Q76 607 63 612T27 623Q19 625 17 629T15 637Q15 642 22 646Q52 649 70 651T104 655T135 659T175 665Q175 615 175 555T176 434T178 316T180 215Q204 234 240 264T304 327Q325 352 325 366Q325 377 316 380T284 386Q279 386 274 388T269 397Q269 405 277 407Q280 408 296 409T331 410T367 411T389 411Q416 411 431 411T453 409T463 405T465 398Q465 390 458 389T443 385Q425 383 407 375T377 357Q371 352 359 340T333 315T307 289T290 273Q316 261 332 246T361 208T382 156T403 83Q408 65 413 55T427 39T446 30T476 24Q493 21 497 20T501 11Q501 3 493 2T476 0H342Z"  />
<glyph unicode="l" horiz-adv-x="271" d="M90 526Q90 552 86 567T72 593T50 608T17 618Q14 619 8 621T1 632Q1 640 7 641T27 644Q42 645 61 646T100 651T139 657T172 665Q172 641 172 589T173 471T173 336T174 207T176 106T180 59Q188 34 205 28T240 19Q244 18 250 16T256 7Q256 -2 248 -3T231 -5Q224 -5 208 -5T174 -3Q156 -2 141 -2T120 -1Q115 -1 104 -2T79 -3T54 -5T38 -6Q37 -6 34 -6T26 -5T18 -2T14 5Q14 13 21 15T36 18Q68 21 81 39T94 110Q94 125 94 161T93 239T92 315T91 365L90 526Z"  />
<glyph unicode="m" horiz-adv-x="792" d="M584 0Q570 0 563 1T555 11Q555 19 561 20T579 23Q594 24 603 29T618 50T626 98T629 183Q629 236 628 266T623 314T616 339T607 355Q598 369 583 379T551 389Q534 389 520 382T493 364T472 342T456 323Q443 268 443 206T443 83Q443 60 447 48T460 30T479 23T502 22Q504 22 511 21T518 12Q518 3 511 2T487 0H320Q303 0 296 1T288 10Q288 18 294 20T318 24Q335 26 343 35T354 62Q355 70 356 86T358 123T359 165T360 205Q360 244 359 276T350 331T330 368T293 381Q285 381 273 379T246 369T218 347T194 308Q182 278 178 230T174 102Q174 88 175 75T180 52T192 34T214 24Q236 21 241 20T246 12Q246 3 239 2T208 0H58Q41 0 34 1T27 11Q27 17 31 18T54 23Q74 26 79 38T86 68Q86 71 87 85T89 121T90 170T91 226Q91 277 91 307T86 353T72 375T44 384Q41 385 33 385T22 387Q15 390 15 397Q15 405 23 407T36 410Q62 414 81 415T116 417T148 418T182 418Q183 414 185 405T188 387Q188 384 188 378T187 366T186 353T185 345Q223 383 253 401T324 419Q348 419 367 413T400 396T426 375T445 354Q453 361 465 372T495 394T536 411T588 419Q635 419 660 402T698 361T712 313T714 275Q714 274 714 255T713 210T713 162T712 130Q712 98 712 78T717 45T729 28T752 22Q763 20 766 19T769 11Q769 3 763 2T739 0H584Z"  />
<glyph unicode="n" horiz-adv-x="521" d="M443 88Q442 50 450 39T473 22Q490 17 494 15T499 7Q499 5 497 0T486 -5Q481 -5 465 -4T430 -2Q412 0 397 0T378 1Q374 1 365 1T344 -2Q333 -3 325 -4T312 -5Q304 -5 301 -1T298 7Q298 15 304 17T314 20Q328 23 339 28T354 48Q357 58 358 85T360 142T361 199T361 239Q361 249 360 272T352 319T330 360T285 378Q265 378 244 367T204 328T174 251T162 129Q162 89 164 68T173 36T188 22T211 18Q216 17 220 15T225 5Q225 -7 214 -7Q211 -7 208 -7T202 -6Q194 -4 183 -3T160 -2T139 -1T126 -1Q121 -1 108 -1T79 -3Q64 -4 51 -5T32 -6Q26 -6 21 -3T15 6Q15 13 21 15T35 19Q59 24 66 33T76 52Q78 64 79 93T82 155T83 219T84 265Q84 326 74 353T36 389Q25 392 22 394T18 403Q18 412 24 413T36 415Q70 415 103 416T157 420Q161 407 163 397T167 377T170 355T171 327H173Q192 357 213 374T255 401T294 413T326 416Q334 416 354 413T395 397T431 357T446 283L443 88Z"  />
<glyph unicode="o" horiz-adv-x="500" d="M27 206Q27 250 44 289T92 357T163 404T251 421Q299 421 338 404T406 358T449 292T465 216Q465 177 450 137T405 65T334 11T242 -10Q196 -10 157 7T89 53T44 121T27 206ZM128 211Q128 172 137 138T161 77T199 36T249 20Q271 20 292 32T331 68T358 124T368 197Q368 227 361 261T338 324T298 372T242 391Q210 391 188 374T153 329T134 271T128 211Z"  />
<glyph unicode="p" horiz-adv-x="510" d="M72 -186Q74 -181 75 -157T78 -98T80 -20T81 65T82 147T82 213Q82 255 82 287T79 340T68 374T42 390Q25 393 21 395T17 403Q17 412 24 413T45 415L171 419Q172 399 172 388T171 356Q178 363 188 372T213 390T246 405T289 411Q318 411 351 398T411 358T457 293T475 204Q475 150 456 110T407 44T341 4T272 -9Q236 -9 212 0T171 18Q169 -5 168 -37T166 -100T167 -155T174 -189Q182 -203 192 -212T219 -224Q230 -225 234 -227T239 -237Q239 -242 236 -244T227 -247Q224 -247 221 -247T214 -246Q209 -246 196 -246T165 -245T129 -244T93 -243Q74 -243 58 -244T27 -245Q22 -245 11 -242T0 -234Q0 -225 6 -223T24 -219Q27 -219 33 -219T45 -215T59 -206T72 -186ZM168 146Q168 105 172 84T194 46Q206 34 224 27T261 20Q274 20 294 26T332 50T364 102T378 193Q378 245 367 279T339 335T302 364T263 373Q234 373 214 358T185 323Q180 311 177 298T172 266T169 218T168 146Z"  />
<glyph unicode="q" horiz-adv-x="531" d="M328 -237L308 -236Q301 -236 292 -235T283 -224Q283 -216 288 -215T310 -211Q320 -210 328 -207T342 -198T351 -179T354 -146Q354 -145 354 -122T353 -68T352 -10T351 29Q332 19 304 9T234 -2Q187 -2 151 16T88 63T49 127T35 198Q35 237 49 276T92 347T159 397T250 417Q280 417 304 411T346 397T376 380T395 366Q396 368 399 374T407 386T414 398T419 406Q421 410 427 410Q437 410 438 401T440 386Q440 368 440 322T440 215T440 90T442 -33T444 -129T448 -177Q455 -200 468 -205T503 -212Q511 -213 516 -214T521 -224Q521 -234 512 -235T485 -237H328ZM143 207Q143 190 146 160T161 99T196 47T259 24Q294 24 313 41T341 81Q350 104 351 126T353 160Q353 178 353 200T352 245T349 288T343 323Q342 328 337 339T323 361T297 382T258 391Q222 391 200 372T165 325T148 265T143 207Z"  />
<glyph unicode="r" horiz-adv-x="406" d="M53 -1Q39 -1 32 0T25 10Q25 18 31 19T56 23Q69 24 76 30T88 55T92 105T93 189Q93 201 93 227T91 282T85 334T75 366Q67 374 56 377T27 382Q21 384 19 387T16 394Q16 404 25 405T40 408Q47 408 65 409T104 411T143 413T168 415Q169 408 171 395T174 366T176 337T177 314H179Q196 346 214 366T250 397T283 413T312 418Q324 418 336 415T359 404T375 384T382 354Q382 322 366 312T337 302Q321 302 314 308T295 334Q292 340 284 350T265 361Q256 361 248 357T232 346T220 332T211 321Q201 306 195 292T184 259T178 217T176 158Q176 110 178 84T185 44T200 28T225 22Q229 21 234 20T239 10Q239 2 231 1T212 -1H53Z"  />
<glyph unicode="s" horiz-adv-x="385" d="M322 310Q323 292 322 285T312 277Q306 277 303 281T292 303Q284 319 275 335T254 363T226 383T185 391Q160 391 138 380T116 341Q116 315 142 296T225 251Q286 225 314 199T343 130Q343 105 333 80T303 35T256 3T194 -10Q180 -10 171 -9T151 -5T127 4T93 20Q88 23 82 23Q74 23 70 17T63 4Q62 -1 55 -1Q47 -1 45 5T43 16Q43 22 42 35T41 64T40 95T39 122Q39 144 42 147T51 151Q56 151 59 147T70 125Q79 106 89 87T114 52T148 26T194 16Q231 16 251 37T271 80Q271 99 263 113T241 137T209 156T170 173Q48 222 48 303Q48 326 58 346T86 383T128 408T182 417Q208 417 227 412T267 397Q270 395 274 394T284 392Q287 392 289 393T295 403Q296 405 298 408T305 411Q313 411 315 402T318 381L322 310Z"  />
<glyph unicode="t" horiz-adv-x="344" d="M23 379Q15 381 14 384T12 389Q12 396 18 399T28 404Q65 416 87 431T124 465T145 503T160 546Q162 550 164 555T173 561Q181 561 182 554T183 543Q183 536 183 519T183 482T183 445T184 420Q195 420 212 420T246 421T280 422T304 422Q308 422 314 421T320 412Q320 403 317 392T301 380Q294 380 280 379T249 377T215 374T184 371Q182 346 181 312T180 244T179 185T178 152Q178 138 179 118T186 80T205 48T243 35Q251 35 257 36T271 39T287 46T310 57Q316 61 322 61Q325 61 327 58T330 53Q330 48 321 38T294 16T255 -3T206 -11Q168 -11 146 2T111 36T96 80T92 126Q92 147 93 180T95 249T97 318T99 375L23 379Z"  />
<glyph unicode="u" horiz-adv-x="510" d="M428 409Q430 389 431 368T433 326Q433 322 433 305T432 265T431 215T430 165T429 127T428 110Q428 81 430 65T437 40T447 28T461 24Q473 22 477 20T481 10Q481 2 476 1T458 -1H378Q361 -1 353 1T345 15L346 40Q347 47 347 55T346 82Q337 71 323 56T291 26T248 3T194 -7Q155 -7 133 7T99 40T85 80T81 111Q80 121 80 143T80 192T80 248T80 302T80 344T78 366Q76 376 69 378T42 386Q40 387 37 389T33 398Q33 406 39 407T63 409H164V158Q164 143 165 122T173 82T194 50T234 36Q248 36 263 42T291 58T316 83T334 114Q340 128 343 157T347 219T349 283T350 332Q350 363 341 371T314 384Q302 386 298 388T293 397Q293 401 298 403T309 407T323 409T337 409H428Z"  />
<glyph unicode="v" horiz-adv-x="490" d="M465 410Q469 410 476 409T483 398Q483 389 476 388T464 385Q446 384 432 374T407 345T385 302T364 250Q352 218 342 192T322 143T302 96T281 45Q266 10 261 0T247 -11Q242 -11 237 -6T226 10T212 41T190 88L77 333Q70 347 56 363T25 385Q20 386 15 388T10 397Q10 407 17 408T42 410H169Q190 410 200 409T210 397Q210 391 206 389T190 384Q182 382 174 378T166 361Q166 353 177 323T206 253T243 172T277 100Q288 123 304 162T336 242T362 315T373 360Q373 371 368 377T345 387Q340 388 336 390T331 398Q331 407 338 408T364 410H465Z"  />
<glyph unicode="w" horiz-adv-x="708" d="M438 410Q458 410 464 409T471 397Q471 389 467 388T457 384Q447 382 437 376T427 354Q427 348 433 331T448 291T468 241T490 190T510 145T523 116Q527 127 534 147T550 192T568 243T584 293T596 334T601 358Q601 366 597 374T579 385Q566 387 560 388T553 397Q553 407 561 408T587 410H664Q674 410 683 409T692 398Q692 392 688 390T675 385Q662 381 654 375T638 359T625 334T612 298L513 13Q510 5 508 -3T495 -11Q490 -11 484 -8T475 3L362 283L257 10Q254 2 252 -4T236 -11Q229 -11 226 -6T219 7L111 257Q92 301 77 333T57 370Q52 374 47 376T21 387Q15 389 14 392T12 398Q12 407 22 408T51 410H178Q199 410 210 409T221 396Q221 389 214 387T191 380Q183 378 176 373T168 357Q168 352 174 334T189 292T211 239T234 184T254 137T267 107Q275 125 288 156T313 219T333 279T342 321Q342 324 341 333T337 352T325 372T301 384Q290 386 285 388T280 397Q280 407 288 408T313 410H438Z"  />
<glyph unicode="x" horiz-adv-x="531" d="M425 410Q442 410 452 409T462 398Q462 390 457 389T447 387Q427 387 418 384T406 378Q395 372 380 356T349 318T318 275T292 234Q294 231 303 217T327 183T359 139T392 95T423 58T445 38Q462 30 473 27T498 22Q509 20 509 10Q509 2 501 1T478 -1H297Q275 -1 270 0T264 9Q264 17 269 19T282 23Q302 25 310 32T319 45Q319 49 318 52T313 62T301 79T280 108Q268 124 261 134T250 150T242 160T235 169Q208 130 194 108T172 74T164 56T163 46Q163 42 168 33T198 22Q213 20 218 19T224 10Q224 2 218 1T194 -1H66Q49 -1 41 0T32 11Q32 16 35 17T52 22Q78 29 97 37T136 71Q142 79 152 93T175 124T199 158T220 191Q210 205 191 232T151 286T112 337T87 366Q73 379 61 382T32 387Q19 389 19 398Q19 407 27 408T47 410H226Q241 410 247 409T254 399Q254 391 250 390T243 387Q226 383 214 379T202 367Q202 364 205 357T214 343T224 328T233 316Q250 293 258 281T275 256Q282 265 293 279T314 308T333 337T341 360Q341 373 332 377T315 384Q301 389 298 390T295 398Q295 407 301 408T321 410H425Z"  />
<glyph unicode="y" horiz-adv-x="510" d="M239 413Q243 413 248 410T254 399Q254 392 249 391T240 389Q237 389 230 388T214 382T200 370T193 349Q193 335 200 317T214 282Q219 270 231 241T256 180T282 120T298 81Q298 81 304 97T319 137T338 191T357 249T372 301T378 336Q378 357 370 371T326 390Q318 391 312 392T306 401Q306 410 314 411T325 413Q330 413 342 413T368 412L401 410Q406 410 417 410T442 412Q456 412 468 412T485 413Q494 413 496 408T498 400Q498 396 495 394T474 386Q465 382 457 378T441 362T422 331T399 276Q370 193 350 134T315 34T291 -32T276 -73T266 -100T256 -120Q244 -145 230 -171T196 -219T151 -255T95 -269Q61 -269 35 -251T8 -203Q8 -178 24 -162T63 -145Q77 -145 86 -149T102 -160T111 -174T115 -185Q117 -203 119 -210T133 -217Q146 -217 159 -206T185 -176T209 -136T228 -94T240 -59T245 -38Q245 -25 234 8T207 85T170 175T130 264T96 335T75 373Q68 382 60 385T39 390Q35 391 31 393T27 401Q27 403 29 408T39 413Q40 413 45 413T58 411T74 410T88 408L239 413Z"  />
<glyph unicode="z" horiz-adv-x="448" d="M377 0H60Q55 0 47 1T38 9Q38 11 46 25T65 56T86 89T99 110Q143 178 185 245T265 384Q224 386 196 384T145 374T106 349T72 307Q64 295 59 290T49 284Q44 284 42 288T39 296Q39 299 43 314T53 348T64 384T71 408Q90 408 120 408T181 409T240 409T283 410Q320 410 340 410T369 408T379 405T381 401Q381 397 374 384T358 356T340 327T327 307Q324 303 313 285T285 241T250 185T211 124T176 68T151 26Q203 25 234 25T284 30T316 45T344 76L387 130Q389 132 391 132T395 132Q398 132 402 131T406 122L377 0Z"  />
<glyph unicode="{" horiz-adv-x="396" d="M344 -279Q300 -273 266 -254T208 -209T173 -152T161 -89Q161 -82 162 -62T171 -13Q172 -11 174 -3T178 17T181 41T183 62Q183 75 178 91T160 122T126 150T72 166V186Q104 190 125 202T159 230T177 262T183 291Q183 300 182 312T178 335T173 355T171 366Q164 395 163 414T161 442Q161 472 172 503T207 560T265 606T344 631V614Q297 603 266 575T234 498Q234 487 237 466T246 422Q248 411 252 390T256 346Q256 334 252 313T233 268T190 219T112 178V176Q150 162 177 143T222 100T248 53T256 7Q256 -15 252 -36T246 -69Q241 -92 238 -113T234 -146Q234 -195 265 -222T344 -262V-279Z"  />
<glyph unicode="|" horiz-adv-x="510" d="M282 750V-250H228V750H282Z"  />
<glyph unicode="}" horiz-adv-x="396" d="M52 -263Q99 -251 130 -224T162 -147Q162 -135 159 -114T150 -70Q148 -59 144 -38T140 6Q140 28 148 52T173 99T218 141T284 175V177Q235 194 207 218T163 266T144 312T140 345Q140 367 144 388T150 421Q156 444 159 465T162 497Q162 522 154 541T130 574T95 597T52 613V630Q97 624 131 605T188 560T223 502T235 441Q235 433 234 414T225 365Q225 363 223 354T219 334T215 311T213 290Q213 277 218 261T236 230T270 202T324 185V165Q292 161 271 149T237 122T219 90T213 61Q213 52 214 40T218 17T222 -3T225 -14Q232 -43 233 -63T235 -90Q235 -121 223 -152T188 -210T130 -255T52 -280V-263H52Z"  />
<glyph unicode="~" horiz-adv-x="667" d="M595 362Q593 293 557 258T473 222Q459 222 447 224T418 231T377 246T316 271Q264 292 236 302T185 312Q158 312 141 301T114 275T100 245T95 223H72Q74 258 82 282T103 321T130 345T156 358T178 362T189 363Q196 363 206 362T237 356T290 338T375 304Q402 292 419 286T449 276T468 273T482 272Q494 272 508 275T536 289T559 316T572 362H595Z"  />
<glyph unicode="&#xA0;" horiz-adv-x="255" />
<glyph unicode="&#xA1;" horiz-adv-x="250" d="M122 293Q96 293 79 310T62 352Q62 377 79 394T122 412Q145 412 163 395T181 352Q181 327 164 310T122 293ZM128 -250Q100 -250 83 -231T65 -176Q65 -170 67 -148T73 -93T82 -24T91 48T98 109T102 150Q103 162 104 177T107 207T110 232T112 243Q113 246 118 246T127 247Q138 247 139 242T143 215Q145 188 146 168T149 130T153 92T158 48T166 -11T177 -92Q180 -115 183 -141T187 -183Q187 -189 185 -200T177 -222T159 -242T128 -250Z"  />
<glyph unicode="&#xA2;" horiz-adv-x="427" d="M192 56Q210 36 230 29T264 21Q271 21 285 24T316 38T348 66T371 114Q374 123 376 129T387 135Q393 135 395 131T398 122Q398 105 389 82T360 39T308 4T231 -11Q208 -11 194 -8T172 -2L122 -147L98 -139L149 6Q97 30 66 78T34 194Q34 242 50 283T93 354T158 402T236 419Q262 419 289 412L340 558L361 550L312 406Q354 392 372 369T391 325Q391 308 380 296T351 283Q331 283 324 294T312 315L295 356L192 56ZM278 379Q267 389 255 391T233 393Q198 393 178 372T148 323T136 268T134 229Q134 218 135 202T140 165T152 122T174 79L278 379Z"  />
<glyph unicode="&#xA3;" horiz-adv-x="844" d="M642 221Q659 223 664 221T669 205Q669 200 668 196T666 189L439 166Q428 125 417 97T395 50T375 18T356 -5Q385 -13 430 -23T541 -33Q593 -33 628 -24T686 -2T719 25T733 51Q737 68 739 71T747 75Q758 75 759 65T761 51Q761 7 746 -24T706 -77T652 -108T594 -118Q560 -118 522 -109T447 -86T379 -59T327 -36Q313 -48 295 -61T253 -87T202 -107T139 -115Q78 -115 51 -91T23 -37Q23 -18 32 -3T58 23T96 38T141 44Q179 44 212 36T292 13Q306 42 314 80T331 157L137 142L131 148Q130 160 130 167T133 177T142 182T159 184L339 197Q341 209 346 239T358 302T370 365T379 405Q400 492 436 543T512 622T586 657T642 665Q678 665 711 653T769 618T810 565T825 498Q825 471 815 443T786 392T744 353T690 338Q677 338 664 341T641 348T624 358T617 369Q617 374 620 377T628 380Q633 380 639 377Q652 372 662 368T685 364Q697 364 710 371T733 394T750 434T757 494Q757 521 751 547T731 594T696 626T645 639Q609 639 583 626T540 590T512 540T495 481Q492 464 485 425T471 341T457 259T447 205L642 221ZM278 -14Q255 -3 226 7T158 18Q138 18 124 12T101 -3T88 -22T84 -42Q84 -59 93 -68T113 -82T135 -88T151 -89Q155 -89 170 -88T203 -79T242 -57T278 -14Z"  />
<glyph unicode="&#xA4;" horiz-adv-x="677" d="M536 525L572 488L511 427Q518 417 526 405T541 376T552 338T557 291Q557 265 553 245T541 208T526 179T510 157L572 95L536 59L474 120Q455 106 423 90T338 73Q312 73 291 78T254 90T226 105T203 120L142 59L105 95L167 156Q160 166 152 178T136 207T125 245T120 292Q120 344 136 376T167 428L105 488L142 525L203 464Q223 478 255 494T338 511Q364 511 385 506T422 494T451 479T474 464L536 525ZM505 292Q505 326 492 356T457 410T404 446T339 459Q304 459 274 446T221 410T185 357T172 292Q172 257 185 227T221 174T274 138T339 125Q373 125 403 138T456 174T492 227T505 292Z"  />
<glyph unicode="&#xA5;" horiz-adv-x="740" d="M685 630Q702 630 712 629T722 618Q722 612 718 611T693 606Q675 603 660 598T628 577T589 535T535 464Q527 453 510 430T476 382T447 334T436 299H689V266H434Q434 260 434 249T434 223T433 196T433 174H689V141H433Q433 104 435 81T444 45T467 26T508 18Q519 17 524 16T529 6Q529 -2 518 -3T504 -5Q502 -5 482 -5T437 -2Q412 0 391 0T366 0Q359 0 342 -1T306 -3Q287 -4 273 -5T256 -7Q249 -7 243 -5T236 5Q236 12 240 13T248 14Q276 14 292 25T316 55T325 96T327 141H62V174H326Q325 197 323 224T319 266H62V299H301Q290 320 281 332T260 365Q243 394 221 430T175 500T128 560T85 596Q82 597 80 598T74 601T62 605T42 610Q38 611 37 614T35 619Q35 627 41 628T63 630H294Q319 630 324 629T330 619Q330 613 326 611T305 606Q276 601 267 591T257 569Q257 563 258 558T266 542T283 516T313 471Q317 465 326 452T346 423T366 395T379 376L406 338Q419 354 435 377T469 424T500 469T524 504Q534 520 542 536T551 566Q551 577 546 584T533 595T515 601T496 606Q479 610 476 611T473 618Q473 627 480 628T504 630H685Z"  />
<glyph unicode="&#xA6;" horiz-adv-x="510" d="M282 175V-175H228V175H282ZM282 675V325H228V675H282Z"  />
<glyph unicode="&#xA7;" horiz-adv-x="479" d="M150 392Q136 417 123 447T109 522Q109 551 119 577T147 622T191 653T247 665Q272 665 294 658T332 638T358 609T368 573Q368 561 364 549T351 526T332 510T308 503Q291 503 277 514T263 544Q263 557 268 564T285 580Q295 587 298 593T302 604Q302 616 289 627T252 638Q232 638 218 630T193 610T179 583T174 554Q174 529 184 503T209 449T245 395T286 343Q327 294 355 259T402 198T428 149T437 103Q437 71 425 52T395 22T359 6T331 -1Q337 -12 345 -25T361 -56T373 -93T378 -135Q378 -156 371 -179T346 -222T302 -254T235 -267Q204 -267 183 -258T148 -236T128 -206T122 -176Q122 -153 139 -133T184 -112Q207 -112 217 -126T227 -152Q227 -157 225 -164T211 -181Q199 -191 196 -196T193 -208Q193 -223 204 -233T239 -243Q252 -243 265 -239T288 -225T306 -201T313 -167Q313 -140 305 -117T280 -68T236 -9T168 67Q128 112 103 145T65 203T47 249T42 289Q42 323 55 343T85 373T121 387T150 392ZM308 32Q333 31 347 36T368 49T377 65T379 76Q379 97 365 119T338 155Q302 195 282 219T248 259T225 286T204 312Q189 329 173 344T135 359Q116 359 105 345T94 318Q94 301 103 282T134 232T195 159T292 50L308 32Z"  />
<glyph unicode="&#xA8;" horiz-adv-x="333" d="M68 595Q90 595 105 580T121 542Q121 520 106 505T68 490Q47 490 32 505T16 542Q16 565 31 580T68 595ZM265 595Q286 595 301 580T317 542Q317 520 302 505T265 490Q243 490 228 505T212 542Q212 565 227 580T265 595Z"  />
<glyph unicode="&#xA9;" horiz-adv-x="750" d="M539 389H520Q513 424 498 445T464 477T428 491T400 494Q359 494 335 475T297 429T279 372T274 317Q274 281 278 245T306 180Q322 160 346 147T398 134Q425 134 446 142T483 161T509 183T525 202V167Q495 135 455 120T370 105Q331 105 294 117T228 154T182 216T164 304Q164 353 181 393T228 461T296 504T379 519Q407 519 428 514T475 499Q485 495 489 494T498 493Q512 493 515 503T520 518H539V389ZM375 655Q446 655 509 628T619 555T694 445T722 309Q722 237 695 174T621 64T510 -10T375 -37Q303 -37 240 -10T130 64T56 174T29 309Q29 381 56 444T131 554T241 628T375 655ZM375 612Q313 612 258 589T162 524T97 428T73 309Q73 246 96 191T161 95T257 30T375 6Q438 6 493 30T589 95T654 191T678 309Q678 372 654 427T589 524T492 588T375 612Z"  />
<glyph unicode="&#xAA;" horiz-adv-x="292" d="M274 416Q279 416 283 413T287 407Q287 399 269 394T227 389Q209 389 199 391T183 396T176 404T173 415Q152 396 131 392T98 387Q64 387 41 404T18 450Q18 469 26 482T50 504T88 521T138 538Q163 546 167 559T172 581Q172 599 164 611T132 624Q115 624 110 616T101 594Q99 583 93 572T64 561Q50 561 40 570T30 589Q30 612 58 629T137 647Q169 647 189 641T220 624T236 600T240 571Q240 566 240 554T239 529T239 505T238 489Q238 481 238 468T241 443T247 423T259 414L274 416ZM170 529Q166 526 163 524T154 519T138 511T112 497Q106 494 98 484T90 458Q90 443 98 430T120 416Q130 416 145 424T166 451Q168 458 169 468T170 489T171 511T170 529Z"  />
<glyph unicode="&#xAB;" horiz-adv-x="521" d="M209 365Q220 375 227 381T239 390T248 394T259 395Q265 395 265 390Q265 388 264 385T260 379L152 204L256 37Q262 27 263 24T265 19Q265 15 260 15T252 14Q247 14 243 15T228 26L30 204L209 365ZM438 365Q449 375 456 381T468 390T477 394T488 395Q494 395 494 390Q494 388 493 385T489 379L381 204L485 37Q491 27 492 24T494 19Q494 15 489 15T481 14Q476 14 472 15T457 26L259 204L438 365Z"  />
<glyph unicode="&#xAC;" horiz-adv-x="667" d="M598 434V153H546V382H70V434H598Z"  />
<glyph unicode="&#xAD;" horiz-adv-x="365" d="M317 245Q337 245 342 242T347 221V188Q347 173 347 170T342 164Q339 162 335 162T317 162H49Q32 162 28 162T20 165Q18 167 18 170T18 188V224Q18 240 23 242T49 245H317Z"  />
<glyph unicode="&#xAE;" horiz-adv-x="750" d="M367 510Q400 510 421 508T457 503T480 495T496 486Q502 482 509 475T523 458T535 434T540 403Q540 398 539 386T529 357T504 326T453 302L520 180Q531 159 543 147T571 132V115H453L353 295H330V198Q330 178 332 166T340 146T357 136T389 132V115H182V132Q194 132 203 133T219 140T229 160T233 198V429Q233 467 226 479T190 493V510H367ZM330 320Q340 318 358 318Q370 318 383 322T408 337T427 364T435 405Q435 436 424 453T399 478T371 487T349 489H330V320ZM375 655Q446 655 509 628T619 555T694 445T722 309Q722 237 695 174T621 64T510 -10T375 -37Q303 -37 240 -10T130 64T56 174T29 309Q29 381 56 444T131 554T241 628T375 655ZM375 612Q313 612 258 589T162 524T97 428T73 309Q73 246 96 191T161 95T257 30T375 6Q438 6 493 30T589 95T654 191T678 309Q678 372 654 427T589 524T492 588T375 612Z"  />
<glyph unicode="&#xAF;" horiz-adv-x="333" d="M317 541V482H15V541H317Z"  />
<glyph unicode="&#xB0;" horiz-adv-x="396" d="M367 486Q367 451 354 421T317 367T264 331T198 317Q163 317 133 330T79 367T43 420T29 486Q29 521 42 551T79 605T132 641T198 655Q233 655 263 642T317 605T353 552T367 486ZM313 486Q313 510 304 531T280 567T243 592T198 601Q174 601 153 592T117 568T92 531T83 486Q83 462 92 442T116 405T153 380T198 371Q222 371 243 380T279 405T304 441T313 486Z"  />
<glyph unicode="&#xB1;" horiz-adv-x="667" d="M308 407V645H360V407H598V355H360V117H308V355H70V407H308ZM598 52V0H70V52H598Z"  />
<glyph unicode="&#xB2;" horiz-adv-x="354" d="M51 344Q49 344 44 345T38 351Q38 358 50 365Q85 385 115 411T171 468Q197 499 210 525T224 585Q224 593 223 603T217 622T203 637T179 643Q156 643 140 633T113 609T97 578T92 549Q92 546 92 541T95 530T102 520T113 515Q121 515 131 522T149 536Q154 541 156 542T161 543Q162 543 167 541T172 531Q172 528 167 521T152 506T130 492T103 486Q86 486 75 492T56 508T45 528T42 548Q42 566 52 587T82 626T132 657T202 669Q232 669 251 661T282 640T299 613T304 588Q304 561 292 539T260 495T211 452T150 407H225Q240 407 259 410T290 430Q298 443 302 448T313 453Q322 453 322 443Q322 442 322 440T320 433Q314 419 311 410T303 392T295 372T284 344H51Z"  />
<glyph unicode="&#xB3;" horiz-adv-x="354" d="M232 528Q265 524 284 504T303 456Q303 436 293 415T264 377T216 349T151 338Q99 338 70 359T41 406Q41 427 56 435T82 444Q99 444 106 436T114 418Q114 408 111 400T107 386Q107 363 143 363Q168 363 184 377T211 412T226 451T231 482Q231 496 222 499T208 503Q201 503 192 501T177 494Q160 485 155 483T145 480Q139 480 137 484T135 490Q135 496 147 504Q157 511 170 521T196 543T216 569T224 601Q224 624 211 634T184 644Q167 644 155 637T134 618T121 595T116 574Q116 571 118 567T125 562Q128 562 137 566T148 571Q152 571 155 568T158 562Q158 559 154 553T142 541T126 531T108 527Q88 527 77 542T66 574Q66 592 76 609T106 640T150 661T204 669Q250 669 271 649T292 605Q292 589 286 577T271 556T252 540T232 528Z"  />
<glyph unicode="&#xB4;" horiz-adv-x="333" d="M148 472Q137 464 134 462T125 459Q118 459 114 464T110 474Q110 479 112 482T123 497L188 591Q193 598 200 608T216 627T235 642T257 648Q270 648 283 638T296 610Q296 605 295 600T288 588T271 569T238 542L148 472Z"  />
<glyph unicode="&#xB5;" horiz-adv-x="500" d="M138 410V187Q138 161 139 136T147 90T168 58T208 46Q234 46 262 61T322 112V410H403V128Q403 86 408 63T436 39Q448 39 455 46T466 64T473 84T476 99H496Q494 76 488 56T471 20T442 -5T399 -14Q373 -14 359 -4T336 21T326 52T322 79Q313 68 299 52T265 22T221 -3T169 -14Q134 -14 119 0T94 28H92Q92 12 92 0T94 -23T97 -47T102 -74Q109 -109 112 -129T116 -161Q116 -170 114 -179T105 -197T91 -210T70 -216Q56 -216 48 -210T35 -195T29 -177T27 -162Q27 -154 28 -147T31 -129T37 -99T49 -51Q52 -38 54 -20T56 19T57 59T58 93V410H138Z"  />
<glyph unicode="&#xB6;" horiz-adv-x="750" d="M653 609Q621 603 604 595T580 571T571 530T569 464V-236H525V600Q505 601 479 599T432 592V-236H388V110Q353 108 309 111T219 137Q185 155 162 181T125 238T104 300T98 359Q98 377 101 401T113 451T138 505T179 554T242 594T331 618Q359 622 392 624T459 627T524 629T580 630H653V609Z"  />
<glyph unicode="&#xB7;" horiz-adv-x="229" d="M114 322Q139 322 156 305T174 263Q174 238 157 221T114 203Q90 203 73 220T55 263Q55 288 72 305T114 322Z"  />
<glyph unicode="&#xB8;" horiz-adv-x="333" d="M198 4L186 -31Q193 -33 202 -36T219 -46T232 -63T238 -91Q238 -121 221 -137T182 -162T139 -172T109 -174Q101 -174 99 -171T96 -164Q96 -156 101 -155T115 -152Q116 -152 124 -151T143 -145T162 -132T171 -111Q171 -96 162 -89T141 -80L162 -35Q170 -14 172 -8T177 4H198Z"  />
<glyph unicode="&#xB9;" horiz-adv-x="354" d="M112 344Q100 344 92 345T83 356Q83 364 90 365T100 367Q117 368 126 371T141 383T147 410T149 458V561Q149 587 143 601T114 619Q97 621 92 623T87 632Q87 640 92 641T101 643Q130 643 159 650T202 665Q203 666 206 667T211 669Q218 669 219 659T220 635Q220 609 220 590T218 556Q218 553 218 535T218 494T218 453T219 428Q219 413 220 402T225 384T237 372T262 367Q267 367 271 364T276 355Q276 347 268 346T248 344H112Z"  />
<glyph unicode="&#xBA;" horiz-adv-x="323" d="M15 517Q15 544 26 567T58 608T106 636T164 647Q196 647 222 637T267 609T296 570T307 523Q307 500 297 476T267 432T220 400T159 387Q129 387 103 397T57 424T26 466T15 517ZM91 520Q91 498 96 478T111 443T134 419T163 410Q189 410 211 438T233 512Q233 530 229 549T215 585T191 613T158 624Q140 624 127 614T106 589T95 555T91 520Z"  />
<glyph unicode="&#xBB;" horiz-adv-x="521" d="M312 43Q301 33 294 27T282 18T273 14T262 13Q256 13 256 18Q256 20 257 23T261 29L369 204L265 371Q259 381 258 384T256 389Q256 393 261 393T269 394Q274 394 278 393T293 382L491 204L312 43ZM83 43Q72 33 65 27T53 18T44 14T33 13Q27 13 27 18Q27 20 28 23T32 29L140 204L36 371Q30 381 29 384T27 389Q27 393 32 393T40 394Q45 394 49 393T64 382L262 204L83 43Z"  />
<glyph unicode="&#xBC;" horiz-adv-x="740" d="M402 126Q437 164 485 213T588 313Q593 318 599 322T611 326Q621 326 622 321T624 299V157L623 136Q632 135 642 136T662 140T677 150T686 168Q690 188 691 193T701 198Q709 198 711 193T713 183L710 110Q710 107 710 101T710 89T710 77T710 69Q708 59 700 59Q693 59 691 64T686 87Q683 102 671 107T623 112Q623 85 624 69T627 44T635 32T652 25Q666 21 669 19T673 11Q673 3 668 2T647 0H536Q507 0 501 1T494 12Q494 18 498 20T519 24Q530 26 536 31T545 45T549 71T552 112Q543 112 522 112T476 111T431 110T402 109V126ZM556 249Q532 225 515 208T486 178T464 155T447 136Q453 136 467 136T498 136T530 136T552 136L556 249ZM112 342Q101 342 93 343T84 354Q84 362 91 363T101 365Q119 366 129 370T143 390T148 434T149 514L150 560Q150 586 143 600T114 618Q97 621 93 622T88 631Q88 639 93 640T101 642Q130 643 159 649T202 664Q204 665 206 666T212 668Q218 668 219 658T220 634Q220 608 220 592T219 560L218 538Q218 476 218 443T222 393T231 372T247 367Q264 365 270 363T277 353Q277 345 268 344T248 342H112ZM598 668L187 -13H141L553 668H598Z"  />
<glyph unicode="&#xBD;" horiz-adv-x="740" d="M112 342Q101 342 93 343T84 354Q84 362 91 363T101 365Q119 366 129 370T143 390T148 434T149 514L150 560Q150 586 143 600T114 618Q97 621 93 622T88 631Q88 639 93 640T101 642Q130 643 159 649T202 664Q204 665 206 666T212 668Q218 668 219 658T220 634Q220 608 220 592T219 560L218 538Q218 476 218 443T222 393T231 372T247 367Q264 365 270 363T277 353Q277 345 268 344T248 342H112ZM437 0Q435 0 429 1T423 8Q423 14 436 21Q445 27 473 46T532 95T585 162T609 241Q609 248 608 258T602 277T589 292T565 298Q543 298 527 288T499 264T483 234T477 204Q477 200 478 195T481 184T488 174T499 170Q507 170 516 177T534 192Q541 198 546 198Q548 198 553 196T558 186Q558 184 553 177T538 161T516 147T488 141Q471 141 460 147T441 163T431 183T427 203Q427 221 437 242T467 282T518 313T588 325Q618 325 637 317T668 295T685 268T690 243Q690 216 679 194T648 152T599 110T535 65V63H610Q625 63 644 66T675 86Q683 99 687 104T698 109Q708 109 708 100Q708 98 703 85T691 55T678 22T669 0H437ZM598 668L187 -13H141L553 668H598Z"  />
<glyph unicode="&#xBE;" horiz-adv-x="740" d="M402 126Q437 164 485 213T588 313Q593 318 599 322T611 326Q621 326 622 321T624 299V157L623 136Q632 135 642 136T662 140T677 150T686 168Q690 188 691 193T701 198Q709 198 711 193T713 183L710 110Q710 107 710 101T710 89T710 77T710 69Q708 59 700 59Q693 59 691 64T686 87Q684 102 671 107T623 112Q623 85 624 69T627 44T635 32T652 25Q666 21 669 19T673 11Q673 3 668 2T647 0H536Q507 0 501 1T494 12Q494 18 498 20T519 24Q530 25 536 30T545 45T549 71T552 112Q543 112 522 112T476 111T431 110T402 109V126ZM556 249Q532 225 515 208T486 178T464 155T447 136Q453 136 467 136T498 136T530 136T552 136L556 249ZM232 526Q253 523 267 515T289 497T300 476T303 454Q303 434 293 413T264 375T216 347T151 336Q99 336 70 357T41 404Q41 414 45 421T57 433T71 440T84 442Q96 442 105 433T114 415Q114 411 111 399T107 384Q107 376 117 368T143 360Q168 360 184 375T211 409T226 449T231 480Q231 494 222 498T208 502Q201 502 192 499T177 492Q160 483 155 481T145 478Q139 478 137 482T135 488Q135 495 147 503Q153 507 166 515T191 537T214 566T224 600Q224 623 211 633T184 644Q167 644 155 637T134 618T121 594T116 573Q116 570 118 566T125 561Q128 561 137 565T148 570Q152 570 155 567T158 561Q158 558 154 552T142 540T126 530T108 526Q88 526 77 541T66 573Q66 591 76 608T106 639T150 660T204 668Q250 668 271 648T292 604Q292 588 286 576T271 555T252 539T232 528V526ZM598 668L187 -13H141L553 668H598Z"  />
<glyph unicode="&#xBF;" horiz-adv-x="448" d="M316 223Q317 238 318 241T328 245Q342 245 344 243T347 227V24Q341 30 331 39T309 57T281 71T250 77Q228 77 209 62T177 23T155 -29T147 -84Q147 -109 154 -134T174 -181T208 -215T254 -228Q266 -228 272 -225T282 -218T285 -208T286 -198Q286 -194 286 -182T286 -166Q289 -151 295 -143T310 -131T324 -125T334 -124Q350 -124 367 -136T384 -171Q384 -206 352 -228T261 -250Q220 -250 183 -236T118 -197T74 -138T57 -61Q57 -24 69 8T103 63T154 100T218 114Q250 114 270 105T306 87L316 223ZM326 296Q300 296 283 313T266 355Q266 380 283 397T326 415Q349 415 367 398T385 355Q385 330 368 313T326 296Z"  />
<glyph unicode="&#xC0;" horiz-adv-x="719" d="M371 654Q376 641 389 610T417 545T444 479T462 436Q467 422 477 395T500 334T527 262T554 190T577 130T593 91Q603 67 613 54T635 33T659 23T686 19Q692 18 696 16T701 6Q701 -5 685 -5Q682 -5 668 -5T635 -3Q618 -2 602 -2T579 -1Q574 -1 552 -1T501 -2Q473 -3 448 -3T413 -4Q409 -4 404 -3T398 7Q398 15 403 16T434 22Q453 24 467 33T481 64Q481 71 480 78T474 102T458 152T427 245Q408 245 380 245T322 244T262 243T213 243Q210 237 202 217T186 171T170 121T163 79Q163 63 171 53T191 35T214 25T231 21Q249 17 253 16T258 7Q258 5 256 0T243 -5Q233 -5 210 -5T160 -3Q134 -2 111 -2T79 -1Q76 -1 70 -1T57 -2T43 -2T34 -1Q25 1 25 9Q25 17 31 19T44 24Q67 28 82 38T111 68T137 123T170 212Q196 283 214 333T251 431T290 529T343 654H371ZM316 519Q307 499 294 467T268 400T242 332T223 278Q226 278 236 278T259 279T282 279T298 280Q304 280 320 280T355 279T389 279T413 278Q400 312 391 335T373 383T350 439T316 519ZM303 764Q282 780 271 791T253 809T246 822T245 832Q245 849 258 859T284 870Q295 870 305 864T324 849T340 830T353 813L418 719Q426 708 428 705T431 696Q431 692 427 687T416 681Q411 681 408 683T393 694L303 764H303Z"  />
<glyph unicode="&#xC1;" horiz-adv-x="719" d="M371 654Q376 641 389 610T417 545T444 479T462 436Q467 422 477 395T500 334T527 262T554 190T577 130T593 91Q603 67 613 54T635 33T659 23T686 19Q692 18 696 16T701 6Q701 -5 685 -5Q682 -5 668 -5T635 -3Q618 -2 602 -2T579 -1Q574 -1 552 -1T501 -2Q473 -3 448 -3T413 -4Q409 -4 404 -3T398 7Q398 15 403 16T434 22Q453 24 467 33T481 64Q481 71 480 78T474 102T458 152T427 245Q408 245 380 245T322 244T262 243T213 243Q210 237 202 217T186 171T170 121T163 79Q163 63 171 53T191 35T214 25T231 21Q249 17 253 16T258 7Q258 5 256 0T243 -5Q233 -5 210 -5T160 -3Q134 -2 111 -2T79 -1Q76 -1 70 -1T57 -2T43 -2T34 -1Q25 1 25 9Q25 17 31 19T44 24Q67 28 82 38T111 68T137 123T170 212Q196 283 214 333T251 431T290 529T343 654H371ZM316 519Q307 499 294 467T268 400T242 332T223 278Q226 278 236 278T259 279T282 279T298 280Q304 280 320 280T355 279T389 279T413 278Q400 312 391 335T373 383T350 439T316 519ZM341 694Q330 686 327 684T318 681Q311 681 307 686T303 696Q303 701 305 704T316 719L381 813Q386 820 393 830T409 849T428 864T450 870Q463 870 476 860T489 832Q489 827 488 822T481 810T464 791T431 764L341 694Z"  />
<glyph unicode="&#xC2;" horiz-adv-x="719" d="M371 654Q376 641 389 610T417 545T444 479T462 436Q467 422 477 395T500 334T527 262T554 190T577 130T593 91Q603 67 613 54T635 33T659 23T686 19Q692 18 696 16T701 6Q701 -5 685 -5Q682 -5 668 -5T635 -3Q618 -2 602 -2T579 -1Q574 -1 552 -1T501 -2Q473 -3 448 -3T413 -4Q409 -4 404 -3T398 7Q398 15 403 16T434 22Q453 24 467 33T481 64Q481 71 480 78T474 102T458 152T427 245Q408 245 380 245T322 244T262 243T213 243Q210 237 202 217T186 171T170 121T163 79Q163 63 171 53T191 35T214 25T231 21Q249 17 253 16T258 7Q258 5 256 0T243 -5Q233 -5 210 -5T160 -3Q134 -2 111 -2T79 -1Q76 -1 70 -1T57 -2T43 -2T34 -1Q25 1 25 9Q25 17 31 19T44 24Q67 28 82 38T111 68T137 123T170 212Q196 283 214 333T251 431T290 529T343 654H371ZM316 519Q307 499 294 467T268 400T242 332T223 278Q226 278 236 278T259 279T282 279T298 280Q304 280 320 280T355 279T389 279T413 278Q400 312 391 335T373 383T350 439T316 519ZM397 873L482 709Q488 698 489 695T491 691Q491 686 487 686T463 685L359 789L258 685H242Q237 685 233 685T228 691Q228 694 229 696T236 709L323 873H397Z"  />
<glyph unicode="&#xC3;" horiz-adv-x="719" d="M371 654Q376 641 389 610T417 545T444 479T462 436Q467 422 477 395T500 334T527 262T554 190T577 130T593 91Q603 67 613 54T635 33T659 23T686 19Q692 18 696 16T701 6Q701 -5 685 -5Q682 -5 668 -5T635 -3Q618 -2 602 -2T579 -1Q574 -1 552 -1T501 -2Q473 -3 448 -3T413 -4Q409 -4 404 -3T398 7Q398 15 403 16T434 22Q453 24 467 33T481 64Q481 71 480 78T474 102T458 152T427 245Q408 245 380 245T322 244T262 243T213 243Q210 237 202 217T186 171T170 121T163 79Q163 63 171 53T191 35T214 25T231 21Q249 17 253 16T258 7Q258 5 256 0T243 -5Q233 -5 210 -5T160 -3Q134 -2 111 -2T79 -1Q76 -1 70 -1T57 -2T43 -2T34 -1Q25 1 25 9Q25 17 31 19T44 24Q67 28 82 38T111 68T137 123T170 212Q196 283 214 333T251 431T290 529T343 654H371ZM316 519Q307 499 294 467T268 400T242 332T223 278Q226 278 236 278T259 279T282 279T298 280Q304 280 320 280T355 279T389 279T413 278Q400 312 391 335T373 383T350 439T316 519ZM304 818Q312 818 327 815T374 794Q413 771 433 771Q451 771 458 783T470 806Q472 810 475 814T488 818Q501 818 501 804Q501 802 500 786T490 750T464 714T416 698Q408 698 394 700T356 716Q339 725 329 730T313 739T302 743T292 744Q272 744 264 732T252 711Q250 706 247 703T234 699Q223 699 221 704T219 715Q219 736 225 754T243 787T270 810T304 818Z"  />
<glyph unicode="&#xC4;" horiz-adv-x="719" d="M371 654Q376 641 389 610T417 545T444 479T462 436Q467 422 477 395T500 334T527 262T554 190T577 130T593 91Q603 67 613 54T635 33T659 23T686 19Q692 18 696 16T701 6Q701 -5 685 -5Q682 -5 668 -5T635 -3Q618 -2 602 -2T579 -1Q574 -1 552 -1T501 -2Q473 -3 448 -3T413 -4Q409 -4 404 -3T398 7Q398 15 403 16T434 22Q453 24 467 33T481 64Q481 71 480 78T474 102T458 152T427 245Q408 245 380 245T322 244T262 243T213 243Q210 237 202 217T186 171T170 121T163 79Q163 63 171 53T191 35T214 25T231 21Q249 17 253 16T258 7Q258 5 256 0T243 -5Q233 -5 210 -5T160 -3Q134 -2 111 -2T79 -1Q76 -1 70 -1T57 -2T43 -2T34 -1Q25 1 25 9Q25 17 31 19T44 24Q67 28 82 38T111 68T137 123T170 212Q196 283 214 333T251 431T290 529T343 654H371ZM316 519Q307 499 294 467T268 400T242 332T223 278Q226 278 236 278T259 279T282 279T298 280Q304 280 320 280T355 279T389 279T413 278Q400 312 391 335T373 383T350 439T316 519ZM261 817Q283 817 298 802T314 764Q314 742 299 727T261 712Q240 712 225 727T209 764Q209 787 224 802T261 817ZM458 817Q479 817 494 802T510 764Q510 742 495 727T458 712Q436 712 421 727T405 764Q405 787 420 802T458 817Z"  />
<glyph unicode="&#xC5;" horiz-adv-x="719" d="M371 654Q376 641 389 610T417 545T444 479T462 436Q467 422 477 395T500 334T527 262T554 190T577 130T593 91Q603 67 613 54T635 33T659 23T686 19Q692 18 696 16T701 6Q701 -5 685 -5Q682 -5 668 -5T635 -3Q618 -2 602 -2T579 -1Q574 -1 552 -1T501 -2Q473 -3 448 -3T413 -4Q409 -4 404 -3T398 7Q398 15 403 16T434 22Q453 24 467 33T481 64Q481 71 480 78T474 102T458 152T427 245Q408 245 380 245T322 244T262 243T213 243Q210 237 202 217T186 171T170 121T163 79Q163 63 171 53T191 35T214 25T231 21Q249 17 253 16T258 7Q258 5 256 0T243 -5Q233 -5 210 -5T160 -3Q134 -2 111 -2T79 -1Q76 -1 70 -1T57 -2T43 -2T34 -1Q25 1 25 9Q25 17 31 19T44 24Q67 28 82 38T111 68T137 123T170 212Q196 283 214 333T251 431T290 529T343 654H371ZM316 519Q307 499 294 467T268 400T242 332T223 278Q226 278 236 278T259 279T282 279T298 280Q304 280 320 280T355 279T389 279T413 278Q400 312 391 335T373 383T350 439T316 519ZM359 858Q393 858 417 835T441 777Q441 743 417 719T359 695Q326 695 302 719T278 777Q278 811 302 834T359 858ZM359 816Q342 816 331 805T320 777Q320 761 331 749T359 737Q376 737 387 748T399 777Q399 794 388 805T359 816Z"  />
<glyph unicode="&#xC6;" horiz-adv-x="1031" d="M963 497Q964 494 965 489T966 482Q966 471 956 471Q951 471 946 476T927 502Q909 529 889 549T842 582T780 601T697 608Q665 608 645 607T607 604Q602 543 601 475T600 345Q638 345 664 346T709 354T742 379T770 430Q777 445 779 449T786 453Q790 453 794 450T799 436Q799 431 798 416T797 382T795 348T794 325Q794 318 794 302T796 267T797 233T798 210Q798 208 797 200T788 192Q780 192 778 199T773 220Q767 254 749 273T707 301T654 312T600 315Q600 295 600 262T600 193T602 126T608 80Q615 48 645 35T722 22Q783 22 825 32T895 60T941 100T971 147Q977 160 979 163T988 166Q992 166 995 164T999 157Q999 154 998 149T996 141L963 -4H703Q673 -3 654 -3T619 -2T583 -1T534 -1L417 0Q408 0 407 5T405 11Q405 18 409 20T425 24Q434 25 444 27T463 36T480 55T490 89Q496 129 497 187T498 315Q486 315 457 315T394 315T333 315T293 315Q285 303 267 272T231 203T198 129T183 67Q183 51 190 42T207 27T227 21T245 19Q252 19 259 18T266 7Q266 -1 259 -2T245 -3Q239 -3 225 -3T194 -2T164 -1T145 0L35 -3Q20 -3 15 -2T9 6Q9 14 13 16T33 20Q55 24 73 35T108 68T145 120T188 194Q196 208 212 238T250 306T293 385T333 463T362 527T374 565Q374 591 353 599T300 611Q277 613 271 615T265 625Q265 633 272 634T297 636H923L963 497ZM498 348Q498 396 498 450T494 548Q493 554 492 563T487 581T477 595T461 601Q456 601 450 598T433 580Q425 569 413 548T387 502T360 450T335 401T317 364T309 348H498Z"  />
<glyph unicode="&#xC7;" horiz-adv-x="646" d="M392 -12Q389 -20 387 -24T381 -36Q413 -41 435 -57T458 -108Q458 -121 453 -138T429 -172T375 -199T282 -210Q270 -210 264 -208T257 -197Q257 -190 262 -188T293 -183Q303 -182 315 -180T338 -172T356 -157T364 -132Q364 -111 347 -105T313 -96Q324 -79 331 -68T343 -49T351 -32T360 -13Q292 -15 233 8T130 75T61 179T36 312Q36 379 58 440T121 547T222 621T356 649Q419 649 464 632T538 599Q544 603 547 606T554 612T561 620T572 634Q574 636 577 638T584 641Q590 641 592 636T595 626Q596 609 598 585T602 534T605 484T607 444Q607 430 595 430Q590 430 588 433T579 450Q561 487 540 519T492 574T434 610T366 623Q323 623 287 603T225 546T184 455T169 334Q169 247 192 188T251 93T327 42T401 26Q443 26 475 41T532 78T571 122T595 157Q602 169 610 169Q618 169 623 164T625 155Q625 147 612 123T570 72T497 21T392 -12Z"  />
<glyph unicode="&#xC8;" horiz-adv-x="656" d="M421 212Q421 207 420 202T410 197Q403 197 401 203T397 215Q391 247 377 266T342 296T293 311T230 316Q230 297 230 264T229 194T231 127T237 79Q242 59 257 48T291 31T328 24T358 22Q419 22 461 36T530 70T571 109T590 138Q598 155 600 158T609 162Q615 162 617 158T619 150Q619 147 616 130T608 90T597 40T584 -8Q526 -8 487 -8T419 -9T369 -9T326 -8Q316 -8 291 -7T237 -4Q209 -2 187 -2T160 -1H43Q35 0 28 1T21 10Q21 17 27 19T61 26Q76 29 87 33T107 51T120 93T125 171Q125 285 125 357T123 472T120 536T115 568Q109 589 88 598T46 612Q38 614 36 616T34 622Q34 631 41 633T53 636Q62 636 83 636T127 634T171 633T200 632L398 633H555Q572 567 578 527T585 485Q585 482 583 478T576 474Q571 474 568 478T562 486Q558 493 550 503T532 525T512 547T492 566Q479 577 466 585T435 598T397 605T348 607Q324 607 308 607T280 605T258 602T237 599Q236 587 235 573T233 532T231 462T230 346Q270 346 297 348T342 358T374 385T399 434Q403 442 405 446T414 451Q417 451 420 449T424 438Q424 428 423 425Q421 393 421 366T420 332L421 212ZM277 764Q256 780 245 791T227 809T220 822T219 832Q219 849 232 859T258 870Q269 870 279 864T298 849T314 830T327 813L392 719Q400 708 402 705T405 696Q405 692 401 687T390 681Q385 681 382 683T367 694L277 764H277Z"  />
<glyph unicode="&#xC9;" horiz-adv-x="656" d="M421 212Q421 207 420 202T410 197Q403 197 401 203T397 215Q391 247 377 266T342 296T293 311T230 316Q230 297 230 264T229 194T231 127T237 79Q242 59 257 48T291 31T328 24T358 22Q419 22 461 36T530 70T571 109T590 138Q598 155 600 158T609 162Q615 162 617 158T619 150Q619 147 616 130T608 90T597 40T584 -8Q526 -8 487 -8T419 -9T369 -9T326 -8Q316 -8 291 -7T237 -4Q209 -2 187 -2T160 -1H43Q35 0 28 1T21 10Q21 17 27 19T61 26Q76 29 87 33T107 51T120 93T125 171Q125 285 125 357T123 472T120 536T115 568Q109 589 88 598T46 612Q38 614 36 616T34 622Q34 631 41 633T53 636Q62 636 83 636T127 634T171 633T200 632L398 633H555Q572 567 578 527T585 485Q585 482 583 478T576 474Q571 474 568 478T562 486Q558 493 550 503T532 525T512 547T492 566Q479 577 466 585T435 598T397 605T348 607Q324 607 308 607T280 605T258 602T237 599Q236 587 235 573T233 532T231 462T230 346Q270 346 297 348T342 358T374 385T399 434Q403 442 405 446T414 451Q417 451 420 449T424 438Q424 428 423 425Q421 393 421 366T420 332L421 212ZM310 694Q299 686 296 684T287 681Q280 681 276 686T272 696Q272 701 274 704T285 719L350 813Q355 820 362 830T378 849T397 864T419 870Q432 870 445 860T458 832Q458 827 457 822T450 810T433 791T400 764L310 694Z"  />
<glyph unicode="&#xCA;" horiz-adv-x="656" d="M421 212Q421 207 420 202T410 197Q403 197 401 203T397 215Q391 247 377 266T342 296T293 311T230 316Q230 297 230 264T229 194T231 127T237 79Q242 59 257 48T291 31T328 24T358 22Q419 22 461 36T530 70T571 109T590 138Q598 155 600 158T609 162Q615 162 617 158T619 150Q619 147 616 130T608 90T597 40T584 -8Q526 -8 487 -8T419 -9T369 -9T326 -8Q316 -8 291 -7T237 -4Q209 -2 187 -2T160 -1H43Q35 0 28 1T21 10Q21 17 27 19T61 26Q76 29 87 33T107 51T120 93T125 171Q125 285 125 357T123 472T120 536T115 568Q109 589 88 598T46 612Q38 614 36 616T34 622Q34 631 41 633T53 636Q62 636 83 636T127 634T171 633T200 632L398 633H555Q572 567 578 527T585 485Q585 482 583 478T576 474Q571 474 568 478T562 486Q558 493 550 503T532 525T512 547T492 566Q479 577 466 585T435 598T397 605T348 607Q324 607 308 607T280 605T258 602T237 599Q236 587 235 573T233 532T231 462T230 346Q270 346 297 348T342 358T374 385T399 434Q403 442 405 446T414 451Q417 451 420 449T424 438Q424 428 423 425Q421 393 421 366T420 332L421 212ZM366 873L451 709Q457 698 458 695T460 691Q460 686 456 686T432 685L328 789L227 685H211Q206 685 202 685T197 691Q197 694 198 696T205 709L292 873H366Z"  />
<glyph unicode="&#xCB;" horiz-adv-x="656" d="M421 212Q421 207 420 202T410 197Q403 197 401 203T397 215Q391 247 377 266T342 296T293 311T230 316Q230 297 230 264T229 194T231 127T237 79Q242 59 257 48T291 31T328 24T358 22Q419 22 461 36T530 70T571 109T590 138Q598 155 600 158T609 162Q615 162 617 158T619 150Q619 147 616 130T608 90T597 40T584 -8Q526 -8 487 -8T419 -9T369 -9T326 -8Q316 -8 291 -7T237 -4Q209 -2 187 -2T160 -1H43Q35 0 28 1T21 10Q21 17 27 19T61 26Q76 29 87 33T107 51T120 93T125 171Q125 285 125 357T123 472T120 536T115 568Q109 589 88 598T46 612Q38 614 36 616T34 622Q34 631 41 633T53 636Q62 636 83 636T127 634T171 633T200 632L398 633H555Q572 567 578 527T585 485Q585 482 583 478T576 474Q571 474 568 478T562 486Q558 493 550 503T532 525T512 547T492 566Q479 577 466 585T435 598T397 605T348 607Q324 607 308 607T280 605T258 602T237 599Q236 587 235 573T233 532T231 462T230 346Q270 346 297 348T342 358T374 385T399 434Q403 442 405 446T414 451Q417 451 420 449T424 438Q424 428 423 425Q421 393 421 366T420 332L421 212ZM230 817Q252 817 267 802T283 764Q283 742 268 727T230 712Q209 712 194 727T178 764Q178 787 193 802T230 817ZM427 817Q448 817 463 802T479 764Q479 742 464 727T427 712Q405 712 390 727T374 764Q374 787 389 802T427 817Z"  />
<glyph unicode="&#xCC;" horiz-adv-x="365" d="M68 -4Q50 -4 50 8Q50 15 55 16T84 21Q96 22 103 27T115 39T122 51T125 60Q127 72 128 96T129 148T130 202T130 243Q130 260 130 287T130 347T129 414T127 480T123 534T117 570Q109 595 89 602T53 612Q48 613 46 616T43 624Q43 632 48 633T60 635Q83 634 113 634T182 633Q195 633 211 633T245 634T279 634T309 635Q315 635 323 634T331 624Q331 614 323 613T308 610Q290 609 278 603T259 588T248 572T244 559Q241 545 239 517T236 455T235 391T235 343Q235 330 235 307T235 256T237 199T239 142T243 95T248 65Q255 45 269 35T308 20Q321 18 324 16T328 8Q328 -2 319 -3T307 -5Q302 -5 298 -5T291 -4Q279 -3 265 -2T236 -1T211 0T193 0Q173 0 158 0T129 0T103 -2T74 -4H68ZM131 764Q110 780 99 791T81 809T74 822T73 832Q73 849 86 859T112 870Q123 870 133 864T152 849T168 830T181 813L246 719Q254 708 256 705T259 696Q259 692 255 687T244 681Q239 681 236 683T221 694L131 764H131Z"  />
<glyph unicode="&#xCD;" horiz-adv-x="365" d="M68 -4Q50 -4 50 8Q50 15 55 16T84 21Q96 22 103 27T115 39T122 51T125 60Q127 72 128 96T129 148T130 202T130 243Q130 260 130 287T130 347T129 414T127 480T123 534T117 570Q109 595 89 602T53 612Q48 613 46 616T43 624Q43 632 48 633T60 635Q83 634 113 634T182 633Q195 633 211 633T245 634T279 634T309 635Q315 635 323 634T331 624Q331 614 323 613T308 610Q290 609 278 603T259 588T248 572T244 559Q241 545 239 517T236 455T235 391T235 343Q235 330 235 307T235 256T237 199T239 142T243 95T248 65Q255 45 269 35T308 20Q321 18 324 16T328 8Q328 -2 319 -3T307 -5Q302 -5 298 -5T291 -4Q279 -3 265 -2T236 -1T211 0T193 0Q173 0 158 0T129 0T103 -2T74 -4H68ZM164 694Q153 686 150 684T141 681Q134 681 130 686T126 696Q126 701 128 704T139 719L204 813Q209 820 216 830T232 849T251 864T273 870Q286 870 299 860T312 832Q312 827 311 822T304 810T287 791T254 764L164 694Z"  />
<glyph unicode="&#xCE;" horiz-adv-x="365" d="M68 -4Q50 -4 50 8Q50 15 55 16T84 21Q96 22 103 27T115 39T122 51T125 60Q127 72 128 96T129 148T130 202T130 243Q130 260 130 287T130 347T129 414T127 480T123 534T117 570Q109 595 89 602T53 612Q48 613 46 616T43 624Q43 632 48 633T60 635Q83 634 113 634T182 633Q195 633 211 633T245 634T279 634T309 635Q315 635 323 634T331 624Q331 614 323 613T308 610Q290 609 278 603T259 588T248 572T244 559Q241 545 239 517T236 455T235 391T235 343Q235 330 235 307T235 256T237 199T239 142T243 95T248 65Q255 45 269 35T308 20Q321 18 324 16T328 8Q328 -2 319 -3T307 -5Q302 -5 298 -5T291 -4Q279 -3 265 -2T236 -1T211 0T193 0Q173 0 158 0T129 0T103 -2T74 -4H68ZM220 873L305 709Q311 698 312 695T314 691Q314 686 310 686T286 685L182 789L81 685H65Q60 685 56 685T51 691Q51 694 52 696T59 709L146 873H220Z"  />
<glyph unicode="&#xCF;" horiz-adv-x="365" d="M68 -4Q50 -4 50 8Q50 15 55 16T84 21Q96 22 103 27T115 39T122 51T125 60Q127 72 128 96T129 148T130 202T130 243Q130 260 130 287T130 347T129 414T127 480T123 534T117 570Q109 595 89 602T53 612Q48 613 46 616T43 624Q43 632 48 633T60 635Q83 634 113 634T182 633Q195 633 211 633T245 634T279 634T309 635Q315 635 323 634T331 624Q331 614 323 613T308 610Q290 609 278 603T259 588T248 572T244 559Q241 545 239 517T236 455T235 391T235 343Q235 330 235 307T235 256T237 199T239 142T243 95T248 65Q255 45 269 35T308 20Q321 18 324 16T328 8Q328 -2 319 -3T307 -5Q302 -5 298 -5T291 -4Q279 -3 265 -2T236 -1T211 0T193 0Q173 0 158 0T129 0T103 -2T74 -4H68ZM84 817Q106 817 121 802T137 764Q137 742 122 727T84 712Q63 712 48 727T32 764Q32 787 47 802T84 817ZM281 817Q302 817 317 802T333 764Q333 742 318 727T281 712Q259 712 244 727T228 764Q228 787 243 802T281 817Z"  />
<glyph unicode="&#xD0;" horiz-adv-x="781" d="M357 637Q416 637 467 627T560 598Q598 580 630 553T686 488T723 406T736 307Q736 256 719 200T660 96T550 18T378 -13Q368 -13 360 -13T337 -11T299 -8T231 -3Q224 -3 213 -3T190 -2T167 -1T149 -1Q142 -1 126 -1T93 -3Q76 -4 61 -5T39 -6Q31 -6 25 -5T19 4Q19 13 25 15T48 18Q81 20 96 32T120 63Q126 75 128 98T132 152T135 222T137 301H55V334H137Q138 384 138 427T137 506T130 565T115 601Q105 612 92 615T65 619Q62 619 58 620T54 630Q54 638 60 640T73 642Q82 642 98 641T131 639T161 636T177 635Q206 635 254 636T357 637ZM253 56Q271 36 295 27T361 17Q414 17 458 37T535 95T585 184T603 300Q603 324 599 359T582 432T544 508T476 574Q466 581 454 587T423 598T381 606T323 609Q316 609 305 609T283 608T264 603T254 595Q252 586 251 563T248 505T246 427T242 334H415V301H242Q240 253 238 213T236 141T239 89T253 56Z"  />
<glyph unicode="&#xD1;" horiz-adv-x="760" d="M198 633Q229 596 252 569T296 518T335 473T376 426T426 369T492 294Q511 272 525 257T550 228T573 202T598 172Q598 196 598 230T599 299T600 367T601 420Q601 462 600 495T589 551T560 587T503 606Q483 608 479 610T474 617Q474 628 483 629T496 631Q507 631 533 631T588 632T643 633T679 634Q701 634 714 634T734 633T743 629T745 622Q745 614 739 613T729 611Q693 608 674 595T646 561T636 518T634 472Q634 402 634 345T634 234T632 129T629 19Q629 5 626 1T618 -4Q615 -4 612 -3T597 10Q531 85 473 150T365 273T271 382T187 481L185 479Q185 458 185 427T186 358T188 282T192 206T197 139T204 91Q211 63 232 46T296 25Q304 24 310 22T317 12Q317 3 309 2T293 0Q286 0 266 0T223 2T181 3T157 4Q152 4 139 4T111 2T83 1T64 0Q60 0 51 1T41 12Q41 20 50 22T69 24Q97 25 114 34T141 59T153 97T156 145Q156 160 156 188T155 251T153 325T151 396T149 455T145 491Q141 514 130 534T104 570T76 595T52 607Q32 611 28 613T23 622Q23 630 29 631T65 633H198ZM325 818Q333 818 348 815T395 794Q434 771 454 771Q472 771 479 783T491 806Q493 810 496 814T509 818Q522 818 522 804Q522 802 521 786T511 750T485 714T437 698Q429 698 415 700T377 716Q360 725 350 730T334 739T323 743T313 744Q293 744 285 732T273 711Q271 706 268 703T255 699Q244 699 242 704T240 715Q240 736 246 754T264 787T291 810T325 818Z"  />
<glyph unicode="&#xD2;" horiz-adv-x="740" d="M41 311Q41 378 67 438T138 545T245 619T378 647Q450 647 509 622T610 553T676 452T699 331Q699 267 675 205T606 95T499 17T359 -13Q286 -13 227 13T127 83T64 186T41 311ZM566 317Q566 388 551 444T508 538T446 597T370 617Q329 617 294 597T232 539T190 444T174 317Q174 246 189 191T230 97T293 38T370 17Q410 17 446 37T508 95T550 189T566 317ZM319 764Q298 780 287 791T269 809T262 822T261 832Q261 849 274 859T300 870Q311 870 321 864T340 849T356 830T369 813L434 719Q442 708 444 705T447 696Q447 692 443 687T432 681Q427 681 424 683T409 694L319 764H319Z"  />
<glyph unicode="&#xD3;" horiz-adv-x="740" d="M41 311Q41 378 67 438T138 545T245 619T378 647Q450 647 509 622T610 553T676 452T699 331Q699 267 675 205T606 95T499 17T359 -13Q286 -13 227 13T127 83T64 186T41 311ZM566 317Q566 388 551 444T508 538T446 597T370 617Q329 617 294 597T232 539T190 444T174 317Q174 246 189 191T230 97T293 38T370 17Q410 17 446 37T508 95T550 189T566 317ZM352 694Q341 686 338 684T329 681Q322 681 318 686T314 696Q314 701 316 704T327 719L392 813Q397 820 404 830T420 849T439 864T461 870Q474 870 487 860T500 832Q500 827 499 822T492 810T475 791T442 764L352 694Z"  />
<glyph unicode="&#xD4;" horiz-adv-x="740" d="M41 311Q41 378 67 438T138 545T245 619T378 647Q450 647 509 622T610 553T676 452T699 331Q699 267 675 205T606 95T499 17T359 -13Q286 -13 227 13T127 83T64 186T41 311ZM566 317Q566 388 551 444T508 538T446 597T370 617Q329 617 294 597T232 539T190 444T174 317Q174 246 189 191T230 97T293 38T370 17Q410 17 446 37T508 95T550 189T566 317ZM408 873L493 709Q499 698 500 695T502 691Q502 686 498 686T474 685L370 789L269 685H253Q248 685 244 685T239 691Q239 694 240 696T247 709L334 873H408Z"  />
<glyph unicode="&#xD5;" horiz-adv-x="740" d="M41 311Q41 378 67 438T138 545T245 619T378 647Q450 647 509 622T610 553T676 452T699 331Q699 267 675 205T606 95T499 17T359 -13Q286 -13 227 13T127 83T64 186T41 311ZM566 317Q566 388 551 444T508 538T446 597T370 617Q329 617 294 597T232 539T190 444T174 317Q174 246 189 191T230 97T293 38T370 17Q410 17 446 37T508 95T550 189T566 317ZM315 818Q323 818 338 815T385 794Q424 771 444 771Q462 771 469 783T481 806Q483 810 486 814T499 818Q512 818 512 804Q512 802 511 786T501 750T475 714T427 698Q419 698 405 700T367 716Q350 725 340 730T324 739T313 743T303 744Q283 744 275 732T263 711Q261 706 258 703T245 699Q234 699 232 704T230 715Q230 736 236 754T254 787T281 810T315 818Z"  />
<glyph unicode="&#xD6;" horiz-adv-x="740" d="M41 311Q41 378 67 438T138 545T245 619T378 647Q450 647 509 622T610 553T676 452T699 331Q699 267 675 205T606 95T499 17T359 -13Q286 -13 227 13T127 83T64 186T41 311ZM566 317Q566 388 551 444T508 538T446 597T370 617Q329 617 294 597T232 539T190 444T174 317Q174 246 189 191T230 97T293 38T370 17Q410 17 446 37T508 95T550 189T566 317ZM272 817Q294 817 309 802T325 764Q325 742 310 727T272 712Q251 712 236 727T220 764Q220 787 235 802T272 817ZM469 817Q490 817 505 802T521 764Q521 742 506 727T469 712Q447 712 432 727T416 764Q416 787 431 802T469 817Z"  />
<glyph unicode="&#xD7;" horiz-adv-x="667" d="M537 533L574 495L370 291L572 89L535 52L333 254L132 52L95 89L296 291L93 495L130 533L333 328L537 533Z"  />
<glyph unicode="&#xD8;" horiz-adv-x="740" d="M87 -25L63 -4L134 76Q106 104 88 136T60 201T45 261T41 311Q41 377 67 438T138 545T244 619T378 647Q416 647 447 641T503 624T547 602T581 579L650 656L673 637L604 559Q654 511 676 451T699 331Q699 267 675 205T606 95T499 17T359 -13Q342 -13 319 -11T270 -2T215 18T158 54L87 -25ZM216 121Q224 108 236 90T267 56T311 29T370 17Q410 17 445 37T508 95T550 189T566 317Q566 360 560 401T537 483L216 121ZM523 513Q514 530 500 548T468 582T425 607T370 617Q327 617 291 596T229 535T189 441T174 320Q174 264 183 219T202 152L523 513Z"  />
<glyph unicode="&#xD9;" horiz-adv-x="802" d="M320 636Q339 636 349 635T360 624Q360 616 354 615T338 612Q308 609 292 592T268 539T259 448T258 313Q258 274 259 240T264 177T278 125T306 85Q321 70 339 61T375 46T412 38T447 35Q466 35 493 39T547 56T595 97T624 169Q634 230 635 291T637 415Q637 461 635 496T625 556T600 595T554 611Q540 613 535 614T529 624Q529 633 536 634T548 636H746Q752 636 760 634T769 624Q769 616 762 614T749 612Q723 610 709 595T687 558T678 511T676 463Q674 363 673 304T669 209T663 156T652 120Q642 95 625 72T579 30T506 0T399 -12Q351 -12 303 -2T215 35Q198 47 186 61T166 94T153 141T149 208L150 383Q150 445 148 483T143 543T134 575T122 592Q119 596 116 598T108 602T94 606T69 611Q60 613 56 615T52 624Q52 633 59 634T70 636Q97 635 122 635T164 634L320 636ZM350 764Q329 780 318 791T300 809T293 822T292 832Q292 849 305 859T331 870Q342 870 352 864T371 849T387 830T400 813L465 719Q473 708 475 705T478 696Q478 692 474 687T463 681Q458 681 455 683T440 694L350 764H350Z"  />
<glyph unicode="&#xDA;" horiz-adv-x="802" d="M320 636Q339 636 349 635T360 624Q360 616 354 615T338 612Q308 609 292 592T268 539T259 448T258 313Q258 274 259 240T264 177T278 125T306 85Q321 70 339 61T375 46T412 38T447 35Q466 35 493 39T547 56T595 97T624 169Q634 230 635 291T637 415Q637 461 635 496T625 556T600 595T554 611Q540 613 535 614T529 624Q529 633 536 634T548 636H746Q752 636 760 634T769 624Q769 616 762 614T749 612Q723 610 709 595T687 558T678 511T676 463Q674 363 673 304T669 209T663 156T652 120Q642 95 625 72T579 30T506 0T399 -12Q351 -12 303 -2T215 35Q198 47 186 61T166 94T153 141T149 208L150 383Q150 445 148 483T143 543T134 575T122 592Q119 596 116 598T108 602T94 606T69 611Q60 613 56 615T52 624Q52 633 59 634T70 636Q97 635 122 635T164 634L320 636ZM403 694Q392 686 389 684T380 681Q373 681 369 686T365 696Q365 701 367 704T378 719L443 813Q448 820 455 830T471 849T490 864T512 870Q525 870 538 860T551 832Q551 827 550 822T543 810T526 791T493 764L403 694Z"  />
<glyph unicode="&#xDB;" horiz-adv-x="802" d="M320 636Q339 636 349 635T360 624Q360 616 354 615T338 612Q308 609 292 592T268 539T259 448T258 313Q258 274 259 240T264 177T278 125T306 85Q321 70 339 61T375 46T412 38T447 35Q466 35 493 39T547 56T595 97T624 169Q634 230 635 291T637 415Q637 461 635 496T625 556T600 595T554 611Q540 613 535 614T529 624Q529 633 536 634T548 636H746Q752 636 760 634T769 624Q769 616 762 614T749 612Q723 610 709 595T687 558T678 511T676 463Q674 363 673 304T669 209T663 156T652 120Q642 95 625 72T579 30T506 0T399 -12Q351 -12 303 -2T215 35Q198 47 186 61T166 94T153 141T149 208L150 383Q150 445 148 483T143 543T134 575T122 592Q119 596 116 598T108 602T94 606T69 611Q60 613 56 615T52 624Q52 633 59 634T70 636Q97 635 122 635T164 634L320 636ZM459 873L544 709Q550 698 551 695T553 691Q553 686 549 686T525 685L421 789L320 685H304Q299 685 295 685T290 691Q290 694 291 696T298 709L385 873H459Z"  />
<glyph unicode="&#xDC;" horiz-adv-x="802" d="M320 636Q339 636 349 635T360 624Q360 616 354 615T338 612Q308 609 292 592T268 539T259 448T258 313Q258 274 259 240T264 177T278 125T306 85Q321 70 339 61T375 46T412 38T447 35Q466 35 493 39T547 56T595 97T624 169Q634 230 635 291T637 415Q637 461 635 496T625 556T600 595T554 611Q540 613 535 614T529 624Q529 633 536 634T548 636H746Q752 636 760 634T769 624Q769 616 762 614T749 612Q723 610 709 595T687 558T678 511T676 463Q674 363 673 304T669 209T663 156T652 120Q642 95 625 72T579 30T506 0T399 -12Q351 -12 303 -2T215 35Q198 47 186 61T166 94T153 141T149 208L150 383Q150 445 148 483T143 543T134 575T122 592Q119 596 116 598T108 602T94 606T69 611Q60 613 56 615T52 624Q52 633 59 634T70 636Q97 635 122 635T164 634L320 636ZM323 817Q345 817 360 802T376 764Q376 742 361 727T323 712Q302 712 287 727T271 764Q271 787 286 802T323 817ZM520 817Q541 817 556 802T572 764Q572 742 557 727T520 712Q498 712 483 727T467 764Q467 787 482 802T520 817Z"  />
<glyph unicode="&#xDD;" horiz-adv-x="740" d="M685 630Q702 630 712 629T722 618Q722 612 718 611T693 606Q675 603 660 598T628 577T589 535T535 464Q527 453 513 433T483 390T456 349T440 322Q437 315 436 295T434 252T433 206T433 172Q433 124 435 95T444 49T467 27T508 18Q519 17 524 16T529 6Q529 -2 518 -3T504 -5Q502 -5 482 -5T437 -2Q412 0 391 0T366 0Q359 0 342 -1T306 -3Q287 -4 273 -5T256 -7Q249 -7 243 -5T236 5Q236 12 240 13T248 14Q276 14 292 25T316 54T326 94T328 140Q328 147 327 166T325 207T321 247T317 271Q306 292 289 318T260 365Q243 394 221 430T175 500T128 560T85 596Q82 597 80 598T74 601T62 605T42 610Q38 611 37 614T35 619Q35 627 41 628T63 630H294Q319 630 324 629T330 619Q330 613 326 611T305 606Q276 601 267 591T257 569Q257 563 258 558T266 542T283 516T313 471Q317 465 326 452T346 423T366 395T379 376L406 338Q419 354 435 377T469 424T500 469T524 504Q534 520 542 536T551 566Q551 577 546 584T533 595T515 601T496 606Q479 610 476 611T473 618Q473 627 480 628T504 630H685ZM352 694Q341 686 338 684T329 681Q322 681 318 686T314 696Q314 701 316 704T327 719L392 813Q397 820 404 830T420 849T439 864T461 870Q474 870 487 860T500 832Q500 827 499 822T492 810T475 791T442 764L352 694Z"  />
<glyph unicode="&#xDE;" horiz-adv-x="625" d="M65 0Q60 0 51 1T42 10Q42 18 48 20T70 27Q87 31 96 39T111 58T117 80T120 103Q121 121 122 147T123 203T124 262T125 316T126 359T126 382Q126 395 126 421T126 475T124 527T122 562Q120 578 114 587T98 602T77 611T52 616Q42 618 42 627Q42 633 48 636T69 640H293Q304 640 311 639T319 629Q319 620 311 618T296 615Q234 607 234 537V507H347Q357 507 374 507T410 504T450 498T489 485Q535 465 557 426T580 342Q580 298 564 268T521 219T463 188T401 173T346 167T308 166Q268 166 228 169Q228 131 229 106T237 64T255 39T289 26Q310 22 315 21T320 12Q320 3 312 2T296 0H65ZM228 194Q238 193 252 193T284 192Q330 192 355 201T399 222Q433 245 446 282T460 354Q460 402 442 427T400 465T353 479T320 481Q286 481 268 479T233 473Q233 463 233 442T232 393T231 336T230 277T229 227T228 194Z"  />
<glyph unicode="&#xDF;" horiz-adv-x="531" d="M53 -1Q36 -1 29 0T21 10Q21 18 27 19T39 21Q52 22 65 30T86 48Q90 54 92 64T95 94Q95 106 95 129T95 183T94 245T94 307T93 360T93 394Q93 476 103 527T146 615Q167 638 202 651T275 665Q309 665 340 656T395 628T433 583T447 523Q447 490 435 468T403 432T362 409T322 395V393Q338 391 366 384T423 356T471 299T492 199Q492 156 479 120T443 56T389 14T320 -1Q293 -1 278 7T255 27T245 48T243 63Q243 80 254 92T283 104Q287 104 294 102T308 95T321 81T329 55Q331 44 333 36T348 28Q366 28 376 42T391 75T397 114T398 144Q398 226 388 272T359 342T318 371T269 380Q255 382 249 383T242 393Q242 402 250 404T267 407Q287 409 304 415T333 436T351 472T358 527Q358 534 357 552T347 589T321 624T270 639Q235 639 217 622T190 577T180 517T178 453Q178 439 178 407T178 333T178 246T179 161T181 93T183 56Q185 44 192 34T214 22Q221 20 225 19T229 10Q229 2 223 1T199 -1H53Z"  />
<glyph unicode="&#xE0;" horiz-adv-x="448" d="M423 26Q436 26 436 16Q436 10 429 6T409 -2T381 -6T351 -8Q324 -8 309 -6T286 3T276 21T273 48Q267 41 257 31T231 12T195 -5T149 -12Q98 -12 66 17T33 91Q33 115 42 134T65 167T98 191T135 208Q173 221 195 229T231 243T250 255T263 270Q270 281 271 293T273 313Q273 353 254 373T203 394Q186 394 176 389T159 376T150 358T145 337Q143 329 141 320T133 302T119 289T96 283Q78 283 65 297T52 326Q52 363 93 390T210 418Q258 418 287 408T333 381T356 341T362 295Q362 287 362 267T361 225T360 184T359 157Q359 115 362 89T370 49T383 29T401 24L423 26ZM270 241Q261 233 254 228T237 216T211 200T168 176Q163 173 157 167T143 152T132 130T127 104Q127 75 143 51T184 27Q199 27 214 34T240 52Q263 72 267 100T272 171Q272 197 272 212T270 241ZM153 544Q132 560 121 571T103 589T96 602T95 612Q95 629 108 639T134 650Q145 650 155 644T174 629T190 610T203 593L268 499Q276 488 278 485T281 476Q281 472 277 467T266 461Q261 461 258 463T243 474L153 544H153Z"  />
<glyph unicode="&#xE1;" horiz-adv-x="448" d="M423 26Q436 26 436 16Q436 10 429 6T409 -2T381 -6T351 -8Q324 -8 309 -6T286 3T276 21T273 48Q267 41 257 31T231 12T195 -5T149 -12Q98 -12 66 17T33 91Q33 115 42 134T65 167T98 191T135 208Q173 221 195 229T231 243T250 255T263 270Q270 281 271 293T273 313Q273 353 254 373T203 394Q186 394 176 389T159 376T150 358T145 337Q143 329 141 320T133 302T119 289T96 283Q78 283 65 297T52 326Q52 363 93 390T210 418Q258 418 287 408T333 381T356 341T362 295Q362 287 362 267T361 225T360 184T359 157Q359 115 362 89T370 49T383 29T401 24L423 26ZM270 241Q261 233 254 228T237 216T211 200T168 176Q163 173 157 167T143 152T132 130T127 104Q127 75 143 51T184 27Q199 27 214 34T240 52Q263 72 267 100T272 171Q272 197 272 212T270 241ZM191 474Q180 466 177 464T168 461Q161 461 157 466T153 476Q153 481 155 484T166 499L231 593Q236 600 243 610T259 629T278 644T300 650Q313 650 326 640T339 612Q339 607 338 602T331 590T314 571T281 544L191 474Z"  />
<glyph unicode="&#xE2;" horiz-adv-x="448" d="M423 26Q436 26 436 16Q436 10 429 6T409 -2T381 -6T351 -8Q324 -8 309 -6T286 3T276 21T273 48Q267 41 257 31T231 12T195 -5T149 -12Q98 -12 66 17T33 91Q33 115 42 134T65 167T98 191T135 208Q173 221 195 229T231 243T250 255T263 270Q270 281 271 293T273 313Q273 353 254 373T203 394Q186 394 176 389T159 376T150 358T145 337Q143 329 141 320T133 302T119 289T96 283Q78 283 65 297T52 326Q52 363 93 390T210 418Q258 418 287 408T333 381T356 341T362 295Q362 287 362 267T361 225T360 184T359 157Q359 115 362 89T370 49T383 29T401 24L423 26ZM270 241Q261 233 254 228T237 216T211 200T168 176Q163 173 157 167T143 152T132 130T127 104Q127 75 143 51T184 27Q199 27 214 34T240 52Q263 72 267 100T272 171Q272 197 272 212T270 241ZM262 653L347 489Q353 478 354 475T356 471Q356 466 352 466T328 465L224 569L123 465H107Q102 465 98 465T93 471Q93 474 94 476T101 489L188 653H262Z"  />
<glyph unicode="&#xE3;" horiz-adv-x="448" d="M423 26Q436 26 436 16Q436 10 429 6T409 -2T381 -6T351 -8Q324 -8 309 -6T286 3T276 21T273 48Q267 41 257 31T231 12T195 -5T149 -12Q98 -12 66 17T33 91Q33 115 42 134T65 167T98 191T135 208Q173 221 195 229T231 243T250 255T263 270Q270 281 271 293T273 313Q273 353 254 373T203 394Q186 394 176 389T159 376T150 358T145 337Q143 329 141 320T133 302T119 289T96 283Q78 283 65 297T52 326Q52 363 93 390T210 418Q258 418 287 408T333 381T356 341T362 295Q362 287 362 267T361 225T360 184T359 157Q359 115 362 89T370 49T383 29T401 24L423 26ZM270 241Q261 233 254 228T237 216T211 200T168 176Q163 173 157 167T143 152T132 130T127 104Q127 75 143 51T184 27Q199 27 214 34T240 52Q263 72 267 100T272 171Q272 197 272 212T270 241ZM169 598Q177 598 192 595T239 574Q278 551 298 551Q316 551 323 563T335 586Q337 590 340 594T353 598Q366 598 366 584Q366 582 365 566T355 530T329 494T281 478Q273 478 259 480T221 496Q204 505 194 510T178 519T167 523T157 524Q137 524 129 512T117 491Q115 486 112 483T99 479Q88 479 86 484T84 495Q84 516 90 534T108 567T135 590T169 598Z"  />
<glyph unicode="&#xE4;" horiz-adv-x="448" d="M423 26Q436 26 436 16Q436 10 429 6T409 -2T381 -6T351 -8Q324 -8 309 -6T286 3T276 21T273 48Q267 41 257 31T231 12T195 -5T149 -12Q98 -12 66 17T33 91Q33 115 42 134T65 167T98 191T135 208Q173 221 195 229T231 243T250 255T263 270Q270 281 271 293T273 313Q273 353 254 373T203 394Q186 394 176 389T159 376T150 358T145 337Q143 329 141 320T133 302T119 289T96 283Q78 283 65 297T52 326Q52 363 93 390T210 418Q258 418 287 408T333 381T356 341T362 295Q362 287 362 267T361 225T360 184T359 157Q359 115 362 89T370 49T383 29T401 24L423 26ZM270 241Q261 233 254 228T237 216T211 200T168 176Q163 173 157 167T143 152T132 130T127 104Q127 75 143 51T184 27Q199 27 214 34T240 52Q263 72 267 100T272 171Q272 197 272 212T270 241ZM126 597Q148 597 163 582T179 544Q179 522 164 507T126 492Q105 492 90 507T74 544Q74 567 89 582T126 597ZM323 597Q344 597 359 582T375 544Q375 522 360 507T323 492Q301 492 286 507T270 544Q270 567 285 582T323 597Z"  />
<glyph unicode="&#xE5;" horiz-adv-x="448" d="M423 26Q436 26 436 16Q436 10 429 6T409 -2T381 -6T351 -8Q324 -8 309 -6T286 3T276 21T273 48Q267 41 257 31T231 12T195 -5T149 -12Q98 -12 66 17T33 91Q33 115 42 134T65 167T98 191T135 208Q173 221 195 229T231 243T250 255T263 270Q270 281 271 293T273 313Q273 353 254 373T203 394Q186 394 176 389T159 376T150 358T145 337Q143 329 141 320T133 302T119 289T96 283Q78 283 65 297T52 326Q52 363 93 390T210 418Q258 418 287 408T333 381T356 341T362 295Q362 287 362 267T361 225T360 184T359 157Q359 115 362 89T370 49T383 29T401 24L423 26ZM270 241Q261 233 254 228T237 216T211 200T168 176Q163 173 157 167T143 152T132 130T127 104Q127 75 143 51T184 27Q199 27 214 34T240 52Q263 72 267 100T272 171Q272 197 272 212T270 241ZM224 638Q258 638 282 615T306 557Q306 523 282 499T224 475Q191 475 167 499T143 557Q143 591 167 614T224 638ZM224 596Q207 596 196 585T185 557Q185 541 196 529T224 517Q241 517 252 528T264 557Q264 574 253 585T224 596Z"  />
<glyph unicode="&#xE6;" horiz-adv-x="677" d="M345 356Q365 377 385 388T424 404T455 410T475 411Q523 411 554 391T604 344T630 288T638 243Q638 235 636 233T624 230Q622 230 600 228T542 223T460 218T361 213Q359 190 360 162T371 104Q385 61 418 39T484 17Q509 17 543 32T614 85Q619 90 621 91T627 93Q630 93 634 91T639 84Q639 78 626 63T589 30T531 0T453 -13Q411 -13 382 -4T332 17T299 43T279 66Q267 56 251 43T213 17T168 -4T119 -13Q83 -13 57 10T31 73Q31 106 48 131T96 176T171 215T267 254Q267 278 266 301T260 344T244 376T211 388Q192 388 180 383T159 372T146 358T138 345Q127 325 120 313T107 294T94 284T77 281Q65 281 58 285T47 296T42 308T40 316Q40 336 59 353T106 384T165 404T219 412Q246 412 265 407T300 393T326 375T345 356ZM361 237Q409 240 449 243T508 250Q529 255 535 262T541 284Q541 292 540 309T531 343T508 374T464 387Q455 387 438 383T404 365Q387 350 374 321T361 237ZM267 228Q222 211 193 197T146 170T121 143T114 114Q114 103 117 90T128 66T146 46T175 38Q196 38 215 49T270 91Q268 101 268 109T267 138V228Z"  />
<glyph unicode="&#xE7;" horiz-adv-x="427" d="M245 -35Q254 -38 264 -42T284 -53T300 -70T307 -96Q307 -124 290 -140T248 -164T197 -174T153 -176Q144 -176 138 -174T132 -164Q132 -157 137 -156T169 -150Q175 -149 184 -148T202 -142T217 -130T223 -112Q223 -99 214 -94T186 -83Q199 -64 212 -42T228 -11Q190 -10 155 4T93 45T50 109T34 194Q34 237 48 278T90 350T155 400T240 419Q260 419 286 414T335 397T375 367T391 324Q391 309 381 296T351 283Q330 283 321 298T303 338Q293 367 277 380T234 393Q210 393 194 383T166 358T149 323T140 286T136 252T135 230Q135 180 146 141T176 76T217 35T263 21Q272 21 287 25T318 39T349 67T371 114Q374 123 376 129T387 135Q393 135 397 131T398 122Q398 104 389 82T361 40T315 6T254 -11L245 -35Z"  />
<glyph unicode="&#xE8;" horiz-adv-x="438" d="M128 225Q127 204 129 170T148 98Q158 77 172 64T201 43T232 32T260 29Q298 29 325 45T378 84Q381 86 384 88T391 90Q396 90 399 87T402 78Q402 74 393 60T364 30T313 2T236 -11Q184 -11 146 7T82 54T44 121T31 196Q31 241 47 281T92 352T157 401T236 419Q273 419 305 405T361 366T397 312T411 249Q411 238 407 234T388 229Q364 229 332 229T266 228T196 227T128 225ZM131 255Q145 254 166 254T205 253Q239 253 261 254T295 259T313 274T318 303Q318 320 312 336T296 365T270 385T235 393Q203 393 183 376T152 336T137 290T131 255ZM168 544Q147 560 136 571T118 589T111 602T110 612Q110 629 123 639T149 650Q160 650 170 644T189 629T205 610T218 593L283 499Q291 488 293 485T296 476Q296 472 292 467T281 461Q276 461 273 463T258 474L168 544H168Z"  />
<glyph unicode="&#xE9;" horiz-adv-x="438" d="M128 225Q127 204 129 170T148 98Q158 77 172 64T201 43T232 32T260 29Q298 29 325 45T378 84Q381 86 384 88T391 90Q396 90 399 87T402 78Q402 74 393 60T364 30T313 2T236 -11Q184 -11 146 7T82 54T44 121T31 196Q31 241 47 281T92 352T157 401T236 419Q273 419 305 405T361 366T397 312T411 249Q411 238 407 234T388 229Q364 229 332 229T266 228T196 227T128 225ZM131 255Q145 254 166 254T205 253Q239 253 261 254T295 259T313 274T318 303Q318 320 312 336T296 365T270 385T235 393Q203 393 183 376T152 336T137 290T131 255ZM201 474Q190 466 187 464T178 461Q171 461 167 466T163 476Q163 481 165 484T176 499L241 593Q246 600 253 610T269 629T288 644T310 650Q323 650 336 640T349 612Q349 607 348 602T341 590T324 571T291 544L201 474Z"  />
<glyph unicode="&#xEA;" horiz-adv-x="438" d="M128 225Q127 204 129 170T148 98Q158 77 172 64T201 43T232 32T260 29Q298 29 325 45T378 84Q381 86 384 88T391 90Q396 90 399 87T402 78Q402 74 393 60T364 30T313 2T236 -11Q184 -11 146 7T82 54T44 121T31 196Q31 241 47 281T92 352T157 401T236 419Q273 419 305 405T361 366T397 312T411 249Q411 238 407 234T388 229Q364 229 332 229T266 228T196 227T128 225ZM131 255Q145 254 166 254T205 253Q239 253 261 254T295 259T313 274T318 303Q318 320 312 336T296 365T270 385T235 393Q203 393 183 376T152 336T137 290T131 255ZM257 653L342 489Q348 478 349 475T351 471Q351 466 347 466T323 465L219 569L118 465H102Q97 465 93 465T88 471Q88 474 89 476T96 489L183 653H257Z"  />
<glyph unicode="&#xEB;" horiz-adv-x="438" d="M128 225Q127 204 129 170T148 98Q158 77 172 64T201 43T232 32T260 29Q298 29 325 45T378 84Q381 86 384 88T391 90Q396 90 399 87T402 78Q402 74 393 60T364 30T313 2T236 -11Q184 -11 146 7T82 54T44 121T31 196Q31 241 47 281T92 352T157 401T236 419Q273 419 305 405T361 366T397 312T411 249Q411 238 407 234T388 229Q364 229 332 229T266 228T196 227T128 225ZM131 255Q145 254 166 254T205 253Q239 253 261 254T295 259T313 274T318 303Q318 320 312 336T296 365T270 385T235 393Q203 393 183 376T152 336T137 290T131 255ZM141 597Q163 597 178 582T194 544Q194 522 179 507T141 492Q120 492 105 507T89 544Q89 567 104 582T141 597ZM338 597Q359 597 374 582T390 544Q390 522 375 507T338 492Q316 492 301 507T285 544Q285 567 300 582T338 597Z"  />
<glyph unicode="&#xEC;" horiz-adv-x="271" d="M177 299Q177 287 177 257T177 194T177 131T177 90Q178 70 179 57T185 37T200 25T228 20Q240 19 246 18T252 8Q252 1 247 -1T237 -3L207 -1Q195 -1 185 -1T170 0Q165 0 147 0T107 -2Q86 -3 67 -4T41 -5Q38 -5 30 -4T21 7Q21 16 29 17T42 20Q48 20 55 21T69 25T82 34T90 52Q91 60 92 77T93 114T94 157T94 197Q94 207 94 233T93 288T89 341T81 370Q76 376 65 379T40 384Q22 387 22 396Q22 404 27 406T46 409L177 417V299ZM75 544Q54 560 43 571T25 589T18 602T17 612Q17 629 30 639T56 650Q67 650 77 644T96 629T112 610T125 593L190 499Q198 488 200 485T203 476Q203 472 199 467T188 461Q183 461 180 463T165 474L75 544H75Z"  />
<glyph unicode="&#xED;" horiz-adv-x="271" d="M177 299Q177 287 177 257T177 194T177 131T177 90Q178 70 179 57T185 37T200 25T228 20Q240 19 246 18T252 8Q252 1 247 -1T237 -3L207 -1Q195 -1 185 -1T170 0Q165 0 147 0T107 -2Q86 -3 67 -4T41 -5Q38 -5 30 -4T21 7Q21 16 29 17T42 20Q48 20 55 21T69 25T82 34T90 52Q91 60 92 77T93 114T94 157T94 197Q94 207 94 233T93 288T89 341T81 370Q76 376 65 379T40 384Q22 387 22 396Q22 404 27 406T46 409L177 417V299ZM103 474Q92 466 89 464T80 461Q73 461 69 466T65 476Q65 481 67 484T78 499L143 593Q148 600 155 610T171 629T190 644T212 650Q225 650 238 640T251 612Q251 607 250 602T243 590T226 571T193 544L103 474Z"  />
<glyph unicode="&#xEE;" horiz-adv-x="271" d="M177 299Q177 287 177 257T177 194T177 131T177 90Q178 70 179 57T185 37T200 25T228 20Q240 19 246 18T252 8Q252 1 247 -1T237 -3L207 -1Q195 -1 185 -1T170 0Q165 0 147 0T107 -2Q86 -3 67 -4T41 -5Q38 -5 30 -4T21 7Q21 16 29 17T42 20Q48 20 55 21T69 25T82 34T90 52Q91 60 92 77T93 114T94 157T94 197Q94 207 94 233T93 288T89 341T81 370Q76 376 65 379T40 384Q22 387 22 396Q22 404 27 406T46 409L177 417V299ZM174 653L259 489Q265 478 266 475T268 471Q268 466 264 466T240 465L136 569L35 465H19Q14 465 10 465T5 471Q5 474 6 476T13 489L100 653H174Z"  />
<glyph unicode="&#xEF;" horiz-adv-x="271" d="M177 299Q177 287 177 257T177 194T177 131T177 90Q178 70 179 57T185 37T200 25T228 20Q240 19 246 18T252 8Q252 1 247 -1T237 -3L207 -1Q195 -1 185 -1T170 0Q165 0 147 0T107 -2Q86 -3 67 -4T41 -5Q38 -5 30 -4T21 7Q21 16 29 17T42 20Q48 20 55 21T69 25T82 34T90 52Q91 60 92 77T93 114T94 157T94 197Q94 207 94 233T93 288T89 341T81 370Q76 376 65 379T40 384Q22 387 22 396Q22 404 27 406T46 409L177 417V299ZM38 597Q60 597 75 582T91 544Q91 522 76 507T38 492Q17 492 2 507T-14 544Q-14 567 1 582T38 597ZM235 597Q256 597 271 582T287 544Q287 522 272 507T235 492Q213 492 198 507T182 544Q182 567 197 582T235 597Z"  />
<glyph unicode="&#xF0;" horiz-adv-x="500" d="M164 666Q176 658 184 653T202 641T222 626T254 602L338 666L354 645L275 583Q313 549 347 507T408 419T451 323T467 226Q467 172 448 129T398 55T327 8T243 -9Q202 -9 165 6T98 48T51 115T33 204Q33 256 51 296T99 364T166 405T241 419Q274 419 296 409T336 387L338 389Q327 419 313 445T284 492T256 529T235 554L148 488L133 509L217 574Q209 583 197 596T167 624L117 666H164ZM130 211Q130 163 140 127T168 68T208 33T253 21Q281 21 302 36T339 76T362 132T370 197Q370 229 362 263T339 325T301 371T248 389Q230 389 209 380T171 349T142 294T130 211Z"  />
<glyph unicode="&#xF1;" horiz-adv-x="521" d="M443 88Q442 50 450 39T473 22Q490 17 494 15T499 7Q499 5 497 0T486 -5Q481 -5 465 -4T430 -2Q412 0 397 0T378 1Q374 1 365 1T344 -2Q333 -3 325 -4T312 -5Q304 -5 301 -1T298 7Q298 15 304 17T314 20Q328 23 339 28T354 48Q357 58 358 85T360 142T361 199T361 239Q361 249 360 272T352 319T330 360T285 378Q265 378 244 367T204 328T174 251T162 129Q162 89 164 68T173 36T188 22T211 18Q216 17 220 15T225 5Q225 -7 214 -7Q211 -7 208 -7T202 -6Q194 -4 183 -3T160 -2T139 -1T126 -1Q121 -1 108 -1T79 -3Q64 -4 51 -5T32 -6Q26 -6 21 -3T15 6Q15 13 21 15T35 19Q59 24 66 33T76 52Q78 64 79 93T82 155T83 219T84 265Q84 326 74 353T36 389Q25 392 22 394T18 403Q18 412 24 413T36 415Q70 415 103 416T157 420Q161 407 163 397T167 377T170 355T171 327H173Q192 357 213 374T255 401T294 413T326 416Q334 416 354 413T395 397T431 357T446 283L443 88ZM205 598Q213 598 228 595T275 574Q314 551 334 551Q352 551 359 563T371 586Q373 590 376 594T389 598Q402 598 402 584Q402 582 401 566T391 530T365 494T317 478Q309 478 295 480T257 496Q240 505 230 510T214 519T203 523T193 524Q173 524 165 512T153 491Q151 486 148 483T135 479Q124 479 122 484T120 495Q120 516 126 534T144 567T171 590T205 598Z"  />
<glyph unicode="&#xF2;" horiz-adv-x="500" d="M27 206Q27 250 44 289T92 357T163 404T251 421Q299 421 338 404T406 358T449 292T465 216Q465 177 450 137T405 65T334 11T242 -10Q196 -10 157 7T89 53T44 121T27 206ZM128 211Q128 172 137 138T161 77T199 36T249 20Q271 20 292 32T331 68T358 124T368 197Q368 227 361 261T338 324T298 372T242 391Q210 391 188 374T153 329T134 271T128 211ZM179 544Q158 560 147 571T129 589T122 602T121 612Q121 629 134 639T160 650Q171 650 181 644T200 629T216 610T229 593L294 499Q302 488 304 485T307 476Q307 472 303 467T292 461Q287 461 284 463T269 474L179 544H179Z"  />
<glyph unicode="&#xF3;" horiz-adv-x="500" d="M27 206Q27 250 44 289T92 357T163 404T251 421Q299 421 338 404T406 358T449 292T465 216Q465 177 450 137T405 65T334 11T242 -10Q196 -10 157 7T89 53T44 121T27 206ZM128 211Q128 172 137 138T161 77T199 36T249 20Q271 20 292 32T331 68T358 124T368 197Q368 227 361 261T338 324T298 372T242 391Q210 391 188 374T153 329T134 271T128 211ZM232 474Q221 466 218 464T209 461Q202 461 198 466T194 476Q194 481 196 484T207 499L272 593Q277 600 284 610T300 629T319 644T341 650Q354 650 367 640T380 612Q380 607 379 602T372 590T355 571T322 544L232 474Z"  />
<glyph unicode="&#xF4;" horiz-adv-x="500" d="M27 206Q27 250 44 289T92 357T163 404T251 421Q299 421 338 404T406 358T449 292T465 216Q465 177 450 137T405 65T334 11T242 -10Q196 -10 157 7T89 53T44 121T27 206ZM128 211Q128 172 137 138T161 77T199 36T249 20Q271 20 292 32T331 68T358 124T368 197Q368 227 361 261T338 324T298 372T242 391Q210 391 188 374T153 329T134 271T128 211ZM288 653L373 489Q379 478 380 475T382 471Q382 466 378 466T354 465L250 569L149 465H133Q128 465 124 465T119 471Q119 474 120 476T127 489L214 653H288Z"  />
<glyph unicode="&#xF5;" horiz-adv-x="500" d="M27 206Q27 250 44 289T92 357T163 404T251 421Q299 421 338 404T406 358T449 292T465 216Q465 177 450 137T405 65T334 11T242 -10Q196 -10 157 7T89 53T44 121T27 206ZM128 211Q128 172 137 138T161 77T199 36T249 20Q271 20 292 32T331 68T358 124T368 197Q368 227 361 261T338 324T298 372T242 391Q210 391 188 374T153 329T134 271T128 211ZM195 598Q203 598 218 595T265 574Q304 551 324 551Q342 551 349 563T361 586Q363 590 366 594T379 598Q392 598 392 584Q392 582 391 566T381 530T355 494T307 478Q299 478 285 480T247 496Q230 505 220 510T204 519T193 523T183 524Q163 524 155 512T143 491Q141 486 138 483T125 479Q114 479 112 484T110 495Q110 516 116 534T134 567T161 590T195 598Z"  />
<glyph unicode="&#xF6;" horiz-adv-x="500" d="M27 206Q27 250 44 289T92 357T163 404T251 421Q299 421 338 404T406 358T449 292T465 216Q465 177 450 137T405 65T334 11T242 -10Q196 -10 157 7T89 53T44 121T27 206ZM128 211Q128 172 137 138T161 77T199 36T249 20Q271 20 292 32T331 68T358 124T368 197Q368 227 361 261T338 324T298 372T242 391Q210 391 188 374T153 329T134 271T128 211ZM152 597Q174 597 189 582T205 544Q205 522 190 507T152 492Q131 492 116 507T100 544Q100 567 115 582T152 597ZM349 597Q370 597 385 582T401 544Q401 522 386 507T349 492Q327 492 312 507T296 544Q296 567 311 582T349 597Z"  />
<glyph unicode="&#xF7;" horiz-adv-x="667" d="M369 495Q369 481 359 470T333 459Q319 459 309 470T298 495Q298 510 308 520T333 530Q348 530 358 520T369 495ZM598 317V265H70V317H598ZM369 88Q369 73 359 63T333 52Q319 52 309 62T298 88Q298 102 308 112T333 123Q348 123 358 113T369 88Z"  />
<glyph unicode="&#xF8;" horiz-adv-x="500" d="M55 -47L36 -30L99 43Q59 78 43 122T27 205Q27 249 44 288T92 357T163 404T251 421Q285 421 319 411T387 376L451 450L470 433L406 358Q438 325 451 287T465 216Q465 177 450 137T405 65T335 11T243 -10Q222 -10 188 -4T119 27L55 -47ZM161 76Q176 50 199 35T249 20Q271 20 292 32T331 68T358 124T368 197Q368 235 361 260T351 294L161 76ZM339 321Q333 332 325 344T305 367T278 384T242 391Q210 391 189 374T154 329T134 271T128 213Q128 181 134 151T149 100L339 321Z"  />
<glyph unicode="&#xF9;" horiz-adv-x="510" d="M428 409Q430 389 431 368T433 326Q433 322 433 305T432 265T431 215T430 165T429 127T428 110Q428 81 430 65T437 40T447 28T461 24Q473 22 477 20T481 10Q481 2 476 1T458 -1H378Q361 -1 353 1T345 15L346 40Q347 47 347 55T346 82Q337 71 323 56T291 26T248 3T194 -7Q155 -7 133 7T99 40T85 80T81 111Q80 121 80 143T80 192T80 248T80 302T80 344T78 366Q76 376 69 378T42 386Q40 387 37 389T33 398Q33 406 39 407T63 409H164V158Q164 143 165 122T173 82T194 50T234 36Q248 36 263 42T291 58T316 83T334 114Q340 128 343 157T347 219T349 283T350 332Q350 363 341 371T314 384Q302 386 298 388T293 397Q293 401 298 403T309 407T323 409T337 409H428ZM184 544Q163 560 152 571T134 589T127 602T126 612Q126 629 139 639T165 650Q176 650 186 644T205 629T221 610T234 593L299 499Q307 488 309 485T312 476Q312 472 308 467T297 461Q292 461 289 463T274 474L184 544H184Z"  />
<glyph unicode="&#xFA;" horiz-adv-x="510" d="M428 409Q430 389 431 368T433 326Q433 322 433 305T432 265T431 215T430 165T429 127T428 110Q428 81 430 65T437 40T447 28T461 24Q473 22 477 20T481 10Q481 2 476 1T458 -1H378Q361 -1 353 1T345 15L346 40Q347 47 347 55T346 82Q337 71 323 56T291 26T248 3T194 -7Q155 -7 133 7T99 40T85 80T81 111Q80 121 80 143T80 192T80 248T80 302T80 344T78 366Q76 376 69 378T42 386Q40 387 37 389T33 398Q33 406 39 407T63 409H164V158Q164 143 165 122T173 82T194 50T234 36Q248 36 263 42T291 58T316 83T334 114Q340 128 343 157T347 219T349 283T350 332Q350 363 341 371T314 384Q302 386 298 388T293 397Q293 401 298 403T309 407T323 409T337 409H428ZM237 474Q226 466 223 464T214 461Q207 461 203 466T199 476Q199 481 201 484T212 499L277 593Q282 600 289 610T305 629T324 644T346 650Q359 650 372 640T385 612Q385 607 384 602T377 590T360 571T327 544L237 474Z"  />
<glyph unicode="&#xFB;" horiz-adv-x="510" d="M428 409Q430 389 431 368T433 326Q433 322 433 305T432 265T431 215T430 165T429 127T428 110Q428 81 430 65T437 40T447 28T461 24Q473 22 477 20T481 10Q481 2 476 1T458 -1H378Q361 -1 353 1T345 15L346 40Q347 47 347 55T346 82Q337 71 323 56T291 26T248 3T194 -7Q155 -7 133 7T99 40T85 80T81 111Q80 121 80 143T80 192T80 248T80 302T80 344T78 366Q76 376 69 378T42 386Q40 387 37 389T33 398Q33 406 39 407T63 409H164V158Q164 143 165 122T173 82T194 50T234 36Q248 36 263 42T291 58T316 83T334 114Q340 128 343 157T347 219T349 283T350 332Q350 363 341 371T314 384Q302 386 298 388T293 397Q293 401 298 403T309 407T323 409T337 409H428ZM293 653L378 489Q384 478 385 475T387 471Q387 466 383 466T359 465L255 569L154 465H138Q133 465 129 465T124 471Q124 474 125 476T132 489L219 653H293Z"  />
<glyph unicode="&#xFC;" horiz-adv-x="510" d="M428 409Q430 389 431 368T433 326Q433 322 433 305T432 265T431 215T430 165T429 127T428 110Q428 81 430 65T437 40T447 28T461 24Q473 22 477 20T481 10Q481 2 476 1T458 -1H378Q361 -1 353 1T345 15L346 40Q347 47 347 55T346 82Q337 71 323 56T291 26T248 3T194 -7Q155 -7 133 7T99 40T85 80T81 111Q80 121 80 143T80 192T80 248T80 302T80 344T78 366Q76 376 69 378T42 386Q40 387 37 389T33 398Q33 406 39 407T63 409H164V158Q164 143 165 122T173 82T194 50T234 36Q248 36 263 42T291 58T316 83T334 114Q340 128 343 157T347 219T349 283T350 332Q350 363 341 371T314 384Q302 386 298 388T293 397Q293 401 298 403T309 407T323 409T337 409H428ZM157 597Q179 597 194 582T210 544Q210 522 195 507T157 492Q136 492 121 507T105 544Q105 567 120 582T157 597ZM354 597Q375 597 390 582T406 544Q406 522 391 507T354 492Q332 492 317 507T301 544Q301 567 316 582T354 597Z"  />
<glyph unicode="&#xFD;" horiz-adv-x="510" d="M239 413Q243 413 248 410T254 399Q254 392 249 391T240 389Q237 389 230 388T214 382T200 370T193 349Q193 335 200 317T214 282Q219 270 231 241T256 180T282 120T298 81Q298 81 304 97T319 137T338 191T357 249T372 301T378 336Q378 357 370 371T326 390Q318 391 312 392T306 401Q306 410 314 411T325 413Q330 413 342 413T368 412L401 410Q406 410 417 410T442 412Q456 412 468 412T485 413Q494 413 496 408T498 400Q498 396 495 394T474 386Q465 382 457 378T441 362T422 331T399 276Q370 193 350 134T315 34T291 -32T276 -73T266 -100T256 -120Q244 -145 230 -171T196 -219T151 -255T95 -269Q61 -269 35 -251T8 -203Q8 -178 24 -162T63 -145Q77 -145 86 -149T102 -160T111 -174T115 -185Q117 -203 119 -210T133 -217Q146 -217 159 -206T185 -176T209 -136T228 -94T240 -59T245 -38Q245 -25 234 8T207 85T170 175T130 264T96 335T75 373Q68 382 60 385T39 390Q35 391 31 393T27 401Q27 403 29 408T39 413Q40 413 45 413T58 411T74 410T88 408L239 413ZM237 474Q226 466 223 464T214 461Q207 461 203 466T199 476Q199 481 201 484T212 499L277 593Q282 600 289 610T305 629T324 644T346 650Q359 650 372 640T385 612Q385 607 384 602T377 590T360 571T327 544L237 474Z"  />
<glyph unicode="&#xFE;" horiz-adv-x="510" d="M168 348H170Q175 354 184 364T208 385T243 402T289 409Q315 409 347 397T407 359T455 294T475 200Q475 146 456 107T406 41T339 3T270 -10Q233 -10 209 0T166 20Q165 -15 165 -51T164 -123Q164 -145 165 -162T172 -192T189 -213T222 -224Q237 -225 237 -236Q237 -247 222 -247Q214 -247 197 -247T159 -245Q139 -244 122 -244T97 -243Q92 -243 81 -243T56 -243T32 -243T16 -243Q11 -243 6 -241T0 -232Q0 -225 5 -223T31 -218Q45 -216 56 -210T73 -177Q76 -159 78 -123T80 -49T81 20T82 57V495Q82 566 78 600T49 639Q28 643 23 645T18 654Q18 663 26 664T52 665H168V348ZM168 171Q168 145 168 129T169 103T171 86T176 72Q183 54 195 44T219 28T243 21T261 19Q264 19 283 21T323 40T361 91T378 191Q378 225 371 257T350 315T315 356T263 371Q228 371 209 354T181 308Q172 279 170 244T168 171Z"  />
<glyph unicode="&#xFF;" horiz-adv-x="510" d="M239 413Q243 413 248 410T254 399Q254 392 249 391T240 389Q237 389 230 388T214 382T200 370T193 349Q193 335 200 317T214 282Q219 270 231 241T256 180T282 120T298 81Q298 81 304 97T319 137T338 191T357 249T372 301T378 336Q378 357 370 371T326 390Q318 391 312 392T306 401Q306 410 314 411T325 413Q330 413 342 413T368 412L401 410Q406 410 417 410T442 412Q456 412 468 412T485 413Q494 413 496 408T498 400Q498 396 495 394T474 386Q465 382 457 378T441 362T422 331T399 276Q370 193 350 134T315 34T291 -32T276 -73T266 -100T256 -120Q244 -145 230 -171T196 -219T151 -255T95 -269Q61 -269 35 -251T8 -203Q8 -178 24 -162T63 -145Q77 -145 86 -149T102 -160T111 -174T115 -185Q117 -203 119 -210T133 -217Q146 -217 159 -206T185 -176T209 -136T228 -94T240 -59T245 -38Q245 -25 234 8T207 85T170 175T130 264T96 335T75 373Q68 382 60 385T39 390Q35 391 31 393T27 401Q27 403 29 408T39 413Q40 413 45 413T58 411T74 410T88 408L239 413ZM157 597Q179 597 194 582T210 544Q210 522 195 507T157 492Q136 492 121 507T105 544Q105 567 120 582T157 597ZM354 597Q375 597 390 582T406 544Q406 522 391 507T354 492Q332 492 317 507T301 544Q301 567 316 582T354 597Z"  />
<glyph unicode="&#x100;" horiz-adv-x="719" d="M371 654Q376 641 389 610T417 545T444 479T462 436Q467 422 477 395T500 334T527 262T554 190T577 130T593 91Q603 67 613 54T635 33T659 23T686 19Q692 18 696 16T701 6Q701 -5 685 -5Q682 -5 668 -5T635 -3Q618 -2 602 -2T579 -1Q574 -1 552 -1T501 -2Q473 -3 448 -3T413 -4Q409 -4 404 -3T398 7Q398 15 403 16T434 22Q453 24 467 33T481 64Q481 71 480 78T474 102T458 152T427 245Q408 245 380 245T322 244T262 243T213 243Q210 237 202 217T186 171T170 121T163 79Q163 63 171 53T191 35T214 25T231 21Q249 17 253 16T258 7Q258 5 256 0T243 -5Q233 -5 210 -5T160 -3Q134 -2 111 -2T79 -1Q76 -1 70 -1T57 -2T43 -2T34 -1Q25 1 25 9Q25 17 31 19T44 24Q67 28 82 38T111 68T137 123T170 212Q196 283 214 333T251 431T290 529T343 654H371ZM316 519Q307 499 294 467T268 400T242 332T223 278Q226 278 236 278T259 279T282 279T298 280Q304 280 320 280T355 279T389 279T413 278Q400 312 391 335T373 383T350 439T316 519ZM508 763V704H206V763H508Z"  />
<glyph unicode="&#x101;" horiz-adv-x="448" d="M423 26Q436 26 436 16Q436 10 429 6T409 -2T381 -6T351 -8Q324 -8 309 -6T286 3T276 21T273 48Q267 41 257 31T231 12T195 -5T149 -12Q98 -12 66 17T33 91Q33 115 42 134T65 167T98 191T135 208Q173 221 195 229T231 243T250 255T263 270Q270 281 271 293T273 313Q273 353 254 373T203 394Q186 394 176 389T159 376T150 358T145 337Q143 329 141 320T133 302T119 289T96 283Q78 283 65 297T52 326Q52 363 93 390T210 418Q258 418 287 408T333 381T356 341T362 295Q362 287 362 267T361 225T360 184T359 157Q359 115 362 89T370 49T383 29T401 24L423 26ZM270 241Q261 233 254 228T237 216T211 200T168 176Q163 173 157 167T143 152T132 130T127 104Q127 75 143 51T184 27Q199 27 214 34T240 52Q263 72 267 100T272 171Q272 197 272 212T270 241ZM375 543V484H73V543H375Z"  />
<glyph unicode="&#x102;" horiz-adv-x="719" d="M371 654Q376 641 389 610T417 545T444 479T462 436Q467 422 477 395T500 334T527 262T554 190T577 130T593 91Q603 67 613 54T635 33T659 23T686 19Q692 18 696 16T701 6Q701 -5 685 -5Q682 -5 668 -5T635 -3Q618 -2 602 -2T579 -1Q574 -1 552 -1T501 -2Q473 -3 448 -3T413 -4Q409 -4 404 -3T398 7Q398 15 403 16T434 22Q453 24 467 33T481 64Q481 71 480 78T474 102T458 152T427 245Q408 245 380 245T322 244T262 243T213 243Q210 237 202 217T186 171T170 121T163 79Q163 63 171 53T191 35T214 25T231 21Q249 17 253 16T258 7Q258 5 256 0T243 -5Q233 -5 210 -5T160 -3Q134 -2 111 -2T79 -1Q76 -1 70 -1T57 -2T43 -2T34 -1Q25 1 25 9Q25 17 31 19T44 24Q67 28 82 38T111 68T137 123T170 212Q196 283 214 333T251 431T290 529T343 654H371ZM316 519Q307 499 294 467T268 400T242 332T223 278Q226 278 236 278T259 279T282 279T298 280Q304 280 320 280T355 279T389 279T413 278Q400 312 391 335T373 383T350 439T316 519ZM358 695Q321 695 296 708T256 742T235 783T228 822Q228 834 232 837T243 840Q251 840 254 838T259 827Q266 799 295 784T360 768Q402 768 427 787T458 829Q459 834 461 836T472 839Q486 839 486 828Q486 826 484 806T469 760T430 715T358 695Z"  />
<glyph unicode="&#x103;" horiz-adv-x="448" d="M423 26Q436 26 436 16Q436 10 429 6T409 -2T381 -6T351 -8Q324 -8 309 -6T286 3T276 21T273 48Q267 41 257 31T231 12T195 -5T149 -12Q98 -12 66 17T33 91Q33 115 42 134T65 167T98 191T135 208Q173 221 195 229T231 243T250 255T263 270Q270 281 271 293T273 313Q273 353 254 373T203 394Q186 394 176 389T159 376T150 358T145 337Q143 329 141 320T133 302T119 289T96 283Q78 283 65 297T52 326Q52 363 93 390T210 418Q258 418 287 408T333 381T356 341T362 295Q362 287 362 267T361 225T360 184T359 157Q359 115 362 89T370 49T383 29T401 24L423 26ZM270 241Q261 233 254 228T237 216T211 200T168 176Q163 173 157 167T143 152T132 130T127 104Q127 75 143 51T184 27Q199 27 214 34T240 52Q263 72 267 100T272 171Q272 197 272 212T270 241ZM225 475Q188 475 163 488T123 522T102 563T95 602Q95 614 99 617T110 620Q118 620 121 618T126 607Q133 579 162 564T227 548Q269 548 294 567T325 609Q326 614 328 616T339 619Q353 619 353 608Q353 606 351 586T336 540T297 495T225 475Z"  />
<glyph unicode="&#x104;" horiz-adv-x="719" d="M371 654Q376 641 389 610T417 545T444 479T462 436Q467 422 477 395T500 334T527 262T554 190T577 130T593 91Q603 67 613 54T635 33T659 23T686 19Q692 18 696 16T701 6Q701 -5 685 -5Q682 -5 668 -5T635 -3Q618 -2 602 -2T579 -1H571Q559 -21 550 -42T541 -88Q541 -97 543 -107T553 -127T571 -143T601 -149Q610 -149 616 -148T627 -145Q629 -144 636 -142T646 -139Q656 -139 656 -150Q656 -156 647 -163T621 -178T585 -189T543 -194Q504 -194 485 -177T466 -132Q466 -94 487 -61T533 -2H501Q473 -3 448 -3T413 -4Q409 -4 404 -3T398 7Q398 15 403 16T434 22Q453 24 467 33T481 64Q481 71 480 78T474 102T458 152T427 245Q408 245 380 245T322 244T262 243T213 243Q210 237 202 217T186 171T170 121T163 79Q163 63 171 53T191 35T214 25T231 21Q249 17 253 16T258 7Q258 5 256 0T243 -5Q233 -5 210 -5T160 -3Q134 -2 111 -2T79 -1Q76 -1 70 -1T57 -2T43 -2T34 -1Q25 1 25 9Q25 17 31 19T44 24Q67 28 82 38T111 68T137 123T170 212Q196 283 214 333T251 431T290 529T343 654H371ZM316 519Q307 499 294 467T268 400T242 332T223 278Q226 278 236 278T259 279T282 279T298 280Q304 280 320 280T355 279T389 279T413 278Q400 312 391 335T373 383T350 439T316 519Z"  />
<glyph unicode="&#x105;" horiz-adv-x="448" d="M423 26Q436 26 436 16Q436 10 429 6T409 -2T381 -6T351 -8H347Q336 -27 329 -46T321 -88Q321 -97 323 -107T333 -127T351 -143T381 -149Q390 -149 396 -148T407 -145Q409 -144 416 -142T426 -139Q436 -139 436 -150Q436 -156 427 -163T401 -178T365 -189T323 -194Q284 -194 265 -177T246 -132Q246 -95 266 -64T310 -6Q285 -1 280 11T273 48Q267 41 257 31T231 12T195 -5T149 -12Q98 -12 66 17T33 91Q33 115 42 134T65 167T98 191T135 208Q173 221 195 229T231 243T250 255T263 270Q270 281 271 293T273 313Q273 353 254 373T203 394Q186 394 176 389T159 376T150 358T145 337Q143 329 141 320T133 302T119 289T96 283Q78 283 65 297T52 326Q52 363 93 390T210 418Q258 418 287 408T333 381T356 341T362 295Q362 287 362 267T361 225T360 184T359 157Q359 115 362 89T370 49T383 29T401 24L423 26ZM270 241Q261 233 254 228T237 216T211 200T168 176Q163 173 157 167T143 152T132 130T127 104Q127 75 143 51T184 27Q199 27 214 34T240 52Q263 72 267 100T272 171Q272 197 272 212T270 241Z"  />
<glyph unicode="&#x106;" horiz-adv-x="646" d="M538 599Q544 603 547 606T554 612T561 620T572 634Q574 636 577 638T584 641Q590 641 592 636T595 626Q596 609 598 585T602 534T605 484T607 444Q607 430 595 430Q590 430 588 433T579 450Q561 487 540 519T492 574T434 610T366 623Q323 623 287 603T225 546T184 455T169 334Q169 247 192 188T251 93T327 42T401 26Q443 26 475 41T532 78T571 122T595 157Q602 169 610 169Q618 169 621 165T625 155Q625 147 609 120T560 63T475 10T355 -14Q287 -14 229 10T128 77T61 180T36 312Q36 379 58 440T121 547T222 621T356 649Q419 649 464 632T538 599ZM347 694Q336 686 333 684T324 681Q317 681 313 686T309 696Q309 701 311 704T322 719L387 813Q392 820 399 830T415 849T434 864T456 870Q469 870 482 860T495 832Q495 827 494 822T487 810T470 791T437 764L347 694Z"  />
<glyph unicode="&#x107;" horiz-adv-x="427" d="M240 419Q260 419 286 414T335 397T375 367T391 324Q391 309 381 296T351 283Q330 283 321 298T303 338Q293 367 277 380T234 393Q210 393 194 383T166 358T149 323T140 286T136 252T135 230Q135 180 146 141T176 76T217 35T263 21Q272 21 287 25T318 39T349 67T371 114Q374 123 376 129T387 135Q393 135 395 131T398 122Q398 104 389 81T359 38T307 3T232 -11Q192 -11 156 3T93 44T50 109T34 194Q34 237 48 278T90 350T155 400T240 419ZM216 474Q205 466 202 464T193 461Q186 461 182 466T178 476Q178 481 180 484T191 499L256 593Q261 600 268 610T284 629T303 644T325 650Q338 650 351 640T364 612Q364 607 363 602T356 590T339 571T306 544L216 474Z"  />
<glyph unicode="&#x108;" horiz-adv-x="646" d="M538 599Q544 603 547 606T554 612T561 620T572 634Q574 636 577 638T584 641Q590 641 592 636T595 626Q596 609 598 585T602 534T605 484T607 444Q607 430 595 430Q590 430 588 433T579 450Q561 487 540 519T492 574T434 610T366 623Q323 623 287 603T225 546T184 455T169 334Q169 247 192 188T251 93T327 42T401 26Q443 26 475 41T532 78T571 122T595 157Q602 169 610 169Q618 169 621 165T625 155Q625 147 609 120T560 63T475 10T355 -14Q287 -14 229 10T128 77T61 180T36 312Q36 379 58 440T121 547T222 621T356 649Q419 649 464 632T538 599ZM395 873L480 709Q486 698 487 695T489 691Q489 686 485 686T461 685L357 789L256 685H240Q235 685 231 685T226 691Q226 694 227 696T234 709L321 873H395Z"  />
<glyph unicode="&#x109;" horiz-adv-x="427" d="M240 419Q260 419 286 414T335 397T375 367T391 324Q391 309 381 296T351 283Q330 283 321 298T303 338Q293 367 277 380T234 393Q210 393 194 383T166 358T149 323T140 286T136 252T135 230Q135 180 146 141T176 76T217 35T263 21Q272 21 287 25T318 39T349 67T371 114Q374 123 376 129T387 135Q393 135 395 131T398 122Q398 104 389 81T359 38T307 3T232 -11Q192 -11 156 3T93 44T50 109T34 194Q34 237 48 278T90 350T155 400T240 419ZM273 653L358 489Q364 478 365 475T367 471Q367 466 363 466T339 465L235 569L134 465H118Q113 465 109 465T104 471Q104 474 105 476T112 489L199 653H273Z"  />
<glyph unicode="&#x10A;" horiz-adv-x="646" d="M538 599Q544 603 547 606T554 612T561 620T572 634Q574 636 577 638T584 641Q590 641 592 636T595 626Q596 609 598 585T602 534T605 484T607 444Q607 430 595 430Q590 430 588 433T579 450Q561 487 540 519T492 574T434 610T366 623Q323 623 287 603T225 546T184 455T169 334Q169 247 192 188T251 93T327 42T401 26Q443 26 475 41T532 78T571 122T595 157Q602 169 610 169Q618 169 621 165T625 155Q625 147 609 120T560 63T475 10T355 -14Q287 -14 229 10T128 77T61 180T36 312Q36 379 58 440T121 547T222 621T356 649Q419 649 464 632T538 599ZM357 817Q379 817 394 802T410 764Q410 742 395 727T357 712Q336 712 321 727T305 764Q305 787 320 802T357 817Z"  />
<glyph unicode="&#x10B;" horiz-adv-x="427" d="M240 419Q260 419 286 414T335 397T375 367T391 324Q391 309 381 296T351 283Q330 283 321 298T303 338Q293 367 277 380T234 393Q210 393 194 383T166 358T149 323T140 286T136 252T135 230Q135 180 146 141T176 76T217 35T263 21Q272 21 287 25T318 39T349 67T371 114Q374 123 376 129T387 135Q393 135 395 131T398 122Q398 104 389 81T359 38T307 3T232 -11Q192 -11 156 3T93 44T50 109T34 194Q34 237 48 278T90 350T155 400T240 419ZM235 597Q257 597 272 582T288 544Q288 522 273 507T235 492Q214 492 199 507T183 544Q183 567 198 582T235 597Z"  />
<glyph unicode="&#x10C;" horiz-adv-x="646" d="M538 599Q544 603 547 606T554 612T561 620T572 634Q574 636 577 638T584 641Q590 641 592 636T595 626Q596 609 598 585T602 534T605 484T607 444Q607 430 595 430Q590 430 588 433T579 450Q561 487 540 519T492 574T434 610T366 623Q323 623 287 603T225 546T184 455T169 334Q169 247 192 188T251 93T327 42T401 26Q443 26 475 41T532 78T571 122T595 157Q602 169 610 169Q618 169 621 165T625 155Q625 147 609 120T560 63T475 10T355 -14Q287 -14 229 10T128 77T61 180T36 312Q36 379 58 440T121 547T222 621T356 649Q419 649 464 632T538 599ZM322 684L237 848Q231 859 230 862T228 866Q228 871 232 871T256 872L360 768L461 872H477Q482 872 486 872T491 866Q491 863 490 861T483 848L396 684H322Z"  />
<glyph unicode="&#x10D;" horiz-adv-x="427" d="M240 419Q260 419 286 414T335 397T375 367T391 324Q391 309 381 296T351 283Q330 283 321 298T303 338Q293 367 277 380T234 393Q210 393 194 383T166 358T149 323T140 286T136 252T135 230Q135 180 146 141T176 76T217 35T263 21Q272 21 287 25T318 39T349 67T371 114Q374 123 376 129T387 135Q393 135 395 131T398 122Q398 104 389 81T359 38T307 3T232 -11Q192 -11 156 3T93 44T50 109T34 194Q34 237 48 278T90 350T155 400T240 419ZM200 464L115 628Q109 639 108 642T106 646Q106 651 110 651T134 652L238 548L339 652H355Q360 652 364 652T369 646Q369 643 368 641T361 628L274 464H200Z"  />
<glyph unicode="&#x10E;" horiz-adv-x="781" d="M356 637Q419 638 469 628T560 598Q598 580 630 553T686 488T723 406T736 307Q736 256 719 200T660 96T550 18T378 -13Q368 -13 360 -13T337 -11T299 -8T231 -3Q224 -3 213 -3T190 -2T167 -1T149 -1Q142 -1 126 -1T93 -3Q76 -4 61 -5T39 -6Q31 -6 25 -5T19 4Q19 13 25 14T48 18Q71 20 85 26T109 42T122 68T129 103Q130 109 131 136T133 201T135 281T137 361T138 425T139 458Q139 514 135 545T121 592T97 612T65 619Q62 619 58 620T54 630Q54 638 60 640T73 642Q79 642 93 641T125 639Q142 638 157 637T177 635Q204 635 252 635T356 637ZM237 138Q236 118 238 97T252 58T289 29T361 17Q414 17 458 37T535 95T585 184T603 300Q603 324 599 359T582 432T544 508T476 574Q466 581 454 587T423 598T381 606T323 609Q316 609 305 609T283 608T264 603T254 595Q252 590 251 558T248 480T244 381T241 278T239 191T237 138ZM290 684L205 848Q199 859 198 862T196 866Q196 871 200 871T224 872L328 768L429 872H445Q450 872 454 872T459 866Q459 863 458 861T451 848L364 684H290Z"  />
<glyph unicode="&#x10F;" horiz-adv-x="510" d="M431 123Q431 96 431 79T435 50T450 31T480 20Q485 18 490 17T495 8Q495 0 487 -1T464 -3H339Q340 9 340 17T341 33T341 50T342 72L340 74Q333 62 324 48T300 21T266 0T217 -9Q181 -9 148 6T90 48T49 111T33 192Q33 231 47 271T87 345T149 398T231 419Q258 419 277 412T310 395T332 374T344 356H346Q346 368 346 406T346 487T344 566T341 611Q336 628 322 634T292 644Q282 646 282 654Q282 662 288 663T309 665H434L431 123ZM134 205Q134 152 145 118T172 63T207 35T242 27Q256 27 274 35T308 65Q324 88 334 126T344 228Q344 241 343 267T332 321Q322 349 301 371T242 393Q206 393 185 374T153 326T138 265T134 205ZM484 622Q484 623 485 629T491 644T506 658T533 665Q559 665 575 646T591 607Q591 580 575 557T538 516T500 490T477 480Q475 480 472 483T468 490Q468 493 470 495T473 498Q490 512 500 522T517 539T525 552T527 564Q527 576 513 584Q500 592 492 598T484 622Z"  />
<glyph unicode="&#x110;" horiz-adv-x="781" d="M357 637Q416 637 467 627T560 598Q598 580 630 553T686 488T723 406T736 307Q736 256 719 200T660 96T550 18T378 -13Q368 -13 360 -13T337 -11T299 -8T231 -3Q224 -3 213 -3T190 -2T167 -1T149 -1Q142 -1 126 -1T93 -3Q76 -4 61 -5T39 -6Q31 -6 25 -5T19 4Q19 13 25 15T48 18Q81 20 96 32T120 63Q126 75 128 98T132 152T135 222T137 301H55V334H137Q138 384 138 427T137 506T130 565T115 601Q105 612 92 615T65 619Q62 619 58 620T54 630Q54 638 60 640T73 642Q82 642 98 641T131 639T161 636T177 635Q206 635 254 636T357 637ZM253 56Q271 36 295 27T361 17Q414 17 458 37T535 95T585 184T603 300Q603 324 599 359T582 432T544 508T476 574Q466 581 454 587T423 598T381 606T323 609Q316 609 305 609T283 608T264 603T254 595Q252 586 251 563T248 505T246 427T242 334H415V301H242Q240 253 238 213T236 141T239 89T253 56Z"  />
<glyph unicode="&#x111;" horiz-adv-x="510" d="M433 498L431 123Q431 96 431 79T435 50T450 31T480 20Q485 18 490 17T495 8Q495 0 487 -1T464 -3H339Q340 9 340 17T341 33T341 50T342 72L340 74Q333 62 324 48T300 21T266 0T217 -9Q181 -9 148 6T90 48T49 111T33 192Q33 231 47 271T87 345T149 398T231 419Q258 419 277 412T310 395T332 374T344 356H346V498H170V531H345Q345 560 344 582T341 611Q336 628 322 634T292 644Q282 646 282 654Q282 662 288 663T309 665H434L433 531H494V498H433ZM134 205Q134 152 145 118T172 63T207 35T242 27Q256 27 274 35T308 65Q324 88 334 126T344 228Q344 241 343 267T332 321Q322 349 301 371T242 393Q206 393 185 374T153 326T138 265T134 205Z"  />
<glyph unicode="&#x112;" horiz-adv-x="656" d="M421 212Q421 207 420 202T410 197Q403 197 401 203T397 215Q391 247 377 266T342 296T293 311T230 316Q230 297 230 264T229 194T231 127T237 79Q242 59 257 48T291 31T328 24T358 22Q419 22 461 36T530 70T571 109T590 138Q598 155 600 158T609 162Q615 162 617 158T619 150Q619 147 616 130T608 90T597 40T584 -8Q526 -8 487 -8T419 -9T369 -9T326 -8Q316 -8 291 -7T237 -4Q209 -2 187 -2T160 -1H43Q35 0 28 1T21 10Q21 17 27 19T61 26Q76 29 87 33T107 51T120 93T125 171Q125 285 125 357T123 472T120 536T115 568Q109 589 88 598T46 612Q38 614 36 616T34 622Q34 631 41 633T53 636Q62 636 83 636T127 634T171 633T200 632L398 633H555Q572 567 578 527T585 485Q585 482 583 478T576 474Q571 474 568 478T562 486Q558 493 550 503T532 525T512 547T492 566Q479 577 466 585T435 598T397 605T348 607Q324 607 308 607T280 605T258 602T237 599Q236 587 235 573T233 532T231 462T230 346Q270 346 297 348T342 358T374 385T399 434Q403 442 405 446T414 451Q417 451 420 449T424 438Q424 428 423 425Q421 393 421 366T420 332L421 212ZM479 763V704H177V763H479Z"  />
<glyph unicode="&#x113;" horiz-adv-x="438" d="M128 225Q127 204 129 170T148 98Q158 77 172 64T201 43T232 32T260 29Q298 29 325 45T378 84Q381 86 384 88T391 90Q396 90 399 87T402 78Q402 74 393 60T364 30T313 2T236 -11Q184 -11 146 7T82 54T44 121T31 196Q31 241 47 281T92 352T157 401T236 419Q273 419 305 405T361 366T397 312T411 249Q411 238 407 234T388 229Q364 229 332 229T266 228T196 227T128 225ZM131 255Q145 254 166 254T205 253Q239 253 261 254T295 259T313 274T318 303Q318 320 312 336T296 365T270 385T235 393Q203 393 183 376T152 336T137 290T131 255ZM387 543V484H85V543H387Z"  />
<glyph unicode="&#x114;" horiz-adv-x="656" d="M421 212Q421 207 420 202T410 197Q403 197 401 203T397 215Q391 247 377 266T342 296T293 311T230 316Q230 297 230 264T229 194T231 127T237 79Q242 59 257 48T291 31T328 24T358 22Q419 22 461 36T530 70T571 109T590 138Q598 155 600 158T609 162Q615 162 617 158T619 150Q619 147 616 130T608 90T597 40T584 -8Q526 -8 487 -8T419 -9T369 -9T326 -8Q316 -8 291 -7T237 -4Q209 -2 187 -2T160 -1H43Q35 0 28 1T21 10Q21 17 27 19T61 26Q76 29 87 33T107 51T120 93T125 171Q125 285 125 357T123 472T120 536T115 568Q109 589 88 598T46 612Q38 614 36 616T34 622Q34 631 41 633T53 636Q62 636 83 636T127 634T171 633T200 632L398 633H555Q572 567 578 527T585 485Q585 482 583 478T576 474Q571 474 568 478T562 486Q558 493 550 503T532 525T512 547T492 566Q479 577 466 585T435 598T397 605T348 607Q324 607 308 607T280 605T258 602T237 599Q236 587 235 573T233 532T231 462T230 346Q270 346 297 348T342 358T374 385T399 434Q403 442 405 446T414 451Q417 451 420 449T424 438Q424 428 423 425Q421 393 421 366T420 332L421 212ZM339 695Q302 695 277 708T237 742T216 783T209 822Q209 834 213 837T224 840Q232 840 235 838T240 827Q247 799 276 784T341 768Q383 768 408 787T439 829Q440 834 442 836T453 839Q467 839 467 828Q467 826 465 806T450 760T411 715T339 695Z"  />
<glyph unicode="&#x115;" horiz-adv-x="438" d="M128 225Q127 204 129 170T148 98Q158 77 172 64T201 43T232 32T260 29Q298 29 325 45T378 84Q381 86 384 88T391 90Q396 90 399 87T402 78Q402 74 393 60T364 30T313 2T236 -11Q184 -11 146 7T82 54T44 121T31 196Q31 241 47 281T92 352T157 401T236 419Q273 419 305 405T361 366T397 312T411 249Q411 238 407 234T388 229Q364 229 332 229T266 228T196 227T128 225ZM131 255Q145 254 166 254T205 253Q239 253 261 254T295 259T313 274T318 303Q318 320 312 336T296 365T270 385T235 393Q203 393 183 376T152 336T137 290T131 255ZM240 475Q203 475 178 488T138 522T117 563T110 602Q110 614 114 617T125 620Q133 620 136 618T141 607Q148 579 177 564T242 548Q284 548 309 567T340 609Q341 614 343 616T354 619Q368 619 368 608Q368 606 366 586T351 540T312 495T240 475Z"  />
<glyph unicode="&#x116;" horiz-adv-x="656" d="M421 212Q421 207 420 202T410 197Q403 197 401 203T397 215Q391 247 377 266T342 296T293 311T230 316Q230 297 230 264T229 194T231 127T237 79Q242 59 257 48T291 31T328 24T358 22Q419 22 461 36T530 70T571 109T590 138Q598 155 600 158T609 162Q615 162 617 158T619 150Q619 147 616 130T608 90T597 40T584 -8Q526 -8 487 -8T419 -9T369 -9T326 -8Q316 -8 291 -7T237 -4Q209 -2 187 -2T160 -1H43Q35 0 28 1T21 10Q21 17 27 19T61 26Q76 29 87 33T107 51T120 93T125 171Q125 285 125 357T123 472T120 536T115 568Q109 589 88 598T46 612Q38 614 36 616T34 622Q34 631 41 633T53 636Q62 636 83 636T127 634T171 633T200 632L398 633H555Q572 567 578 527T585 485Q585 482 583 478T576 474Q571 474 568 478T562 486Q558 493 550 503T532 525T512 547T492 566Q479 577 466 585T435 598T397 605T348 607Q324 607 308 607T280 605T258 602T237 599Q236 587 235 573T233 532T231 462T230 346Q270 346 297 348T342 358T374 385T399 434Q403 442 405 446T414 451Q417 451 420 449T424 438Q424 428 423 425Q421 393 421 366T420 332L421 212ZM337 817Q359 817 374 802T390 764Q390 742 375 727T337 712Q316 712 301 727T285 764Q285 787 300 802T337 817Z"  />
<glyph unicode="&#x117;" horiz-adv-x="438" d="M128 225Q127 204 129 170T148 98Q158 77 172 64T201 43T232 32T260 29Q298 29 325 45T378 84Q381 86 384 88T391 90Q396 90 399 87T402 78Q402 74 393 60T364 30T313 2T236 -11Q184 -11 146 7T82 54T44 121T31 196Q31 241 47 281T92 352T157 401T236 419Q273 419 305 405T361 366T397 312T411 249Q411 238 407 234T388 229Q364 229 332 229T266 228T196 227T128 225ZM131 255Q145 254 166 254T205 253Q239 253 261 254T295 259T313 274T318 303Q318 320 312 336T296 365T270 385T235 393Q203 393 183 376T152 336T137 290T131 255ZM234 597Q256 597 271 582T287 544Q287 522 272 507T234 492Q213 492 198 507T182 544Q182 567 197 582T234 597Z"  />
<glyph unicode="&#x118;" horiz-adv-x="656" d="M421 212Q421 207 420 202T410 197Q403 197 401 203T397 215Q391 247 377 266T342 296T293 311T230 316Q230 297 230 264T229 194T231 127T237 79Q242 59 257 48T291 31T328 24T358 22Q419 22 461 36T530 70T571 109T590 138Q598 155 600 158T609 162Q615 162 617 158T619 150Q619 147 616 130T608 90T597 40T584 -8H530Q519 -27 512 -46T504 -88Q504 -97 506 -107T516 -127T534 -143T564 -149Q573 -149 579 -148T590 -145Q592 -144 599 -142T609 -139Q619 -139 619 -150Q619 -156 610 -163T584 -178T548 -189T506 -194Q467 -194 448 -177T429 -132Q429 -97 448 -66T490 -8Q438 -9 397 -9T326 -8Q316 -8 291 -7T237 -4Q209 -2 187 -2T160 -1H43Q35 0 28 1T21 10Q21 17 27 19T61 26Q76 29 87 33T107 51T120 93T125 171Q125 285 125 357T123 472T120 536T115 568Q109 589 88 598T46 612Q38 614 36 616T34 622Q34 631 41 633T53 636Q62 636 83 636T127 634T171 633T200 632L398 633H555Q572 567 578 527T585 485Q585 482 583 478T576 474Q571 474 568 478T562 486Q558 493 550 503T532 525T512 547T492 566Q479 577 466 585T435 598T397 605T348 607Q324 607 308 607T280 605T258 602T237 599Q236 587 235 573T233 532T231 462T230 346Q270 346 297 348T342 358T374 385T399 434Q403 442 405 446T414 451Q417 451 420 449T424 438Q424 428 423 425Q421 393 421 366T420 332L421 212Z"  />
<glyph unicode="&#x119;" horiz-adv-x="438" d="M128 225Q127 204 129 170T148 98Q158 77 172 64T201 43T232 32T260 29Q298 29 325 45T378 84Q381 86 384 88T391 90Q396 90 399 87T402 78Q402 75 398 68T386 51T364 30T333 10Q319 -13 308 -36T296 -88Q296 -97 298 -107T308 -127T326 -143T356 -149Q365 -149 371 -148T382 -145Q384 -144 391 -142T401 -139Q411 -139 411 -150Q411 -156 402 -163T376 -178T340 -189T298 -194Q259 -194 240 -177T221 -132Q221 -96 241 -64T285 -6Q274 -8 262 -9T236 -11Q184 -11 146 7T82 54T44 121T31 196Q31 241 47 281T92 352T157 401T236 419Q273 419 305 405T361 366T397 312T411 249Q411 238 407 234T388 229Q364 229 332 229T266 228T196 227T128 225ZM131 255Q145 254 166 254T205 253Q239 253 261 254T295 259T313 274T318 303Q318 320 312 336T296 365T270 385T235 393Q203 393 183 376T152 336T137 290T131 255Z"  />
<glyph unicode="&#x11A;" horiz-adv-x="656" d="M421 212Q421 207 420 202T410 197Q403 197 401 203T397 215Q391 247 377 266T342 296T293 311T230 316Q230 297 230 264T229 194T231 127T237 79Q242 59 257 48T291 31T328 24T358 22Q419 22 461 36T530 70T571 109T590 138Q598 155 600 158T609 162Q615 162 617 158T619 150Q619 147 616 130T608 90T597 40T584 -8Q526 -8 487 -8T419 -9T369 -9T326 -8Q316 -8 291 -7T237 -4Q209 -2 187 -2T160 -1H43Q35 0 28 1T21 10Q21 17 27 19T61 26Q76 29 87 33T107 51T120 93T125 171Q125 285 125 357T123 472T120 536T115 568Q109 589 88 598T46 612Q38 614 36 616T34 622Q34 631 41 633T53 636Q62 636 83 636T127 634T171 633T200 632L398 633H555Q572 567 578 527T585 485Q585 482 583 478T576 474Q571 474 568 478T562 486Q558 493 550 503T532 525T512 547T492 566Q479 577 466 585T435 598T397 605T348 607Q324 607 308 607T280 605T258 602T237 599Q236 587 235 573T233 532T231 462T230 346Q270 346 297 348T342 358T374 385T399 434Q403 442 405 446T414 451Q417 451 420 449T424 438Q424 428 423 425Q421 393 421 366T420 332L421 212ZM291 684L206 848Q200 859 199 862T197 866Q197 871 201 871T225 872L329 768L430 872H446Q451 872 455 872T460 866Q460 863 459 861T452 848L365 684H291Z"  />
<glyph unicode="&#x11B;" horiz-adv-x="438" d="M128 225Q127 204 129 170T148 98Q158 77 172 64T201 43T232 32T260 29Q298 29 325 45T378 84Q381 86 384 88T391 90Q396 90 399 87T402 78Q402 74 393 60T364 30T313 2T236 -11Q184 -11 146 7T82 54T44 121T31 196Q31 241 47 281T92 352T157 401T236 419Q273 419 305 405T361 366T397 312T411 249Q411 238 407 234T388 229Q364 229 332 229T266 228T196 227T128 225ZM131 255Q145 254 166 254T205 253Q239 253 261 254T295 259T313 274T318 303Q318 320 312 336T296 365T270 385T235 393Q203 393 183 376T152 336T137 290T131 255ZM196 464L111 628Q105 639 104 642T102 646Q102 651 106 651T130 652L234 548L335 652H351Q356 652 360 652T365 646Q365 643 364 641T357 628L270 464H196Z"  />
<glyph unicode="&#x11C;" horiz-adv-x="771" d="M36 315Q36 388 64 449T140 556T253 626T391 651Q421 651 443 648T487 639T531 623T584 600Q590 598 595 596T607 594Q615 594 619 598T630 613Q634 620 642 620Q650 620 652 615T656 586Q657 578 659 556T664 510T669 466T671 442Q671 434 667 432T660 430Q651 430 647 436T641 447Q626 476 605 506T554 562T487 604T403 621Q339 621 295 591T222 516T182 419T169 321Q169 253 190 197T245 101T322 40T410 18Q436 18 458 25T496 42T525 65T544 88Q550 98 551 109T553 142Q553 178 552 204T541 247T513 273T459 281Q453 281 445 282T437 293Q437 301 443 303T466 307Q482 308 518 308T595 309T673 310T728 311Q736 311 743 309T750 299Q750 288 741 285T725 281Q701 278 689 273T670 257T663 229T661 185Q661 179 661 163T659 128T657 96T655 79Q652 73 629 58T567 28T481 0T381 -12Q324 -12 263 6T152 64T69 166T36 315ZM433 873L518 709Q524 698 525 695T527 691Q527 686 523 686T499 685L395 789L294 685H278Q273 685 269 685T264 691Q264 694 265 696T272 709L359 873H433Z"  />
<glyph unicode="&#x11D;" horiz-adv-x="552" d="M379 372Q411 401 432 413T478 425Q495 425 506 419T525 405T536 387T540 369Q540 354 528 342T498 329Q492 329 480 333T458 356Q450 370 447 375T437 380Q426 380 414 370T393 350Q401 337 408 318T416 269Q416 258 412 234T390 184T339 137T247 112Q235 111 217 109T182 102T152 87T139 61Q139 50 144 43T163 31T204 24T273 21Q318 20 358 17T428 3T476 -31T494 -96Q494 -126 481 -156T438 -211T359 -251T237 -267Q215 -267 181 -265T114 -254T59 -227T35 -174Q35 -149 47 -130T79 -97T123 -71T171 -51V-49Q153 -46 135 -42T102 -30T78 -9T68 25Q68 48 79 64T107 92T141 110T171 121V123Q132 136 111 155T80 194T69 230T67 253Q67 286 81 316T119 369T177 405T250 419Q279 419 300 414T336 401T360 385T375 372H379ZM161 266Q161 207 186 172T250 136Q256 136 268 139T292 153T313 188T322 253Q322 322 300 358T241 394Q211 394 195 375T171 332T162 288T161 266ZM278 -54Q233 -54 202 -64T152 -90T123 -125T114 -162Q114 -188 128 -203T162 -227T205 -238T244 -241Q284 -241 317 -232T375 -208T412 -173T425 -129Q425 -107 414 -93T382 -70T335 -58T278 -54ZM304 653L389 489Q395 478 396 475T398 471Q398 466 394 466T370 465L266 569L165 465H149Q144 465 140 465T135 471Q135 474 136 476T143 489L230 653H304Z"  />
<glyph unicode="&#x11E;" horiz-adv-x="771" d="M36 315Q36 388 64 449T140 556T253 626T391 651Q421 651 443 648T487 639T531 623T584 600Q590 598 595 596T607 594Q615 594 619 598T630 613Q634 620 642 620Q650 620 652 615T656 586Q657 578 659 556T664 510T669 466T671 442Q671 434 667 432T660 430Q651 430 647 436T641 447Q626 476 605 506T554 562T487 604T403 621Q339 621 295 591T222 516T182 419T169 321Q169 253 190 197T245 101T322 40T410 18Q436 18 458 25T496 42T525 65T544 88Q550 98 551 109T553 142Q553 178 552 204T541 247T513 273T459 281Q453 281 445 282T437 293Q437 301 443 303T466 307Q482 308 518 308T595 309T673 310T728 311Q736 311 743 309T750 299Q750 288 741 285T725 281Q701 278 689 273T670 257T663 229T661 185Q661 179 661 163T659 128T657 96T655 79Q652 73 629 58T567 28T481 0T381 -12Q324 -12 263 6T152 64T69 166T36 315ZM392 695Q355 695 330 708T290 742T269 783T262 822Q262 834 266 837T277 840Q285 840 288 838T293 827Q300 799 329 784T394 768Q436 768 461 787T492 829Q493 834 495 836T506 839Q520 839 520 828Q520 826 518 806T503 760T464 715T392 695Z"  />
<glyph unicode="&#x11F;" horiz-adv-x="552" d="M379 372Q411 401 432 413T478 425Q495 425 506 419T525 405T536 387T540 369Q540 354 528 342T498 329Q492 329 480 333T458 356Q450 370 447 375T437 380Q426 380 414 370T393 350Q401 337 408 318T416 269Q416 258 412 234T390 184T339 137T247 112Q235 111 217 109T182 102T152 87T139 61Q139 50 144 43T163 31T204 24T273 21Q318 20 358 17T428 3T476 -31T494 -96Q494 -126 481 -156T438 -211T359 -251T237 -267Q215 -267 181 -265T114 -254T59 -227T35 -174Q35 -149 47 -130T79 -97T123 -71T171 -51V-49Q153 -46 135 -42T102 -30T78 -9T68 25Q68 48 79 64T107 92T141 110T171 121V123Q132 136 111 155T80 194T69 230T67 253Q67 286 81 316T119 369T177 405T250 419Q279 419 300 414T336 401T360 385T375 372H379ZM161 266Q161 207 186 172T250 136Q256 136 268 139T292 153T313 188T322 253Q322 322 300 358T241 394Q211 394 195 375T171 332T162 288T161 266ZM278 -54Q233 -54 202 -64T152 -90T123 -125T114 -162Q114 -188 128 -203T162 -227T205 -238T244 -241Q284 -241 317 -232T375 -208T412 -173T425 -129Q425 -107 414 -93T382 -70T335 -58T278 -54ZM267 475Q230 475 205 488T165 522T144 563T137 602Q137 614 141 617T152 620Q160 620 163 618T168 607Q175 579 204 564T269 548Q311 548 336 567T367 609Q368 614 370 616T381 619Q395 619 395 608Q395 606 393 586T378 540T339 495T267 475Z"  />
<glyph unicode="&#x120;" horiz-adv-x="771" d="M36 315Q36 388 64 449T140 556T253 626T391 651Q421 651 443 648T487 639T531 623T584 600Q590 598 595 596T607 594Q615 594 619 598T630 613Q634 620 642 620Q650 620 652 615T656 586Q657 578 659 556T664 510T669 466T671 442Q671 434 667 432T660 430Q651 430 647 436T641 447Q626 476 605 506T554 562T487 604T403 621Q339 621 295 591T222 516T182 419T169 321Q169 253 190 197T245 101T322 40T410 18Q436 18 458 25T496 42T525 65T544 88Q550 98 551 109T553 142Q553 178 552 204T541 247T513 273T459 281Q453 281 445 282T437 293Q437 301 443 303T466 307Q482 308 518 308T595 309T673 310T728 311Q736 311 743 309T750 299Q750 288 741 285T725 281Q701 278 689 273T670 257T663 229T661 185Q661 179 661 163T659 128T657 96T655 79Q652 73 629 58T567 28T481 0T381 -12Q324 -12 263 6T152 64T69 166T36 315ZM395 817Q417 817 432 802T448 764Q448 742 433 727T395 712Q374 712 359 727T343 764Q343 787 358 802T395 817Z"  />
<glyph unicode="&#x121;" horiz-adv-x="552" d="M379 372Q411 401 432 413T478 425Q495 425 506 419T525 405T536 387T540 369Q540 354 528 342T498 329Q492 329 480 333T458 356Q450 370 447 375T437 380Q426 380 414 370T393 350Q401 337 408 318T416 269Q416 258 412 234T390 184T339 137T247 112Q235 111 217 109T182 102T152 87T139 61Q139 50 144 43T163 31T204 24T273 21Q318 20 358 17T428 3T476 -31T494 -96Q494 -126 481 -156T438 -211T359 -251T237 -267Q215 -267 181 -265T114 -254T59 -227T35 -174Q35 -149 47 -130T79 -97T123 -71T171 -51V-49Q153 -46 135 -42T102 -30T78 -9T68 25Q68 48 79 64T107 92T141 110T171 121V123Q132 136 111 155T80 194T69 230T67 253Q67 286 81 316T119 369T177 405T250 419Q279 419 300 414T336 401T360 385T375 372H379ZM161 266Q161 207 186 172T250 136Q256 136 268 139T292 153T313 188T322 253Q322 322 300 358T241 394Q211 394 195 375T171 332T162 288T161 266ZM278 -54Q233 -54 202 -64T152 -90T123 -125T114 -162Q114 -188 128 -203T162 -227T205 -238T244 -241Q284 -241 317 -232T375 -208T412 -173T425 -129Q425 -107 414 -93T382 -70T335 -58T278 -54ZM259 597Q281 597 296 582T312 544Q312 522 297 507T259 492Q238 492 223 507T207 544Q207 567 222 582T259 597Z"  />
<glyph unicode="&#x122;" horiz-adv-x="771" d="M36 315Q36 388 64 449T140 556T253 626T391 651Q421 651 443 648T487 639T531 623T584 600Q590 598 595 596T607 594Q615 594 619 598T630 613Q634 620 642 620Q650 620 652 615T656 586Q657 578 659 556T664 510T669 466T671 442Q671 434 667 432T660 430Q651 430 647 436T641 447Q626 476 605 506T554 562T487 604T403 621Q339 621 295 591T222 516T182 419T169 321Q169 253 190 197T245 101T322 40T410 18Q436 18 458 25T496 42T525 65T544 88Q550 98 551 109T553 142Q553 178 552 204T541 247T513 273T459 281Q453 281 445 282T437 293Q437 301 443 303T466 307Q482 308 518 308T595 309T673 310T728 311Q736 311 743 309T750 299Q750 288 741 285T725 281Q701 278 689 273T670 257T663 229T661 185Q661 179 661 163T659 128T657 96T655 79Q652 73 629 58T567 28T481 0T381 -12Q324 -12 263 6T152 64T69 166T36 315ZM385 -47Q414 -47 431 -66T449 -113Q449 -145 432 -172T386 -218Q369 -229 357 -234T334 -239Q332 -239 329 -237T326 -231Q326 -225 331 -219T353 -204Q367 -197 379 -187T392 -159Q392 -152 383 -147T364 -134T344 -118T335 -91Q335 -74 346 -61T385 -47Z"  />
<glyph unicode="&#x123;" horiz-adv-x="552" d="M379 372Q411 401 432 413T478 425Q495 425 506 419T525 405T536 387T540 369Q540 354 528 342T498 329Q492 329 480 333T458 356Q450 370 447 375T437 380Q426 380 414 370T393 350Q401 337 408 318T416 269Q416 258 412 234T390 184T339 137T247 112Q235 111 217 109T182 102T152 87T139 61Q139 50 144 43T163 31T204 24T273 21Q318 20 358 17T428 3T476 -31T494 -96Q494 -126 481 -156T438 -211T359 -251T237 -267Q215 -267 181 -265T114 -254T59 -227T35 -174Q35 -149 47 -130T79 -97T123 -71T171 -51V-49Q153 -46 135 -42T102 -30T78 -9T68 25Q68 48 79 64T107 92T141 110T171 121V123Q132 136 111 155T80 194T69 230T67 253Q67 286 81 316T119 369T177 405T250 419Q279 419 300 414T336 401T360 385T375 372H379ZM161 266Q161 207 186 172T250 136Q256 136 268 139T292 153T313 188T322 253Q322 322 300 358T241 394Q211 394 195 375T171 332T162 288T161 266ZM278 -54Q233 -54 202 -64T152 -90T123 -125T114 -162Q114 -188 128 -203T162 -227T205 -238T244 -241Q284 -241 317 -232T375 -208T412 -173T425 -129Q425 -107 414 -93T382 -70T335 -58T278 -54ZM320 530Q320 509 306 495T271 481Q252 481 239 487T216 502T203 523T199 545Q199 575 217 601T260 647T306 677T334 688Q344 688 344 679Q344 672 331 664T306 646Q295 638 282 625T269 592Q269 582 284 575Q295 570 307 559T320 530Z"  />
<glyph unicode="&#x124;" horiz-adv-x="760" d="M452 -4Q438 -4 438 7Q438 13 442 15T460 18Q495 18 507 32T522 66Q524 85 525 116T527 182T528 249T529 303Q518 303 503 303T472 304T440 305T408 306Q363 306 319 304T232 300Q230 280 229 247T228 188Q228 138 228 109T233 63T245 39T270 25Q275 23 288 20T304 15Q308 9 308 6Q308 -1 303 -3T290 -5Q283 -5 266 -5T228 -3Q208 -2 191 -2T165 -1Q158 -1 142 -1T106 -2Q88 -2 72 -3T49 -4Q27 -4 27 6Q27 13 32 15T52 21Q64 24 74 27T92 36T105 51T112 77Q114 95 116 133T121 213T124 294T125 355Q125 371 125 404T123 474T117 541T107 584Q99 599 87 602T47 609Q36 610 34 615T32 622Q32 629 38 630T50 632Q60 632 79 632T123 633T175 634T226 635T269 635T297 636Q299 636 307 635T315 624Q315 617 309 615T282 610Q264 607 254 602T240 589T234 567T233 534Q232 495 232 466T231 415T231 374T232 339Q246 338 259 338T288 337T327 336T381 336Q415 336 438 336T478 337T507 338T529 339Q531 372 532 405T533 474Q533 520 528 547T513 587T488 605T452 611Q447 612 440 614T432 624Q432 632 439 633T452 635Q464 635 492 635T553 634Q585 633 613 633T653 632Q658 632 671 632T699 632T724 632T736 632Q741 631 742 628T744 623Q744 615 738 613T727 611Q690 609 669 596T645 539Q643 517 642 485T640 415T637 336T636 257T635 184T634 126Q634 104 636 86T646 55T669 32T712 20Q721 18 727 17T734 7Q734 2 730 -1T711 -5Q704 -5 686 -5T646 -3Q626 -2 608 -2T581 -1Q568 -1 551 -1T517 -2T485 -3T461 -4H452ZM422 873L507 709Q513 698 514 695T516 691Q516 686 512 686T488 685L384 789L283 685H267Q262 685 258 685T253 691Q253 694 254 696T261 709L348 873H422Z"  />
<glyph unicode="&#x125;" horiz-adv-x="531" d="M442 84Q442 77 442 67T446 48T457 31T478 22Q488 20 494 19T500 9Q500 1 494 0T471 -2H338Q321 -2 313 -1T304 10Q304 16 308 18T330 23Q339 24 345 28T354 48T360 98T362 196Q362 214 361 244T352 305T328 357T281 379Q247 379 223 358T190 315Q185 299 182 272T178 215T176 155T176 103Q176 78 178 63T183 38T193 24T209 17Q223 15 227 13T231 4Q231 -6 217 -6Q213 -6 200 -6T170 -4Q154 -3 140 -3T119 -2Q114 -2 102 -3T76 -4T52 -6T40 -7Q29 -7 29 4Q29 11 32 13T52 19Q57 20 67 25T82 51Q85 64 87 90T90 149T93 220T94 291T95 355T95 400Q95 455 94 491T90 550T83 586T75 608Q66 625 57 629T33 639Q30 641 26 643T22 650Q22 658 30 659T45 661Q75 661 96 661T132 662T158 663T178 665Q178 652 178 627T178 571T178 505T178 439T178 384T178 348Q207 378 236 397T311 417Q360 417 387 398T427 353T442 301T445 259L442 84ZM278 893L363 729Q369 718 370 715T372 711Q372 706 368 706T344 705L240 809L139 705H123Q118 705 114 705T109 711Q109 714 110 716T117 729L204 893H278Z"  />
<glyph unicode="&#x126;" horiz-adv-x="760" d="M640 435Q638 396 637 353T636 268T635 189T634 126Q634 104 636 86T646 55T669 32T712 20Q721 18 727 17T734 7Q734 2 730 -1T711 -5Q704 -5 686 -5T646 -3Q626 -2 608 -2T581 -1Q568 -1 551 -1T517 -2T485 -3T461 -4H452Q438 -4 438 7Q438 13 442 15T460 18Q495 18 507 32T522 66Q524 85 525 116T527 182T528 249T529 303Q518 303 503 303T472 304T440 305T408 306Q363 306 319 304T232 300Q230 280 229 247T228 188Q228 138 228 109T233 63T245 39T270 25Q275 23 288 20T304 15Q308 9 308 6Q308 -1 303 -3T290 -5Q283 -5 266 -5T228 -3Q208 -2 191 -2T165 -1Q158 -1 142 -1T106 -2Q88 -2 72 -3T49 -4Q27 -4 27 6Q27 13 32 15T52 21Q64 24 74 27T92 36T105 51T112 77Q114 95 116 133T121 213T124 294T125 355Q125 366 125 387T124 435H32V468H123Q121 506 118 539T107 584Q99 599 87 602T47 609Q36 610 34 615T32 622Q32 629 38 630T50 632Q60 632 79 632T123 633T175 634T226 635T269 635T297 636Q299 636 307 635T315 624Q315 617 309 615T282 610Q264 607 254 602T240 589T234 567T233 534L231 468H533V474Q533 520 528 547T513 587T488 605T452 611Q447 612 440 614T432 624Q432 632 439 633T452 635Q464 635 492 635T553 634Q585 633 613 633T653 632Q658 632 671 632T699 632T724 632T736 632Q741 631 742 628T744 623Q744 615 738 613T727 611Q690 609 669 596T645 539Q643 525 643 507T641 468H735V435H640ZM533 435H231Q231 406 231 383T232 339Q246 338 259 338T288 337T327 336T381 336Q415 336 438 336T478 337T507 338T529 339L533 435Z"  />
<glyph unicode="&#x127;" horiz-adv-x="531" d="M178 492Q178 444 178 404T178 348Q207 378 236 397T311 417Q360 417 387 398T427 353T442 301T445 259L442 84Q442 77 442 67T446 48T457 31T478 22Q488 20 494 19T500 9Q500 1 494 0T471 -2H338Q321 -2 313 -1T304 10Q304 16 308 18T330 23Q339 24 345 28T354 48T360 98T362 196Q362 214 361 244T352 305T328 357T281 379Q247 379 223 358T190 315Q185 299 182 272T178 215T176 155T176 103Q176 78 178 63T183 38T193 24T209 17Q223 15 227 13T231 4Q231 -6 217 -6Q213 -6 200 -6T170 -4Q154 -3 140 -3T119 -2Q114 -2 102 -3T76 -4T52 -6T40 -7Q29 -7 29 4Q29 11 32 13T52 19Q57 20 67 25T82 51Q85 64 87 90T90 149T93 220T94 291T95 355T95 400Q95 428 95 450T93 492H22V525H92Q89 561 85 579T75 608Q66 625 57 629T33 639Q26 642 26 650Q26 658 32 659T45 661Q75 661 96 661T132 662T158 663T178 665V525H347V492H178Z"  />
<glyph unicode="&#x128;" horiz-adv-x="365" d="M68 -4Q50 -4 50 8Q50 15 55 16T84 21Q96 22 103 27T115 39T122 51T125 60Q127 72 128 96T129 148T130 202T130 243Q130 260 130 287T130 347T129 414T127 480T123 534T117 570Q109 595 89 602T53 612Q48 613 46 616T43 624Q43 632 48 633T60 635Q83 634 113 634T182 633Q195 633 211 633T245 634T279 634T309 635Q315 635 323 634T331 624Q331 614 323 613T308 610Q290 609 278 603T259 588T248 572T244 559Q241 545 239 517T236 455T235 391T235 343Q235 330 235 307T235 256T237 199T239 142T243 95T248 65Q255 45 269 35T308 20Q321 18 324 16T328 8Q328 -2 319 -3T307 -5Q302 -5 298 -5T291 -4Q279 -3 265 -2T236 -1T211 0T193 0Q173 0 158 0T129 0T103 -2T74 -4H68ZM133 818Q141 818 156 815T203 794Q242 771 262 771Q280 771 287 783T299 806Q301 810 304 814T317 818Q330 818 330 804Q330 802 329 786T319 750T293 714T245 698Q237 698 223 700T185 716Q168 725 158 730T142 739T131 743T121 744Q101 744 93 732T81 711Q79 706 76 703T63 699Q52 699 50 704T48 715Q48 736 54 754T72 787T99 810T133 818Z"  />
<glyph unicode="&#x129;" horiz-adv-x="271" d="M177 299Q177 287 177 257T177 194T177 131T177 90Q178 70 179 57T185 37T200 25T228 20Q240 19 246 18T252 8Q252 1 247 -1T237 -3L207 -1Q195 -1 185 -1T170 0Q165 0 147 0T107 -2Q86 -3 67 -4T41 -5Q38 -5 30 -4T21 7Q21 16 29 17T42 20Q48 20 55 21T69 25T82 34T90 52Q91 60 92 77T93 114T94 157T94 197Q94 207 94 233T93 288T89 341T81 370Q76 376 65 379T40 384Q22 387 22 396Q22 404 27 406T46 409L177 417V299ZM72 598Q80 598 95 595T142 574Q181 551 201 551Q219 551 226 563T238 586Q240 590 243 594T256 598Q269 598 269 584Q269 582 268 566T258 530T232 494T184 478Q176 478 162 480T124 496Q107 505 97 510T81 519T70 523T60 524Q40 524 32 512T20 491Q18 486 15 483T2 479Q-9 479 -11 484T-13 495Q-13 516 -7 534T11 567T38 590T72 598Z"  />
<glyph unicode="&#x12A;" horiz-adv-x="365" d="M68 -4Q50 -4 50 8Q50 15 55 16T84 21Q96 22 103 27T115 39T122 51T125 60Q127 72 128 96T129 148T130 202T130 243Q130 260 130 287T130 347T129 414T127 480T123 534T117 570Q109 595 89 602T53 612Q48 613 46 616T43 624Q43 632 48 633T60 635Q83 634 113 634T182 633Q195 633 211 633T245 634T279 634T309 635Q315 635 323 634T331 624Q331 614 323 613T308 610Q290 609 278 603T259 588T248 572T244 559Q241 545 239 517T236 455T235 391T235 343Q235 330 235 307T235 256T237 199T239 142T243 95T248 65Q255 45 269 35T308 20Q321 18 324 16T328 8Q328 -2 319 -3T307 -5Q302 -5 298 -5T291 -4Q279 -3 265 -2T236 -1T211 0T193 0Q173 0 158 0T129 0T103 -2T74 -4H68ZM339 763V704H37V763H339Z"  />
<glyph unicode="&#x12B;" horiz-adv-x="271" d="M177 299Q177 287 177 257T177 194T177 131T177 90Q178 70 179 57T185 37T200 25T228 20Q240 19 246 18T252 8Q252 1 247 -1T237 -3L207 -1Q195 -1 185 -1T170 0Q165 0 147 0T107 -2Q86 -3 67 -4T41 -5Q38 -5 30 -4T21 7Q21 16 29 17T42 20Q48 20 55 21T69 25T82 34T90 52Q91 60 92 77T93 114T94 157T94 197Q94 207 94 233T93 288T89 341T81 370Q76 376 65 379T40 384Q22 387 22 396Q22 404 27 406T46 409L177 417V299ZM287 543V484H-15V543H287Z"  />
<glyph unicode="&#x12E;" horiz-adv-x="365" d="M68 -4Q50 -4 50 8Q50 15 55 16T84 21Q96 22 103 27T115 39T122 51T125 60Q127 72 128 96T129 148T130 202T130 243Q130 260 130 287T130 347T129 414T127 480T123 534T117 570Q109 595 89 602T53 612Q48 613 46 616T43 624Q43 632 48 633T60 635Q83 634 113 634T182 633Q195 633 211 633T245 634T279 634T309 635Q315 635 323 634T331 624Q331 614 323 613T308 610Q290 609 278 603T259 588T248 572T244 559Q241 545 239 517T236 455T235 391T235 343Q235 330 235 307T235 256T237 199T239 142T243 95T248 65Q255 45 269 35T308 20Q321 18 324 16T328 8Q328 -2 319 -3T307 -5Q302 -5 298 -5T291 -4Q271 -1 247 -1T206 0Q194 -20 185 -42T176 -88Q176 -97 178 -107T188 -127T206 -143T236 -149Q245 -149 251 -148T262 -145Q264 -144 271 -142T281 -139Q291 -139 291 -150Q291 -156 282 -163T256 -178T220 -189T178 -194Q139 -194 120 -177T101 -132Q101 -94 123 -60T170 0Q141 0 121 -1T74 -4H68Z"  />
<glyph unicode="&#x12F;" horiz-adv-x="271" d="M177 299Q177 287 177 257T177 194T177 131T177 90Q178 70 179 57T185 37T200 25T228 20Q240 19 246 18T252 8Q252 1 247 -1T237 -3L207 -1Q195 -1 185 -1T170 0H157Q145 -20 136 -42T127 -88Q127 -97 129 -107T139 -127T157 -143T187 -149Q196 -149 202 -148T213 -145Q215 -144 222 -142T232 -139Q242 -139 242 -150Q242 -156 233 -163T207 -178T171 -189T129 -194Q90 -194 71 -177T52 -132Q52 -94 73 -61T120 -1Q117 -1 114 -1T107 -2Q86 -3 67 -4T41 -5Q38 -5 30 -4T21 7Q21 16 29 17T42 20Q48 20 55 21T69 25T82 34T90 52Q91 60 92 77T93 114T94 157T94 197Q94 207 94 233T93 288T89 341T81 370Q76 376 65 379T40 384Q22 387 22 396Q22 404 27 406T46 409L177 417V299ZM115 662Q138 662 154 646T171 607Q171 584 155 568T115 552Q92 552 77 568T61 607Q61 630 76 646T115 662Z"  />
<glyph unicode="&#x130;" horiz-adv-x="365" d="M68 -4Q50 -4 50 8Q50 15 55 16T84 21Q96 22 103 27T115 39T122 51T125 60Q127 72 128 96T129 148T130 202T130 243Q130 260 130 287T130 347T129 414T127 480T123 534T117 570Q109 595 89 602T53 612Q48 613 46 616T43 624Q43 632 48 633T60 635Q83 634 113 634T182 633Q195 633 211 633T245 634T279 634T309 635Q315 635 323 634T331 624Q331 614 323 613T308 610Q290 609 278 603T259 588T248 572T244 559Q241 545 239 517T236 455T235 391T235 343Q235 330 235 307T235 256T237 199T239 142T243 95T248 65Q255 45 269 35T308 20Q321 18 324 16T328 8Q328 -2 319 -3T307 -5Q302 -5 298 -5T291 -4Q279 -3 265 -2T236 -1T211 0T193 0Q173 0 158 0T129 0T103 -2T74 -4H68ZM187 817Q209 817 224 802T240 764Q240 742 225 727T187 712Q166 712 151 727T135 764Q135 787 150 802T187 817Z"  />
<glyph unicode="&#x131;" horiz-adv-x="271" d="M177 299Q177 287 177 257T177 194T177 131T177 90Q178 70 179 57T185 37T200 25T228 20Q240 19 246 18T252 8Q252 1 247 -1T237 -3L207 -1Q195 -1 185 -1T170 0Q165 0 147 0T107 -2Q86 -3 67 -4T41 -5Q38 -5 30 -4T21 7Q21 16 29 17T42 20Q48 20 55 21T69 25T82 34T90 52Q91 60 92 77T93 114T94 157T94 197Q94 207 94 233T93 288T89 341T81 370Q76 376 65 379T40 384Q22 387 22 396Q22 404 27 406T46 409L177 417V299Z"  />
<glyph unicode="&#x132;" horiz-adv-x="751" d="M68 -4Q50 -4 50 8Q50 15 55 16T84 21Q96 22 103 27T115 39T122 51T125 60Q127 72 128 96T129 148T130 202T130 243Q130 260 130 287T130 347T129 414T127 480T123 534T117 570Q109 595 89 602T53 612Q48 613 46 616T43 624Q43 632 48 633T60 635Q83 634 113 634T182 633Q195 633 211 633T245 634T279 634T309 635Q315 635 323 634T331 624Q331 614 323 613T308 610Q290 609 278 603T259 588T248 572T244 559Q241 545 239 517T236 455T235 391T235 343Q235 330 235 307T235 256T237 199T239 142T243 95T248 65Q255 45 269 35T308 20Q321 18 324 16T328 8Q328 -2 319 -3T307 -5Q302 -5 298 -5T291 -4Q279 -3 265 -2T236 -1T211 0T193 0Q173 0 158 0T129 0T103 -2T74 -4H68ZM640 341Q640 259 639 209T632 128T612 77T575 36Q521 -13 451 -13Q430 -13 411 -8T376 8T352 34T343 70Q343 96 359 112T402 129Q416 129 425 125T439 113T447 99T450 88Q450 76 445 68Q437 55 436 51T434 42Q434 40 435 36T439 28T448 21T465 17Q491 17 505 33T525 75T533 131T534 190V453Q534 483 533 510T527 558T510 594T477 611Q457 614 452 616T447 626Q447 634 454 635T479 637Q504 635 521 635T550 633T571 632T590 632Q595 632 607 632T634 634Q648 634 660 634T678 635Q708 635 719 634T731 621Q731 610 718 610Q690 610 675 603T652 579T642 532T640 455V341Z"  />
<glyph unicode="&#x133;" horiz-adv-x="522" d="M115 662Q138 662 154 646T171 607Q171 584 155 568T115 552Q92 552 77 568T61 607Q61 630 76 646T115 662ZM177 299Q177 287 177 257T177 194T177 131T177 90Q178 70 179 57T185 37T200 25T228 20Q240 19 246 18T252 8Q252 1 247 -1T237 -3L207 -1Q195 -1 185 -1T170 0Q165 0 147 0T107 -2Q86 -3 67 -4T41 -5Q38 -5 30 -4T21 7Q21 16 29 17T42 20Q48 20 55 21T69 25T82 34T90 52Q91 60 92 77T93 114T94 157T94 197Q94 207 94 233T93 288T89 341T81 370Q76 376 65 379T40 384Q22 387 22 396Q22 404 27 406T46 409L177 417V299ZM433 50Q433 0 431 -34T426 -91T419 -129T409 -158Q396 -191 378 -211T339 -243T298 -257T262 -261Q236 -261 218 -254T188 -236T171 -212T165 -186Q165 -164 178 -148T216 -132Q240 -132 250 -146T260 -171Q260 -174 258 -180T254 -194T249 -207T247 -215Q247 -225 256 -231T277 -238Q293 -238 305 -231T326 -216Q335 -207 340 -190T347 -153T349 -115T349 -85Q349 -80 349 -67T348 -40T348 -12T347 6V280Q347 319 345 340T338 372T323 384T300 387Q280 388 275 389T269 398Q269 408 277 409T295 412Q303 413 323 413T365 414T406 415T433 416V50ZM366 662Q389 662 405 646T422 607Q422 584 406 568T366 552Q343 552 328 568T312 607Q312 630 327 646T366 662Z"  />
<glyph unicode="&#x134;" horiz-adv-x="396" d="M285 341Q285 259 284 209T277 128T257 77T220 36Q166 -13 96 -13Q75 -13 56 -8T21 8T-3 34T-12 70Q-12 96 4 112T47 129Q61 129 70 125T84 113T92 99T95 88Q95 76 90 68Q82 55 81 51T79 42Q79 40 80 36T84 28T93 21T110 17Q136 17 150 33T170 75T178 131T179 190V453Q179 483 178 510T172 558T155 594T122 611Q102 614 97 616T92 626Q92 634 99 635T124 637Q149 635 166 635T195 633T216 632T235 632Q240 632 252 632T279 634Q293 634 305 634T323 635Q353 635 364 634T376 621Q376 610 363 610Q335 610 320 603T297 579T287 532T285 455V341ZM276 873L361 709Q367 698 368 695T370 691Q370 686 366 686T342 685L238 789L137 685H121Q116 685 112 685T107 691Q107 694 108 696T115 709L202 873H276Z"  />
<glyph unicode="&#x135;" horiz-adv-x="271" d="M182 50Q182 0 180 -34T175 -91T168 -129T158 -158Q145 -191 127 -211T88 -243T47 -257T11 -261Q-15 -261 -33 -254T-63 -236T-80 -212T-86 -186Q-86 -164 -73 -148T-35 -132Q-11 -132 -1 -146T9 -171Q9 -174 7 -180T3 -194T-2 -207T-4 -215Q-4 -225 5 -231T26 -238Q42 -238 54 -231T75 -216Q84 -207 89 -190T96 -153T98 -115T98 -85Q98 -80 98 -67T97 -40T97 -12T96 6V280Q96 319 94 340T87 372T72 384T49 387Q29 388 24 389T18 398Q18 408 26 409T44 412Q52 413 72 413T114 414T155 415T182 416V50ZM173 653L258 489Q264 478 265 475T267 471Q267 466 263 466T239 465L135 569L34 465H18Q13 465 9 465T4 471Q4 474 5 476T12 489L99 653H173Z"  />
<glyph unicode="&#x136;" horiz-adv-x="698" d="M289 640Q293 640 299 638T305 628Q305 620 300 619T272 616Q241 613 234 595T226 557Q226 537 226 506T227 442T228 377T230 325Q258 350 280 370T325 413T371 462T428 526Q437 537 449 553T461 580Q461 590 456 596T442 607T426 612T411 615Q399 617 395 618T391 627Q391 635 397 637T405 639Q409 639 421 639T447 640T473 640T491 640Q500 640 523 640T571 640T617 640T643 639Q652 637 652 628Q652 620 648 619T629 615Q597 611 570 598T512 558T439 488T338 379Q388 379 422 368T479 333T517 271T544 178Q555 125 569 95T598 50T628 29T657 21Q664 19 669 17T674 8Q674 0 668 -1T649 -3Q644 -3 633 -3T607 -1Q594 -1 583 -1T567 0Q565 0 555 0T531 -1T507 -2T491 -3Q479 10 473 21T461 51T449 103T433 195Q430 210 424 235T407 284T377 325T331 342Q300 342 276 325T230 289Q229 278 228 270T227 248T226 215T226 161Q226 117 227 92T235 52T258 32T302 20Q313 18 315 14T318 9Q318 -4 304 -4Q294 -4 268 -4T212 -2L135 0Q130 0 119 -1T96 -2T73 -4T57 -5Q46 -5 43 0T39 8Q39 14 45 15T60 19Q70 20 87 29T111 57Q113 66 115 86T120 134T123 191T126 249T127 300T128 337Q128 340 128 356T127 397T125 450T122 505T117 553T109 584Q101 600 87 604T53 612Q35 614 35 624Q35 634 46 635T71 637L289 640ZM347 -47Q376 -47 393 -66T411 -113Q411 -145 394 -172T348 -218Q331 -229 319 -234T296 -239Q294 -239 291 -237T288 -231Q288 -225 293 -219T315 -204Q329 -197 341 -187T354 -159Q354 -152 345 -147T326 -134T306 -118T297 -91Q297 -74 308 -61T347 -47Z"  />
<glyph unicode="&#x137;" horiz-adv-x="510" d="M342 0Q337 6 333 11T324 26T317 49T309 85Q302 126 291 150T268 189T245 210T224 219Q217 213 212 209T203 200T193 193T180 183Q180 149 180 121T184 72T197 39T227 23Q241 21 244 20T248 11Q248 3 243 2T221 0H58Q45 0 38 2T30 15Q30 20 35 20T64 27Q75 30 80 32T91 49Q94 58 95 84T96 149T95 235T94 334Q94 435 93 504T81 596Q76 607 63 612T27 623Q19 625 17 629T15 637Q15 642 22 646Q52 649 70 651T104 655T135 659T175 665Q175 615 175 555T176 434T178 316T180 215Q204 234 240 264T304 327Q325 352 325 366Q325 377 316 380T284 386Q279 386 274 388T269 397Q269 405 277 407Q280 408 296 409T331 410T367 411T389 411Q416 411 431 411T453 409T463 405T465 398Q465 390 458 389T443 385Q425 383 407 375T377 357Q371 352 359 340T333 315T307 289T290 273Q316 261 332 246T361 208T382 156T403 83Q408 65 413 55T427 39T446 30T476 24Q493 21 497 20T501 11Q501 3 493 2T476 0H342ZM253 -47Q282 -47 299 -66T317 -113Q317 -145 300 -172T254 -218Q237 -229 225 -234T202 -239Q200 -239 197 -237T194 -231Q194 -225 199 -219T221 -204Q235 -197 247 -187T260 -159Q260 -152 251 -147T232 -134T212 -118T203 -91Q203 -74 214 -61T253 -47Z"  />
<glyph unicode="&#x139;" horiz-adv-x="635" d="M587 -6Q576 -6 556 -6T509 -5T454 -3T399 -2T353 -1T323 0Q293 0 250 -1T159 -4Q154 -4 145 -4T126 -5T108 -6T95 -7Q72 -7 58 -7T37 -6T28 -3T26 4Q26 12 32 13T50 16Q94 19 111 41T134 107Q135 113 136 139T137 201T138 280T138 359T139 426T139 466Q139 513 131 542T110 587T79 609T43 618Q36 619 34 623T31 630Q31 638 38 639T50 641Q61 641 86 640T138 639Q166 638 189 638T222 638Q229 638 248 638T289 638T326 638T346 638Q350 638 353 636T357 628Q357 625 356 623T351 618T336 614T309 608Q271 600 260 578T247 519Q246 499 246 482T245 435T244 358T244 228Q244 162 245 122T255 60T283 31T337 24Q366 24 397 26T460 44T525 92T592 185Q600 199 602 202T611 206Q616 206 618 202T620 193Q620 190 618 177T614 147T609 115T606 94Q600 50 596 30T587 -6ZM194 694Q183 686 180 684T171 681Q164 681 160 686T156 696Q156 701 158 704T169 719L234 813Q239 820 246 830T262 849T281 864T303 870Q316 870 329 860T342 832Q342 827 341 822T334 810T317 791T284 764L194 694Z"  />
<glyph unicode="&#x13A;" horiz-adv-x="271" d="M90 526Q90 552 86 567T72 593T50 608T17 618Q14 619 8 621T1 632Q1 640 7 641T27 644Q42 645 61 646T100 651T139 657T172 665Q172 641 172 589T173 471T173 336T174 207T176 106T180 59Q188 34 205 28T240 19Q244 18 250 16T256 7Q256 -2 248 -3T231 -5Q224 -5 208 -5T174 -3Q156 -2 141 -2T120 -1Q115 -1 104 -2T79 -3T54 -5T38 -6Q37 -6 34 -6T26 -5T18 -2T14 5Q14 13 21 15T36 18Q68 21 81 39T94 110Q94 125 94 161T93 239T92 315T91 365L90 526ZM116 714Q105 706 102 704T93 701Q86 701 82 706T78 716Q78 721 80 724T91 739L156 833Q161 840 168 850T184 869T203 884T225 890Q238 890 251 880T264 852Q264 847 263 842T256 830T239 811T206 784L116 714Z"  />
<glyph unicode="&#x13B;" horiz-adv-x="635" d="M587 -6Q576 -6 556 -6T509 -5T454 -3T399 -2T353 -1T323 0Q293 0 250 -1T159 -4Q154 -4 145 -4T126 -5T108 -6T95 -7Q72 -7 58 -7T37 -6T28 -3T26 4Q26 12 32 13T50 16Q94 19 111 41T134 107Q135 113 136 139T137 201T138 280T138 359T139 426T139 466Q139 513 131 542T110 587T79 609T43 618Q36 619 34 623T31 630Q31 638 38 639T50 641Q61 641 86 640T138 639Q166 638 189 638T222 638Q229 638 248 638T289 638T326 638T346 638Q350 638 353 636T357 628Q357 625 356 623T351 618T336 614T309 608Q271 600 260 578T247 519Q246 499 246 482T245 435T244 358T244 228Q244 162 245 122T255 60T283 31T337 24Q366 24 397 26T460 44T525 92T592 185Q600 199 602 202T611 206Q616 206 618 202T620 193Q620 190 618 177T614 147T609 115T606 94Q600 50 596 30T587 -6ZM335 -47Q364 -47 381 -66T399 -113Q399 -145 382 -172T336 -218Q319 -229 307 -234T284 -239Q282 -239 279 -237T276 -231Q276 -225 281 -219T303 -204Q317 -197 329 -187T342 -159Q342 -152 333 -147T314 -134T294 -118T285 -91Q285 -74 296 -61T335 -47Z"  />
<glyph unicode="&#x13C;" horiz-adv-x="271" d="M90 526Q90 552 86 567T72 593T50 608T17 618Q14 619 8 621T1 632Q1 640 7 641T27 644Q42 645 61 646T100 651T139 657T172 665Q172 641 172 589T173 471T173 336T174 207T176 106T180 59Q188 34 205 28T240 19Q244 18 250 16T256 7Q256 -2 248 -3T231 -5Q224 -5 208 -5T174 -3Q156 -2 141 -2T120 -1Q115 -1 104 -2T79 -3T54 -5T38 -6Q37 -6 34 -6T26 -5T18 -2T14 5Q14 13 21 15T36 18Q68 21 81 39T94 110Q94 125 94 161T93 239T92 315T91 365L90 526ZM129 -47Q158 -47 175 -66T193 -113Q193 -145 176 -172T130 -218Q113 -229 101 -234T78 -239Q76 -239 73 -237T70 -231Q70 -225 75 -219T97 -204Q111 -197 123 -187T136 -159Q136 -152 127 -147T108 -134T88 -118T79 -91Q79 -74 90 -61T129 -47Z"  />
<glyph unicode="&#x13D;" horiz-adv-x="635" d="M587 -6Q576 -6 556 -6T509 -5T454 -3T399 -2T353 -1T323 0Q293 0 250 -1T159 -4Q154 -4 145 -4T126 -5T108 -6T95 -7Q72 -7 58 -7T37 -6T28 -3T26 4Q26 12 32 13T50 16Q94 19 111 41T134 107Q135 113 136 139T137 201T138 280T138 359T139 426T139 466Q139 513 131 542T110 587T79 609T43 618Q36 619 34 623T31 630Q31 638 38 639T50 641Q61 641 86 640T138 639Q166 638 189 638T222 638Q229 638 248 638T289 638T326 638T346 638Q350 638 353 636T357 628Q357 625 356 623T351 618T336 614T309 608Q271 600 260 578T247 519Q246 499 246 482T245 435T244 358T244 228Q244 162 245 122T255 60T283 31T337 24Q366 24 397 26T460 44T525 92T592 185Q600 199 602 202T611 206Q616 206 618 202T620 193Q620 190 618 177T614 147T609 115T606 94Q600 50 596 30T587 -6ZM414 618Q414 619 415 626T422 642T438 658T469 665Q498 665 515 645T533 601Q533 571 515 545T475 501T432 472T407 461Q404 461 401 464T397 472Q397 475 399 477T402 481Q421 497 433 507T451 526T460 540T462 554Q462 566 447 576Q433 585 424 591T414 618Z"  />
<glyph unicode="&#x13E;" horiz-adv-x="271" d="M90 526Q90 552 86 567T72 593T50 608T17 618Q14 619 8 621T1 632Q1 640 7 641T27 644Q42 645 61 646T100 651T139 657T172 665Q172 641 172 589T173 471T173 336T174 207T176 106T180 59Q188 34 205 28T240 19Q244 18 250 16T256 7Q256 -2 248 -3T231 -5Q224 -5 208 -5T174 -3Q156 -2 141 -2T120 -1Q115 -1 104 -2T79 -3T54 -5T38 -6Q37 -6 34 -6T26 -5T18 -2T14 5Q14 13 21 15T36 18Q68 21 81 39T94 110Q94 125 94 161T93 239T92 315T91 365L90 526ZM222 622Q222 623 223 629T229 644T244 658T271 665Q297 665 313 646T329 607Q329 580 313 557T276 516T238 490T215 480Q213 480 210 483T206 490Q206 493 208 495T211 498Q228 512 238 522T255 539T263 552T265 564Q265 576 251 584Q238 592 230 598T222 622Z"  />
<glyph unicode="&#x13F;" horiz-adv-x="635" d="M587 -6Q576 -6 556 -6T509 -5T454 -3T399 -2T353 -1T323 0Q293 0 250 -1T159 -4Q154 -4 145 -4T126 -5T108 -6T95 -7Q72 -7 58 -7T37 -6T28 -3T26 4Q26 12 32 13T50 16Q94 19 111 41T134 107Q135 113 136 139T137 201T138 280T138 359T139 426T139 466Q139 513 131 542T110 587T79 609T43 618Q36 619 34 623T31 630Q31 638 38 639T50 641Q61 641 86 640T138 639Q166 638 189 638T222 638Q229 638 248 638T289 638T326 638T346 638Q350 638 353 636T357 628Q357 625 356 623T351 618T336 614T309 608Q271 600 260 578T247 519Q246 499 246 482T245 435T244 358T244 228Q244 162 245 122T255 60T283 31T337 24Q366 24 397 26T460 44T525 92T592 185Q600 199 602 202T611 206Q616 206 618 202T620 193Q620 190 618 177T614 147T609 115T606 94Q600 50 596 30T587 -6ZM386 384Q408 384 423 369T439 331Q439 309 424 294T386 279Q365 279 350 294T334 331Q334 354 349 369T386 384Z"  />
<glyph unicode="&#x140;" horiz-adv-x="280" d="M90 526Q90 552 86 567T72 593T50 608T17 618Q14 619 8 621T1 632Q1 640 7 641T27 644Q42 645 61 646T100 651T139 657T172 665Q172 641 172 589T173 471T173 336T174 207T176 106T180 59Q188 34 205 28T240 19Q244 18 250 16T256 7Q256 -2 248 -3T231 -5Q224 -5 208 -5T174 -3Q156 -2 141 -2T120 -1Q115 -1 104 -2T79 -3T54 -5T38 -6Q37 -6 34 -6T26 -5T18 -2T14 5Q14 13 21 15T36 18Q68 21 81 39T94 110Q94 125 94 161T93 239T92 315T91 365L90 526ZM273 396Q295 396 310 381T326 343Q326 321 311 306T273 291Q252 291 237 306T221 343Q221 366 236 381T273 396Z"  />
<glyph unicode="&#x141;" horiz-adv-x="635" d="M587 -6Q576 -6 556 -6T509 -5T454 -3T399 -2T353 -1T323 0Q293 0 250 -1T159 -4Q154 -4 145 -4T126 -5T108 -6T95 -7Q72 -7 58 -7T37 -6T28 -3T26 4Q26 12 32 13T50 16Q94 19 111 41T134 107Q137 137 137 198L32 78V121L138 241Q138 270 138 307T138 378T139 436T139 466Q139 513 131 542T110 587T79 609T43 618Q36 619 34 623T31 630Q31 638 38 639T50 641Q61 641 86 640T138 639Q166 638 189 638T222 638Q229 638 248 638T289 638T326 638T346 638Q350 638 353 636T357 628Q357 625 356 623T351 618T336 614T309 608Q271 600 260 578T247 519Q247 509 247 489T246 446T245 400T245 362L366 499V456L245 318Q245 304 245 278T245 223T245 166T245 120Q245 104 246 87T256 56T283 33T337 24Q366 24 397 26T460 44T525 92T592 185Q600 199 602 202T611 206Q616 206 618 202T620 193Q620 190 618 177T614 147T609 115T606 94Q600 50 596 30T587 -6Z"  />
<glyph unicode="&#x142;" horiz-adv-x="271" d="M5 175V214L91 314L89 526Q89 550 85 566T72 591T50 607T17 618Q14 619 8 621T1 632Q1 640 7 641T27 644Q42 645 61 646T100 651T139 657T172 665Q172 633 172 566T173 408L259 508V469L173 369Q173 342 173 309T174 242T175 177T177 120T178 78T180 59Q188 34 205 28T240 19Q244 18 250 16T256 7Q256 -2 248 -3T231 -5Q224 -5 208 -5T174 -3Q156 -2 141 -2T120 -1Q115 -1 104 -2T79 -3T54 -5T38 -6Q37 -6 34 -6T26 -5T18 -2T14 5Q14 13 21 15T36 18Q68 21 82 39T96 110Q96 125 96 147T95 193T93 239T92 276L5 175Z"  />
<glyph unicode="&#x143;" horiz-adv-x="760" d="M198 633Q229 596 252 569T296 518T335 473T376 426T426 369T492 294Q511 272 525 257T550 228T573 202T598 172Q598 196 598 230T599 299T600 367T601 420Q601 462 600 495T589 551T560 587T503 606Q483 608 479 610T474 617Q474 628 483 629T496 631Q507 631 533 631T588 632T643 633T679 634Q701 634 714 634T734 633T743 629T745 622Q745 614 739 613T729 611Q693 608 674 595T646 561T636 518T634 472Q634 402 634 345T634 234T632 129T629 19Q629 5 626 1T618 -4Q615 -4 612 -3T597 10Q531 85 473 150T365 273T271 382T187 481L185 479Q185 458 185 427T186 358T188 282T192 206T197 139T204 91Q211 63 232 46T296 25Q304 24 310 22T317 12Q317 3 309 2T293 0Q286 0 266 0T223 2T181 3T157 4Q152 4 139 4T111 2T83 1T64 0Q60 0 51 1T41 12Q41 20 50 22T69 24Q97 25 114 34T141 59T153 97T156 145Q156 160 156 188T155 251T153 325T151 396T149 455T145 491Q141 514 130 534T104 570T76 595T52 607Q32 611 28 613T23 622Q23 630 29 631T65 633H198ZM390 694Q379 686 376 684T367 681Q360 681 356 686T352 696Q352 701 354 704T365 719L430 813Q435 820 442 830T458 849T477 864T499 870Q512 870 525 860T538 832Q538 827 537 822T530 810T513 791T480 764L390 694Z"  />
<glyph unicode="&#x144;" horiz-adv-x="521" d="M443 88Q442 50 450 39T473 22Q490 17 494 15T499 7Q499 5 497 0T486 -5Q481 -5 465 -4T430 -2Q412 0 397 0T378 1Q374 1 365 1T344 -2Q333 -3 325 -4T312 -5Q304 -5 301 -1T298 7Q298 15 304 17T314 20Q328 23 339 28T354 48Q357 58 358 85T360 142T361 199T361 239Q361 249 360 272T352 319T330 360T285 378Q265 378 244 367T204 328T174 251T162 129Q162 89 164 68T173 36T188 22T211 18Q216 17 220 15T225 5Q225 -7 214 -7Q211 -7 208 -7T202 -6Q194 -4 183 -3T160 -2T139 -1T126 -1Q121 -1 108 -1T79 -3Q64 -4 51 -5T32 -6Q26 -6 21 -3T15 6Q15 13 21 15T35 19Q59 24 66 33T76 52Q78 64 79 93T82 155T83 219T84 265Q84 326 74 353T36 389Q25 392 22 394T18 403Q18 412 24 413T36 415Q70 415 103 416T157 420Q161 407 163 397T167 377T170 355T171 327H173Q192 357 213 374T255 401T294 413T326 416Q334 416 354 413T395 397T431 357T446 283L443 88ZM248 474Q237 466 234 464T225 461Q218 461 214 466T210 476Q210 481 212 484T223 499L288 593Q293 600 300 610T316 629T335 644T357 650Q370 650 383 640T396 612Q396 607 395 602T388 590T371 571T338 544L248 474Z"  />
<glyph unicode="&#x145;" horiz-adv-x="760" d="M198 633Q229 596 252 569T296 518T335 473T376 426T426 369T492 294Q511 272 525 257T550 228T573 202T598 172Q598 196 598 230T599 299T600 367T601 420Q601 462 600 495T589 551T560 587T503 606Q483 608 479 610T474 617Q474 628 483 629T496 631Q507 631 533 631T588 632T643 633T679 634Q701 634 714 634T734 633T743 629T745 622Q745 614 739 613T729 611Q693 608 674 595T646 561T636 518T634 472Q634 402 634 345T634 234T632 129T629 19Q629 5 626 1T618 -4Q615 -4 612 -3T597 10Q531 85 473 150T365 273T271 382T187 481L185 479Q185 458 185 427T186 358T188 282T192 206T197 139T204 91Q211 63 232 46T296 25Q304 24 310 22T317 12Q317 3 309 2T293 0Q286 0 266 0T223 2T181 3T157 4Q152 4 139 4T111 2T83 1T64 0Q60 0 51 1T41 12Q41 20 50 22T69 24Q97 25 114 34T141 59T153 97T156 145Q156 160 156 188T155 251T153 325T151 396T149 455T145 491Q141 514 130 534T104 570T76 595T52 607Q32 611 28 613T23 622Q23 630 29 631T65 633H198ZM390 -47Q419 -47 436 -66T454 -113Q454 -145 437 -172T391 -218Q374 -229 362 -234T339 -239Q337 -239 334 -237T331 -231Q331 -225 336 -219T358 -204Q372 -197 384 -187T397 -159Q397 -152 388 -147T369 -134T349 -118T340 -91Q340 -74 351 -61T390 -47Z"  />
<glyph unicode="&#x146;" horiz-adv-x="521" d="M443 88Q442 50 450 39T473 22Q490 17 494 15T499 7Q499 5 497 0T486 -5Q481 -5 465 -4T430 -2Q412 0 397 0T378 1Q374 1 365 1T344 -2Q333 -3 325 -4T312 -5Q304 -5 301 -1T298 7Q298 15 304 17T314 20Q328 23 339 28T354 48Q357 58 358 85T360 142T361 199T361 239Q361 249 360 272T352 319T330 360T285 378Q265 378 244 367T204 328T174 251T162 129Q162 89 164 68T173 36T188 22T211 18Q216 17 220 15T225 5Q225 -7 214 -7Q211 -7 208 -7T202 -6Q194 -4 183 -3T160 -2T139 -1T126 -1Q121 -1 108 -1T79 -3Q64 -4 51 -5T32 -6Q26 -6 21 -3T15 6Q15 13 21 15T35 19Q59 24 66 33T76 52Q78 64 79 93T82 155T83 219T84 265Q84 326 74 353T36 389Q25 392 22 394T18 403Q18 412 24 413T36 415Q70 415 103 416T157 420Q161 407 163 397T167 377T170 355T171 327H173Q192 357 213 374T255 401T294 413T326 416Q334 416 354 413T395 397T431 357T446 283L443 88ZM263 -47Q292 -47 309 -66T327 -113Q327 -145 310 -172T264 -218Q247 -229 235 -234T212 -239Q210 -239 207 -237T204 -231Q204 -225 209 -219T231 -204Q245 -197 257 -187T270 -159Q270 -152 261 -147T242 -134T222 -118T213 -91Q213 -74 224 -61T263 -47Z"  />
<glyph unicode="&#x147;" horiz-adv-x="760" d="M198 633Q229 596 252 569T296 518T335 473T376 426T426 369T492 294Q511 272 525 257T550 228T573 202T598 172Q598 196 598 230T599 299T600 367T601 420Q601 462 600 495T589 551T560 587T503 606Q483 608 479 610T474 617Q474 628 483 629T496 631Q507 631 533 631T588 632T643 633T679 634Q701 634 714 634T734 633T743 629T745 622Q745 614 739 613T729 611Q693 608 674 595T646 561T636 518T634 472Q634 402 634 345T634 234T632 129T629 19Q629 5 626 1T618 -4Q615 -4 612 -3T597 10Q531 85 473 150T365 273T271 382T187 481L185 479Q185 458 185 427T186 358T188 282T192 206T197 139T204 91Q211 63 232 46T296 25Q304 24 310 22T317 12Q317 3 309 2T293 0Q286 0 266 0T223 2T181 3T157 4Q152 4 139 4T111 2T83 1T64 0Q60 0 51 1T41 12Q41 20 50 22T69 24Q97 25 114 34T141 59T153 97T156 145Q156 160 156 188T155 251T153 325T151 396T149 455T145 491Q141 514 130 534T104 570T76 595T52 607Q32 611 28 613T23 622Q23 630 29 631T65 633H198ZM350 684L265 848Q259 859 258 862T256 866Q256 871 260 871T284 872L388 768L489 872H505Q510 872 514 872T519 866Q519 863 518 861T511 848L424 684H350Z"  />
<glyph unicode="&#x148;" horiz-adv-x="521" d="M443 88Q442 50 450 39T473 22Q490 17 494 15T499 7Q499 5 497 0T486 -5Q481 -5 465 -4T430 -2Q412 0 397 0T378 1Q374 1 365 1T344 -2Q333 -3 325 -4T312 -5Q304 -5 301 -1T298 7Q298 15 304 17T314 20Q328 23 339 28T354 48Q357 58 358 85T360 142T361 199T361 239Q361 249 360 272T352 319T330 360T285 378Q265 378 244 367T204 328T174 251T162 129Q162 89 164 68T173 36T188 22T211 18Q216 17 220 15T225 5Q225 -7 214 -7Q211 -7 208 -7T202 -6Q194 -4 183 -3T160 -2T139 -1T126 -1Q121 -1 108 -1T79 -3Q64 -4 51 -5T32 -6Q26 -6 21 -3T15 6Q15 13 21 15T35 19Q59 24 66 33T76 52Q78 64 79 93T82 155T83 219T84 265Q84 326 74 353T36 389Q25 392 22 394T18 403Q18 412 24 413T36 415Q70 415 103 416T157 420Q161 407 163 397T167 377T170 355T171 327H173Q192 357 213 374T255 401T294 413T326 416Q334 416 354 413T395 397T431 357T446 283L443 88ZM223 464L138 628Q132 639 131 642T129 646Q129 651 133 651T157 652L261 548L362 652H378Q383 652 387 652T392 646Q392 643 391 641T384 628L297 464H223Z"  />
<glyph unicode="&#x149;" horiz-adv-x="521" d="M443 88Q442 50 450 39T473 22Q490 17 494 15T499 7Q499 5 497 0T486 -5Q481 -5 465 -4T430 -2Q412 0 397 0T378 1Q374 1 365 1T344 -2Q333 -3 325 -4T312 -5Q304 -5 301 -1T298 7Q298 15 304 17T314 20Q328 23 339 28T354 48Q357 58 358 85T360 142T361 199T361 239Q361 249 360 272T352 319T330 360T285 378Q265 378 244 367T204 328T174 251T162 129Q162 89 164 68T173 36T188 22T211 18Q216 17 220 15T225 5Q225 -7 214 -7Q211 -7 208 -7T202 -6Q194 -4 183 -3T160 -2T139 -1T126 -1Q121 -1 108 -1T79 -3Q64 -4 51 -5T32 -6Q26 -6 21 -3T15 6Q15 13 21 15T35 19Q59 24 66 33T76 52Q78 64 79 93T82 155T83 219T84 265Q84 326 74 353T36 389Q25 392 22 394T18 403Q18 412 24 413T36 415Q70 415 103 416T157 420Q161 407 163 397T167 377T170 355T171 327H173Q192 357 213 374T255 401T294 413T326 416Q334 416 354 413T395 397T431 357T446 283L443 88ZM-1 609Q-1 610 0 617T5 634T20 650T51 658Q89 658 107 637T125 594Q125 564 105 537T61 490T14 459T-13 447Q-16 447 -19 450T-23 458Q-23 461 -21 463T-18 467Q6 487 20 499T41 519T51 533T53 547Q53 553 49 556T38 564Q23 571 11 580T-1 609Z"  />
<glyph unicode="&#x14C;" horiz-adv-x="740" d="M41 311Q41 378 67 438T138 545T245 619T378 647Q450 647 509 622T610 553T676 452T699 331Q699 267 675 205T606 95T499 17T359 -13Q286 -13 227 13T127 83T64 186T41 311ZM566 317Q566 388 551 444T508 538T446 597T370 617Q329 617 294 597T232 539T190 444T174 317Q174 246 189 191T230 97T293 38T370 17Q410 17 446 37T508 95T550 189T566 317ZM525 763V704H223V763H525Z"  />
<glyph unicode="&#x14D;" horiz-adv-x="500" d="M27 206Q27 250 44 289T92 357T163 404T251 421Q299 421 338 404T406 358T449 292T465 216Q465 177 450 137T405 65T334 11T242 -10Q196 -10 157 7T89 53T44 121T27 206ZM128 211Q128 172 137 138T161 77T199 36T249 20Q271 20 292 32T331 68T358 124T368 197Q368 227 361 261T338 324T298 372T242 391Q210 391 188 374T153 329T134 271T128 211ZM401 543V484H99V543H401Z"  />
<glyph unicode="&#x14E;" horiz-adv-x="740" d="M41 311Q41 378 67 438T138 545T245 619T378 647Q450 647 509 622T610 553T676 452T699 331Q699 267 675 205T606 95T499 17T359 -13Q286 -13 227 13T127 83T64 186T41 311ZM566 317Q566 388 551 444T508 538T446 597T370 617Q329 617 294 597T232 539T190 444T174 317Q174 246 189 191T230 97T293 38T370 17Q410 17 446 37T508 95T550 189T566 317ZM378 695Q341 695 316 708T276 742T255 783T248 822Q248 834 252 837T263 840Q271 840 274 838T279 827Q286 799 315 784T380 768Q422 768 447 787T478 829Q479 834 481 836T492 839Q506 839 506 828Q506 826 504 806T489 760T450 715T378 695Z"  />
<glyph unicode="&#x14F;" horiz-adv-x="500" d="M27 206Q27 250 44 289T92 357T163 404T251 421Q299 421 338 404T406 358T449 292T465 216Q465 177 450 137T405 65T334 11T242 -10Q196 -10 157 7T89 53T44 121T27 206ZM128 211Q128 172 137 138T161 77T199 36T249 20Q271 20 292 32T331 68T358 124T368 197Q368 227 361 261T338 324T298 372T242 391Q210 391 188 374T153 329T134 271T128 211ZM251 475Q214 475 189 488T149 522T128 563T121 602Q121 614 125 617T136 620Q144 620 147 618T152 607Q159 579 188 564T253 548Q295 548 320 567T351 609Q352 614 354 616T365 619Q379 619 379 608Q379 606 377 586T362 540T323 495T251 475Z"  />
</font>
</defs>
</svg>
